<svg width="23" height="20" viewBox="0 0 23 20" fill="none" xmlns="http://www.w3.org/2000/svg">
<path d="M22.0171 1.99988H13.3436L11.1569 0.219811C10.9849 0.0749029 10.7687 0 10.5426 0H4.32635C3.78571 0 3.34351 0.445059 3.34351 1.00002V3.9999H6.12982C6.55832 3.9999 6.97969 4.14391 7.31604 4.40561L8.75181 5.49974H19.6485C20.5884 5.49974 21.3994 6.17695 21.5767 7.11007L23 14.3511V2.99976C23 2.4448 22.5626 1.99973 22.0172 1.99973L22.0171 1.99988Z" fill="#004AB3"/>
<path d="M20.6117 7.30012C20.5233 6.8351 20.1153 6.50016 19.6485 6.50016H8.42463L6.71936 5.20016C6.55234 5.07013 6.34112 5.00012 6.12972 5.00012H0.984834C0.690018 5.00012 0.414813 5.12998 0.228001 5.35504C0.0413794 5.58501 -0.0374068 5.8801 0.0167799 6.17497L2.29691 19.1749C2.3805 19.6499 2.78835 20 3.26515 20H21.909C22.2038 20 22.4841 19.865 22.6706 19.63C22.8573 19.4 22.9311 19.095 22.8721 18.8001L20.6117 7.30012ZM14.2503 14.1037L11.7937 16.6035C11.7482 16.6497 11.6939 16.6863 11.6336 16.7117C11.5736 16.7369 11.5098 16.7502 11.4458 16.7502C11.3818 16.7502 11.3181 16.7369 11.2581 16.7115C11.1978 16.6862 11.1435 16.6495 11.098 16.6033L8.64123 14.1036C8.44927 13.9082 8.44927 13.5918 8.64123 13.3966C8.8332 13.2013 9.14422 13.2013 9.33605 13.3966L10.9542 15.043L10.9543 9.75016C10.9543 9.47376 11.1743 9.25012 11.4458 9.25012C11.7173 9.25012 11.9372 9.47374 11.9372 9.75016V15.043L13.5554 13.3966C13.7473 13.2013 14.0583 13.2013 14.2502 13.3966C14.4423 13.5917 14.4423 13.9081 14.2504 14.1034L14.2503 14.1037Z" fill="#004AB3"/>
</svg>
