<svg width="62" height="62" viewBox="0 0 62 62" fill="none" xmlns="http://www.w3.org/2000/svg">
<path d="M59 2.49582L60.8516 2.99586C60.9139 2.98652 60.9739 3.02341 60.993 3.08317C61.0118 3.14061 60.9898 3.20364 60.9392 3.23679C56.8849 5.96775 52.6762 8.52508 48.4473 10.8676H48.3869C44.856 10.968 41.2784 11.0147 37.7477 11.0147C25.5579 11.0147 13.2271 10.4254 1.10441 9.2675C1.04308 9.25349 1 9.1998 1 9.13769C1 9.07513 1.04308 9.02096 1.10441 9.00696C3 7.48185 2.5 7.98046 3 7.48185" stroke="#004AB3" stroke-width="0.6" stroke-miterlimit="10"/>
<path d="M59 4.98883L60.8516 5.48887C60.9139 5.47954 60.9739 5.51642 60.993 5.57619C61.0118 5.63362 60.9898 5.69665 60.9392 5.7298C56.8849 8.46076 52.6762 11.0181 48.4473 13.3606H48.3869C44.856 13.461 41.2784 13.5077 37.7477 13.5077C25.5579 13.5077 13.2271 12.9185 1.10441 11.7605C1.04308 11.7465 1 11.6928 1 11.6307C1 11.5681 1.04308 11.514 1.10441 11.5C3 9.97486 2.5 10.4735 3 9.97486" stroke="#004AB3" stroke-width="0.6" stroke-miterlimit="10"/>
<path d="M59 7.48184L60.8516 7.98189C60.9139 7.97255 60.9739 8.00943 60.993 8.0692C61.0118 8.12663 60.9898 8.18967 60.9392 8.22281C56.8849 10.9538 52.6762 13.5111 48.4473 15.8536H48.3869C44.856 15.954 41.2784 16.0007 37.7477 16.0007C25.5579 16.0007 13.2271 15.4115 1.10441 14.2535C1.04308 14.2395 1 14.1858 1 14.1237C1 14.0612 1.04308 14.007 1.10441 13.993C3 12.4679 2.5 12.9665 3 12.4679" stroke="#004AB3" stroke-width="0.6" stroke-miterlimit="10"/>
<path d="M59 9.97485L60.8516 10.4749C60.9139 10.4656 60.9739 10.5024 60.993 10.5622C61.0118 10.6196 60.9898 10.6827 60.9392 10.7158C56.8849 13.4468 52.6762 16.0041 48.4473 18.3466H48.3869C44.856 18.447 41.2784 18.4937 37.7477 18.4937C25.5579 18.4937 13.2271 17.9045 1.10441 16.7465C1.04308 16.7325 1 16.6788 1 16.6167C1 16.5542 1.04308 16.5 1.10441 16.486C3 14.9609 2.5 15.4595 3 14.9609" stroke="#004AB3" stroke-width="0.6" stroke-miterlimit="10"/>
<path d="M59 12.4679L60.8516 12.9679C60.9139 12.9586 60.9739 12.9955 60.993 13.0552C61.0118 13.1127 60.9898 13.1757 60.9392 13.2088C56.8849 15.9398 52.6762 18.4971 48.4473 20.8397H48.3869C44.856 20.94 41.2784 20.9867 37.7477 20.9867C25.5579 20.9867 13.2271 20.3975 1.10441 19.2395C1.04308 19.2255 1 19.1718 1 19.1097C1 19.0472 1.04308 18.993 1.10441 18.979C3 17.4539 2.5 17.9525 3 17.4539" stroke="#004AB3" stroke-width="0.6" stroke-miterlimit="10"/>
<path d="M59 14.9609L60.8516 15.461C60.9139 15.4516 60.9739 15.4885 60.993 15.5483C61.0118 15.6057 60.9898 15.6687 60.9392 15.7019C56.8849 18.4328 52.6762 20.9902 48.4473 23.3327H48.3869C44.856 23.4331 41.2784 23.4798 37.7477 23.4798C25.5579 23.4798 13.2271 22.8905 1.10441 21.7326C1.04308 21.7186 1 21.6649 1 21.6028C1 21.5402 1.04308 21.4861 1.10441 21.472C3 19.9469 2.5 20.4455 3 19.9469" stroke="#004AB3" stroke-width="0.6" stroke-miterlimit="10"/>
<path d="M59 17.4539L60.8516 17.954C60.9139 17.9446 60.9739 17.9815 60.993 18.0413C61.0118 18.0987 60.9898 18.1617 60.9392 18.1949C56.8849 20.9259 52.6762 23.4832 48.4473 25.8257H48.3869C44.856 25.9261 41.2784 25.9728 37.7477 25.9728C25.5579 25.9728 13.2271 25.3835 1.10441 24.2256C1.04308 24.2116 1 24.1579 1 24.0958C1 24.0332 1.04308 23.9791 1.10441 23.9651C3 22.44 2.5 22.9386 3 22.44" stroke="#004AB3" stroke-width="0.6" stroke-miterlimit="10"/>
<path d="M59 19.9469L60.8516 20.447C60.9139 20.4376 60.9739 20.4745 60.993 20.5343C61.0118 20.5917 60.9898 20.6548 60.9392 20.6879C56.8849 23.4189 52.6762 25.9762 48.4473 28.3187H48.3869C44.856 28.4191 41.2784 28.4658 37.7477 28.4658C25.5579 28.4658 13.2271 27.8766 1.10441 26.7186C1.04308 26.7046 1 26.6509 1 26.5888C1 26.5262 1.04308 26.4721 1.10441 26.4581C3 24.933 2.5 25.4316 3 24.933" stroke="#004AB3" stroke-width="0.6" stroke-miterlimit="10"/>
<path d="M59 22.4399L60.8516 22.94C60.9139 22.9306 60.9739 22.9675 60.993 23.0273C61.0118 23.0847 60.9898 23.1478 60.9392 23.1809C56.8849 25.9119 52.6762 28.4692 48.4473 30.8117H48.3869C44.856 30.9121 41.2784 30.9588 37.7477 30.9588C25.5579 30.9588 13.2271 30.3696 1.10441 29.2116C1.04308 29.1976 1 29.1439 1 29.0818C1 29.0192 1.04308 28.9651 1.10441 28.9511C3 27.426 2.5 27.9246 3 27.426" stroke="#004AB3" stroke-width="0.6" stroke-miterlimit="10"/>
<path d="M59 24.933L60.8516 25.433C60.9139 25.4237 60.9739 25.4605 60.993 25.5203C61.0118 25.5777 60.9898 25.6408 60.9392 25.6739C56.8849 28.4049 52.6762 30.9622 48.4473 33.3047H48.3869C44.856 33.4051 41.2784 33.4518 37.7477 33.4518C25.5579 33.4518 13.2271 32.8626 1.10441 31.7046C1.04308 31.6906 1 31.6369 1 31.5748C1 31.5123 1.04308 31.4581 1.10441 31.4441C3 29.919 2.5 30.4176 3 29.919" stroke="#004AB3" stroke-width="0.6" stroke-miterlimit="10"/>
<path d="M59 27.426L60.8516 27.926C60.9139 27.9167 60.9739 27.9536 60.993 28.0133C61.0118 28.0708 60.9898 28.1338 60.9392 28.1669C56.8849 30.8979 52.6762 33.4552 48.4473 35.7978H48.3869C44.856 35.8981 41.2784 35.9448 37.7477 35.9448C25.5579 35.9448 13.2271 35.3556 1.10441 34.1976C1.04308 34.1836 1 34.1299 1 34.0678C1 34.0053 1.04308 33.9511 1.10441 33.9371C3 32.412 2.5 32.9106 3 32.412" stroke="#004AB3" stroke-width="0.6" stroke-miterlimit="10"/>
<path d="M59 29.919L60.8516 30.419C60.9139 30.4097 60.9739 30.4466 60.993 30.5064C61.0118 30.5638 60.9898 30.6268 60.9392 30.66C56.8849 33.3909 52.6762 35.9483 48.4473 38.2908H48.3869C44.856 38.3912 41.2784 38.4379 37.7477 38.4379C25.5579 38.4379 13.2271 37.8486 1.10441 36.6907C1.04308 36.6767 1 36.623 1 36.5609C1 36.4983 1.04308 36.4442 1.10441 36.4301C3 34.905 2.5 35.4036 3 34.905" stroke="#004AB3" stroke-width="0.6" stroke-miterlimit="10"/>
<path d="M59 32.412L60.8516 32.9121C60.9139 32.9027 60.9739 32.9396 60.993 32.9994C61.0118 33.0568 60.9898 33.1198 60.9392 33.153C56.8849 35.884 52.6762 38.4413 48.4473 40.7838H48.3869C44.856 40.8842 41.2784 40.9309 37.7477 40.9309C25.5579 40.9309 13.2271 40.3416 1.10441 39.1837C1.04308 39.1697 1 39.116 1 39.0539C1 38.9913 1.04308 38.9372 1.10441 38.9232C3 37.3981 2.5 37.8967 3 37.3981" stroke="#004AB3" stroke-width="0.6" stroke-miterlimit="10"/>
<path d="M59 34.905L60.8516 35.4051C60.9139 35.3957 60.9739 35.4326 60.993 35.4924C61.0118 35.5498 60.9898 35.6129 60.9392 35.646C56.8849 38.377 52.6762 40.9343 48.4473 43.2768H48.3869C44.856 43.3772 41.2784 43.4239 37.7477 43.4239C25.5579 43.4239 13.2271 42.8347 1.10441 41.6767C1.04308 41.6627 1 41.609 1 41.5469C1 41.4843 1.04308 41.4302 1.10441 41.4162C3 39.8911 2.5 40.3897 3 39.8911" stroke="#004AB3" stroke-width="0.6" stroke-miterlimit="10"/>
<path d="M59 37.398L60.8516 37.8981C60.9139 37.8887 60.9739 37.9256 60.993 37.9854C61.0118 38.0428 60.9898 38.1059 60.9392 38.139C56.8849 40.87 52.6762 43.4273 48.4473 45.7698H48.3869C44.856 45.8702 41.2784 45.9169 37.7477 45.9169C25.5579 45.9169 13.2271 45.3277 1.10441 44.1697C1.04308 44.1557 1 44.102 1 44.0399C1 43.9773 1.04308 43.9232 1.10441 43.9092C3 42.3841 2.5 42.8827 3 42.3841" stroke="#004AB3" stroke-width="0.6" stroke-miterlimit="10"/>
<path d="M59 39.8911L60.8516 40.3911C60.9139 40.3818 60.9739 40.4186 60.993 40.4784C61.0118 40.5358 60.9898 40.5989 60.9392 40.632C56.8849 43.363 52.6762 45.9203 48.4473 48.2628H48.3869C44.856 48.3632 41.2784 48.4099 37.7477 48.4099C25.5579 48.4099 13.2271 47.8207 1.10441 46.6627C1.04308 46.6487 1 46.595 1 46.5329C1 46.4704 1.04308 46.4162 1.10441 46.4022C3 44.8771 2.5 45.3757 3 44.8771" stroke="#004AB3" stroke-width="0.6" stroke-miterlimit="10"/>
<path d="M59 42.3841L60.8516 42.8841C60.9139 42.8748 60.9739 42.9117 60.993 42.9714C61.0118 43.0289 60.9898 43.0919 60.9392 43.125C56.8849 45.856 52.6762 48.4133 48.4473 50.7559H48.3869C44.856 50.8562 41.2784 50.9029 37.7477 50.9029C25.5579 50.9029 13.2271 50.3137 1.10441 49.1557C1.04308 49.1417 1 49.088 1 49.0259C1 48.9634 1.04308 48.9092 1.10441 48.8952C3 47.3701 2.5 47.8687 3 47.3701" stroke="#004AB3" stroke-width="0.6" stroke-miterlimit="10"/>
<path d="M59 44.8771L60.8516 45.3771C60.9139 45.3678 60.9739 45.4047 60.993 45.4644C61.0118 45.5219 60.9898 45.5849 60.9392 45.618C56.8849 48.349 52.6762 50.9063 48.4473 53.2489H48.3869C44.856 53.3493 41.2784 53.3959 37.7477 53.3959C25.5579 53.3959 13.2271 52.8067 1.10441 51.6488C1.04308 51.6347 1 51.5811 1 51.519C1 51.4564 1.04308 51.4022 1.10441 51.3882C3 49.8631 2.5 50.3617 3 49.8631" stroke="#004AB3" stroke-width="0.6" stroke-miterlimit="10"/>
<path d="M59 47.3701L60.8516 47.8702C60.9139 47.8608 60.9739 47.8977 60.993 47.9575C61.0118 48.0149 60.9898 48.0779 60.9392 48.1111C56.8849 50.8421 52.6762 53.3994 48.4473 55.7419H48.3869C44.856 55.8423 41.2784 55.889 37.7477 55.889C25.5579 55.889 13.2271 55.2997 1.10441 54.1418C1.04308 54.1278 1 54.0741 1 54.012C1 53.9494 1.04308 53.8953 1.10441 53.8813C3 52.3562 2.5 52.8548 3 52.3562" stroke="#004AB3" stroke-width="0.6" stroke-miterlimit="10"/>
<path d="M59 49.8631L60.8516 50.3632C60.9139 50.3538 60.9739 50.3907 60.993 50.4505C61.0118 50.5079 60.9898 50.571 60.9392 50.6041C56.8849 53.3351 52.6762 55.8924 48.4473 58.2349H48.3869C44.856 58.3353 41.2784 58.382 37.7477 58.382C25.5579 58.382 13.2271 57.7928 1.10441 56.6348C1.04308 56.6208 1 56.5671 1 56.505C1 56.4424 1.04308 56.3883 1.10441 56.3743C3 54.8492 2.5 55.3478 3 54.8492" stroke="#004AB3" stroke-width="0.6" stroke-miterlimit="10"/>
<path d="M59 52.3561L60.8516 52.8562C60.9139 52.8468 60.9739 52.8837 60.993 52.9435C61.0118 53.0009 60.9898 53.064 60.9392 53.0971C56.8849 55.8281 52.6762 58.3854 48.4473 60.7279H48.3869C44.856 60.8283 41.2784 60.875 37.7477 60.875C25.5579 60.875 13.2271 60.2858 1.10441 59.1278C1.04308 59.1138 1 59.0601 1 58.998C1 58.9354 1.04308 58.8813 1.10441 58.8673C3 57.3422 2.5 57.8408 3 57.3422" stroke="#004AB3" stroke-width="0.6" stroke-miterlimit="10"/>
<path d="M37.7477 8.98051C25.5579 8.98051 13.2271 8.39127 1.10444 7.23332C1.04311 7.21932 1.00003 7.16515 1.00003 7.10259C1.00003 7.04049 1.04311 6.98633 1.10444 6.97232C5.54131 5.73405 9.98502 4.24785 14.3078 2.56793H14.3617C17.7713 2.65477 21.2621 2.72855 24.7049 2.72855C36.7336 2.72855 48.8697 2.1463 60.8515 1.00144C60.9137 0.992102 60.9737 1.02899 60.9929 1.08828C61.0116 1.14618 60.9896 1.20921 60.939 1.24237C56.9113 3.97333 52.6894 6.53019 48.4539 8.83972H48.3934C44.8626 8.93357 41.2648 8.98073 37.7475 8.98073L37.7477 8.98051Z" stroke="#004AB3" stroke-width="0.6" stroke-miterlimit="10"/>
<path d="M43.3867 2.33414C43.3609 2.26411 43.2935 2.21882 43.219 2.22022L28.2371 2.66892H28.1701L16.5774 8.08424C16.5727 8.10619 16.5727 8.12907 16.5774 8.15101V60.2968C16.5774 60.3869 16.6485 60.4607 16.7384 60.4644L30.982 61C31.0265 61 31.0691 60.9822 31.101 60.951C31.1323 60.9192 31.1501 60.8767 31.1501 60.8324V8.93411C34.1575 8.52602 42.9236 2.77591 43.3056 2.52155C43.3721 2.48466 43.4054 2.40745 43.3867 2.33414Z" fill="#004AB3"/>
</svg>
