<svg width="26" height="30" viewBox="0 0 26 30" fill="none" xmlns="http://www.w3.org/2000/svg">
<path d="M9.11312 3.80203C9.20453 4.11326 9.02144 4.43914 8.7029 4.52889C8.38574 4.61863 8.05252 4.43943 7.96112 4.1282L7.10829 1.24038C7.01605 0.928609 7.19997 0.603821 7.5174 0.513519C7.83539 0.424051 8.16833 0.602988 8.26032 0.914214L9.11312 3.80203Z" fill="#E30016"/>
<path d="M16.5091 10.7849C16.5091 14.0053 13.8417 16.6164 10.5511 16.6164C7.26073 16.6164 4.59326 14.0053 4.59326 10.7849C4.59326 7.56413 7.26066 4.95337 10.5511 4.95337C13.8417 4.95337 16.5091 7.56413 16.5091 10.7849Z" fill="#E30016"/>
<path d="M12.0162 17.8605C11.9248 17.5493 12.1079 17.224 12.4264 17.1337C12.7436 17.0439 13.0765 17.224 13.169 17.5344L14.0219 20.4225C14.1133 20.7337 13.9296 21.059 13.6125 21.1488C13.2945 21.2391 12.9616 21.0593 12.8691 20.7481L12.0162 17.8605Z" fill="#E30016"/>
<path d="M3.38297 12.252C3.70068 12.1623 4.0339 12.3417 4.12589 12.653C4.2173 12.9639 4.0342 13.2895 3.71622 13.3793L0.766252 14.214C0.448266 14.3037 0.115326 14.1243 0.0236186 13.8133C-0.0680671 13.5021 0.115304 13.1762 0.433006 13.0862L3.38297 12.252Z" fill="#E30016"/>
<path d="M14.6164 4.85641C14.4563 5.14025 14.0923 5.24301 13.802 5.08658C13.5126 4.93042 13.407 4.5731 13.5666 4.28955L15.0493 1.65762C15.2097 1.37377 15.5748 1.27102 15.8642 1.42718C16.1536 1.58388 16.2597 1.94093 16.1002 2.22477L14.6164 4.85641Z" fill="#E30016"/>
<path d="M6.51291 16.8064C6.67329 16.523 7.03837 16.4203 7.32724 16.5762C7.61752 16.7321 7.72278 17.0891 7.56323 17.3732L6.08051 20.0057C5.92097 20.289 5.55562 20.3923 5.26619 20.2361C4.97676 20.08 4.87038 19.7227 5.0302 19.4383L6.51291 16.8064Z" fill="#E30016"/>
<path d="M4.46017 6.86568C4.75017 7.02238 4.85571 7.37942 4.69561 7.66326C4.53634 7.94657 4.17155 8.04986 3.88129 7.8937L1.19255 6.4422C0.902541 6.2855 0.797006 5.92845 0.956276 5.64517C1.11665 5.36132 1.48117 5.25803 1.77145 5.41473L4.46017 6.86568Z" fill="#E30016"/>
<path d="M17.4132 8.28213C17.096 8.37241 16.9124 8.69801 17.0041 9.00899C17.0958 9.31995 17.4281 9.49997 17.7467 9.40996L18.0195 9.33269V8.11084L17.4132 8.28213Z" fill="#E30016"/>
<path d="M17.2485 13.7686C16.9585 13.6125 16.594 13.7158 16.4342 13.9991C16.2741 14.2832 16.3794 14.64 16.6694 14.7969L18.0186 15.5254V14.1851L17.2485 13.7686Z" fill="#E30016"/>
<path d="M22.3023 22.7598C22.3134 22.7018 22.3204 22.6405 22.3204 22.5784L22.3201 5.71957C22.3201 5.19172 21.883 4.76416 21.3437 4.76416C20.8049 4.76416 20.3681 5.1917 20.3681 5.71957V22.5784C20.3681 22.6405 20.3742 22.7015 20.3861 22.7598C19.254 23.1477 18.4419 24.2018 18.4419 25.4411C18.4419 27.0105 19.7412 28.2825 21.3442 28.2825C22.9471 28.2825 24.2473 27.0108 24.2473 25.4411C24.2468 24.2019 23.4343 23.1477 22.3023 22.7601L22.3023 22.7598Z" fill="#E30016"/>
<path d="M23.8998 21.6333V2.50152C23.8998 1.12212 22.7531 0 21.3432 0C19.9344 0 18.7871 1.12212 18.7871 2.50152V21.6333C17.4867 22.4721 16.687 23.9109 16.687 25.4418C16.687 27.9559 18.7761 30 21.3432 30C23.9109 30 26 27.9556 26 25.4418C26 23.9107 25.2006 22.4719 23.8998 21.6333ZM21.3432 29.2025C19.2242 29.2025 17.5006 27.5156 17.5006 25.4412C17.5006 24.1144 18.2285 22.8711 19.4001 22.1971L19.6015 22.0816V2.50075C19.6015 1.56053 20.3826 0.795775 21.3432 0.795775C22.3041 0.795775 23.0857 1.5606 23.0857 2.50075V22.0816L23.2865 22.1971C24.4584 22.8705 25.1861 24.1144 25.1861 25.4412C25.1864 27.516 23.463 29.2025 21.3432 29.2025H21.3432Z" fill="#E30016"/>
</svg>
