<svg width="44" height="60" viewBox="0 0 44 60" fill="none" xmlns="http://www.w3.org/2000/svg">
<mask id="path-1-inside-1_92_10543" fill="white">
<path d="M42.4957 1.67359V1.55773C42.4957 0.698744 41.7483 0 40.8308 0H1.6643C0.746361 0 0 0.698731 0 1.55773V57.4032L1.40342 57.8202V59.1354L4.3119 60L6.93697 59.2196L9.55973 60L12.1854 59.2196L14.8099 60L17.4367 59.2196L20.0618 60L22.688 59.2196L25.3159 60L27.9433 59.2196L30.5713 60L33.1981 59.2196L35.8255 60L38.4534 59.2196L41.0859 59.9995L44 59.1359V3.25779C44 2.44065 43.3413 1.77211 42.4957 1.67359ZM41.0765 1.65368V56.4735L39.6313 56.9022L36.9994 56.1218L34.3714 56.9022L31.744 56.1218L29.1172 56.9022L26.4893 56.1218L23.8619 56.9022L21.2339 56.1218L18.6077 56.9022L15.9826 56.1218L13.3558 56.9022L10.7313 56.1218L8.10568 56.9022L5.48336 56.1218L2.92375 56.8823L2.8577 56.9022L2.16389 56.696L1.41927 56.4745L1.41871 1.55801C1.41871 1.40898 1.53105 1.28341 1.66428 1.28341H40.8294C40.9632 1.28341 41.0755 1.40897 41.0755 1.55801L41.0765 1.65368ZM35.688 12.8567H6.80847V11.299H35.688V12.8567ZM3.89493 44.9665H38.6016V46.0659L3.89493 46.0664V44.9665ZM35.5724 17.5135H31.6884V16.4141H35.5724V17.5135ZM31.6884 20.7085H35.5724V21.8079H31.6884V20.7085ZM31.6884 25.0029H35.5724V26.1023H31.6884V25.0029ZM31.6884 29.2973H35.5724V30.3967H31.6884V29.2973ZM20.9634 17.5133H6.9235V16.414H20.9634V17.5133ZM18.0075 21.8078H6.9235V20.7084H18.0075V21.8078ZM6.9235 25.0028H18.0075V26.1022H6.9235V25.0028ZM6.9235 29.2972H20.9634V30.3966H6.9235V29.2972ZM29.1855 47.8679V48.9673H13.3099V47.8679H29.1855ZM11.6956 50.3106H30.8026V51.41H11.6956V50.3106ZM10.1019 8.41208V5.3579C10.1019 4.8521 10.5558 4.44175 11.1153 4.44175H31.3814C31.9409 4.44175 32.3947 4.8521 32.3947 5.3579V8.41208C32.3947 8.91788 31.9409 9.32823 31.3814 9.32823H11.1153C10.5553 9.32823 10.1019 8.91839 10.1019 8.41208Z"/>
</mask>
<path d="M42.4957 1.67359V1.55773C42.4957 0.698744 41.7483 0 40.8308 0H1.6643C0.746361 0 0 0.698731 0 1.55773V57.4032L1.40342 57.8202V59.1354L4.3119 60L6.93697 59.2196L9.55973 60L12.1854 59.2196L14.8099 60L17.4367 59.2196L20.0618 60L22.688 59.2196L25.3159 60L27.9433 59.2196L30.5713 60L33.1981 59.2196L35.8255 60L38.4534 59.2196L41.0859 59.9995L44 59.1359V3.25779C44 2.44065 43.3413 1.77211 42.4957 1.67359ZM41.0765 1.65368V56.4735L39.6313 56.9022L36.9994 56.1218L34.3714 56.9022L31.744 56.1218L29.1172 56.9022L26.4893 56.1218L23.8619 56.9022L21.2339 56.1218L18.6077 56.9022L15.9826 56.1218L13.3558 56.9022L10.7313 56.1218L8.10568 56.9022L5.48336 56.1218L2.92375 56.8823L2.8577 56.9022L2.16389 56.696L1.41927 56.4745L1.41871 1.55801C1.41871 1.40898 1.53105 1.28341 1.66428 1.28341H40.8294C40.9632 1.28341 41.0755 1.40897 41.0755 1.55801L41.0765 1.65368ZM35.688 12.8567H6.80847V11.299H35.688V12.8567ZM3.89493 44.9665H38.6016V46.0659L3.89493 46.0664V44.9665ZM35.5724 17.5135H31.6884V16.4141H35.5724V17.5135ZM31.6884 20.7085H35.5724V21.8079H31.6884V20.7085ZM31.6884 25.0029H35.5724V26.1023H31.6884V25.0029ZM31.6884 29.2973H35.5724V30.3967H31.6884V29.2973ZM20.9634 17.5133H6.9235V16.414H20.9634V17.5133ZM18.0075 21.8078H6.9235V20.7084H18.0075V21.8078ZM6.9235 25.0028H18.0075V26.1022H6.9235V25.0028ZM6.9235 29.2972H20.9634V30.3966H6.9235V29.2972ZM29.1855 47.8679V48.9673H13.3099V47.8679H29.1855ZM11.6956 50.3106H30.8026V51.41H11.6956V50.3106ZM10.1019 8.41208V5.3579C10.1019 4.8521 10.5558 4.44175 11.1153 4.44175H31.3814C31.9409 4.44175 32.3947 4.8521 32.3947 5.3579V8.41208C32.3947 8.91788 31.9409 9.32823 31.3814 9.32823H11.1153C10.5553 9.32823 10.1019 8.91839 10.1019 8.41208Z" fill="#004AB3"/>
<path d="M32.3015 43.326H33.8213V43.126H32.3015V43.326ZM42.4957 1.67359H42.2957V1.85164L42.4726 1.87225L42.4957 1.67359ZM0 57.4032H-0.2V57.5524L-0.0569632 57.5949L0 57.4032ZM1.40342 57.8202H1.60342V57.671L1.46039 57.6285L1.40342 57.8202ZM1.40342 59.1354H1.20342V59.2846L1.34643 59.3271L1.40342 59.1354ZM4.3119 60L4.25491 60.1917L4.3119 60.2087L4.36889 60.1917L4.3119 60ZM6.93697 59.2196L6.99401 59.0279L6.937 59.0109L6.87998 59.0279L6.93697 59.2196ZM9.55973 60L9.5027 60.1917L9.5597 60.2087L9.61671 60.1917L9.55973 60ZM12.1854 59.2196L12.2424 59.0279L12.1854 59.011L12.1284 59.0279L12.1854 59.2196ZM14.8099 60L14.7529 60.1917L14.8099 60.2087L14.8668 60.1917L14.8099 60ZM17.4367 59.2196L17.4937 59.0279L17.4367 59.011L17.3797 59.0279L17.4367 59.2196ZM20.0618 60L20.0048 60.1917L20.0617 60.2087L20.1187 60.1917L20.0618 60ZM22.688 59.2196L22.7449 59.0279L22.688 59.011L22.631 59.0279L22.688 59.2196ZM25.3159 60L25.259 60.1917L25.3159 60.2086L25.3729 60.1917L25.3159 60ZM27.9433 59.2196L28.0003 59.0279L27.9433 59.011L27.8864 59.0279L27.9433 59.2196ZM30.5713 60L30.5144 60.1917L30.5713 60.2086L30.6282 60.1917L30.5713 60ZM33.1981 59.2196L33.255 59.0279L33.1981 59.011L33.1411 59.0279L33.1981 59.2196ZM35.8255 60L35.7685 60.1917L35.8255 60.2086L35.8824 60.1917L35.8255 60ZM38.4534 59.2196L38.5103 59.0278L38.4534 59.011L38.3965 59.0279L38.4534 59.2196ZM41.0859 59.9995L41.0291 60.1913L41.0859 60.2081L41.1427 60.1912L41.0859 59.9995ZM44 59.1359L44.0568 59.3277L44.2 59.2852V59.1359H44ZM41.0765 1.65368H41.2765L41.2765 1.65164L41.0765 1.65368ZM41.0765 56.4735L41.1333 56.6652L41.2765 56.6227V56.4735H41.0765ZM39.6313 56.9022L39.5744 57.0939L39.6313 57.1108L39.6881 57.0939L39.6313 56.9022ZM36.9994 56.1218L37.0563 55.93L36.9994 55.9132L36.9425 55.9301L36.9994 56.1218ZM34.3714 56.9022L34.3145 57.0939L34.3714 57.1108L34.4284 57.0939L34.3714 56.9022ZM31.744 56.1218L31.801 55.9301L31.744 55.9131L31.6871 55.9301L31.744 56.1218ZM29.1172 56.9022L29.0603 57.0939L29.1173 57.1108L29.1742 57.0939L29.1172 56.9022ZM26.4893 56.1218L26.5462 55.9301L26.4893 55.9132L26.4323 55.9301L26.4893 56.1218ZM23.8619 56.9022L23.805 57.0939L23.8619 57.1108L23.9188 57.0939L23.8619 56.9022ZM21.2339 56.1218L21.2909 55.9301L21.2339 55.9131L21.177 55.9301L21.2339 56.1218ZM18.6077 56.9022L18.5507 57.0939L18.6077 57.1108L18.6647 57.0939L18.6077 56.9022ZM15.9826 56.1218L16.0396 55.9301L15.9826 55.9131L15.9257 55.9301L15.9826 56.1218ZM13.3558 56.9022L13.2988 57.0939L13.3558 57.1108L13.4128 57.0939L13.3558 56.9022ZM10.7313 56.1218L10.7883 55.9301L10.7313 55.9131L10.6743 55.9301L10.7313 56.1218ZM8.10568 56.9022L8.04864 57.0939L8.10565 57.1108L8.16266 57.0939L8.10568 56.9022ZM5.48336 56.1218L5.5404 55.9301L5.4834 55.9131L5.42639 55.9301L5.48336 56.1218ZM2.92375 56.8823L2.86679 56.6905L2.86604 56.6908L2.92375 56.8823ZM2.8577 56.9022L2.80073 57.0939L2.8581 57.1109L2.91541 57.0937L2.8577 56.9022ZM2.16389 56.696L2.10686 56.8877L2.10691 56.8877L2.16389 56.696ZM1.41927 56.4745L1.21927 56.4745L1.21928 56.6236L1.36225 56.6662L1.41927 56.4745ZM1.41871 1.55801H1.21871V1.55801L1.41871 1.55801ZM41.0755 1.55801H40.8755L40.8755 1.56006L41.0755 1.55801ZM35.688 12.8567V13.0567H35.888V12.8567H35.688ZM6.80847 12.8567H6.60847V13.0567H6.80847V12.8567ZM6.80847 11.299V11.099H6.60847V11.299H6.80847ZM35.688 11.299H35.888V11.099H35.688V11.299ZM3.89493 44.9665V44.7665H3.69493V44.9665H3.89493ZM38.6016 44.9665H38.8016V44.7665H38.6016V44.9665ZM38.6016 46.0659L38.6016 46.2659L38.8016 46.2659V46.0659H38.6016ZM3.89493 46.0664H3.69493V46.2664L3.89493 46.2664L3.89493 46.0664ZM35.5724 17.5135V17.7135H35.7724V17.5135H35.5724ZM31.6884 17.5135H31.4884V17.7135H31.6884V17.5135ZM31.6884 16.4141V16.2141H31.4884V16.4141H31.6884ZM35.5724 16.4141H35.7724V16.2141H35.5724V16.4141ZM31.6884 20.7085V20.5085H31.4884V20.7085H31.6884ZM35.5724 20.7085H35.7724V20.5085H35.5724V20.7085ZM35.5724 21.8079V22.0079H35.7724V21.8079H35.5724ZM31.6884 21.8079H31.4884V22.0079H31.6884V21.8079ZM31.6884 25.0029V24.8029H31.4884V25.0029H31.6884ZM35.5724 25.0029H35.7724V24.8029H35.5724V25.0029ZM35.5724 26.1023V26.3023H35.7724V26.1023H35.5724ZM31.6884 26.1023H31.4884V26.3023H31.6884V26.1023ZM31.6884 29.2973V29.0973H31.4884V29.2973H31.6884ZM35.5724 29.2973H35.7724V29.0973H35.5724V29.2973ZM35.5724 30.3967V30.5967H35.7724V30.3967H35.5724ZM31.6884 30.3967H31.4884V30.5967H31.6884V30.3967ZM20.9634 17.5133V17.7133H21.1634V17.5133H20.9634ZM6.9235 17.5133H6.7235V17.7133H6.9235V17.5133ZM6.9235 16.414V16.214H6.7235V16.414H6.9235ZM20.9634 16.414H21.1634V16.214H20.9634V16.414ZM18.0075 21.8078V22.0078H18.2075V21.8078H18.0075ZM6.9235 21.8078H6.7235V22.0078H6.9235V21.8078ZM6.9235 20.7084V20.5084H6.7235V20.7084H6.9235ZM18.0075 20.7084H18.2075V20.5084H18.0075V20.7084ZM6.9235 25.0028V24.8028H6.7235V25.0028H6.9235ZM18.0075 25.0028H18.2075V24.8028H18.0075V25.0028ZM18.0075 26.1022V26.3022H18.2075V26.1022H18.0075ZM6.9235 26.1022H6.7235V26.3022H6.9235V26.1022ZM6.9235 29.2972V29.0972H6.7235V29.2972H6.9235ZM20.9634 29.2972H21.1634V29.0972H20.9634V29.2972ZM20.9634 30.3966V30.5966H21.1634V30.3966H20.9634ZM6.9235 30.3966H6.7235V30.5966H6.9235V30.3966ZM29.1855 47.8679H29.3855V47.6679H29.1855V47.8679ZM29.1855 48.9673V49.1673H29.3855V48.9673H29.1855ZM13.3099 48.9673H13.1099V49.1673H13.3099V48.9673ZM13.3099 47.8679V47.6679H13.1099V47.8679H13.3099ZM11.6956 50.3106V50.1106H11.4956V50.3106H11.6956ZM30.8026 50.3106H31.0026V50.1106H30.8026V50.3106ZM30.8026 51.41V51.61H31.0026V51.41H30.8026ZM11.6956 51.41H11.4956V51.61H11.6956V51.41ZM42.6957 1.67359V1.55773H42.2957V1.67359H42.6957ZM42.6957 1.55773C42.6957 0.575915 41.8459 -0.2 40.8308 -0.2V0.2C41.6506 0.2 42.2957 0.821573 42.2957 1.55773H42.6957ZM40.8308 -0.2H1.6643V0.2H40.8308V-0.2ZM1.6643 -0.2C0.648563 -0.2 -0.2 0.576027 -0.2 1.55773H0.2C0.2 0.821435 0.844159 0.2 1.6643 0.2V-0.2ZM-0.2 1.55773V57.4032H0.2V1.55773H-0.2ZM-0.0569632 57.5949L1.34646 58.0119L1.46039 57.6285L0.0569632 57.2115L-0.0569632 57.5949ZM1.20342 57.8202V59.1354H1.60342V57.8202H1.20342ZM1.34643 59.3271L4.25491 60.1917L4.36889 59.8083L1.46041 58.9437L1.34643 59.3271ZM4.36889 60.1917L6.99396 59.4113L6.87998 59.0279L4.25491 59.8083L4.36889 60.1917ZM6.87993 59.4113L9.5027 60.1917L9.61677 59.8083L6.99401 59.0279L6.87993 59.4113ZM9.61671 60.1917L12.2424 59.4113L12.1284 59.0279L9.50275 59.8083L9.61671 60.1917ZM12.1284 59.4113L14.7529 60.1917L14.8669 59.8083L12.2424 59.0279L12.1284 59.4113ZM14.8668 60.1917L17.4936 59.4113L17.3797 59.0279L14.7529 59.8083L14.8668 60.1917ZM17.3797 59.4113L20.0048 60.1917L20.1187 59.8083L17.4937 59.0279L17.3797 59.4113ZM20.1187 60.1917L22.745 59.4113L22.631 59.0279L20.0048 59.8083L20.1187 60.1917ZM22.631 59.4113L25.259 60.1917L25.3729 59.8083L22.7449 59.0279L22.631 59.4113ZM25.3729 60.1917L28.0003 59.4113L27.8864 59.0279L25.259 59.8083L25.3729 60.1917ZM27.8864 59.4113L30.5144 60.1917L30.6282 59.8083L28.0003 59.0279L27.8864 59.4113ZM30.6282 60.1917L33.2551 59.4113L33.1411 59.0279L30.5143 59.8083L30.6282 60.1917ZM33.1412 59.4113L35.7685 60.1917L35.8824 59.8083L33.255 59.0279L33.1412 59.4113ZM35.8824 60.1917L38.5104 59.4113L38.3965 59.0279L35.7685 59.8083L35.8824 60.1917ZM38.3966 59.4114L41.0291 60.1913L41.1427 59.8077L38.5103 59.0278L38.3966 59.4114ZM41.1427 60.1912L44.0568 59.3277L43.9432 58.9441L41.0291 59.8077L41.1427 60.1912ZM44.2 59.1359V3.25779H43.8V59.1359H44.2ZM44.2 3.25779C44.2 2.32599 43.4517 1.58361 42.5188 1.47493L42.4726 1.87225C43.231 1.96061 43.8 2.55531 43.8 3.25779H44.2ZM40.8765 1.65368V56.4735H41.2765V1.65368H40.8765ZM41.0196 56.2817L39.5744 56.7104L39.6881 57.0939L41.1333 56.6652L41.0196 56.2817ZM39.6881 56.7104L37.0563 55.93L36.9425 56.3135L39.5744 57.0939L39.6881 56.7104ZM36.9425 55.9301L34.3145 56.7105L34.4284 57.0939L37.0563 56.3135L36.9425 55.9301ZM34.4284 56.7105L31.801 55.9301L31.6871 56.3135L34.3145 57.0939L34.4284 56.7105ZM31.6871 55.9301L29.0603 56.7105L29.1742 57.0939L31.801 56.3135L31.6871 55.9301ZM29.1742 56.7105L26.5462 55.9301L26.4323 56.3135L29.0603 57.0939L29.1742 56.7105ZM26.4323 55.9301L23.8049 56.7105L23.9188 57.0939L26.5462 56.3135L26.4323 55.9301ZM23.9188 56.7105L21.2909 55.9301L21.177 56.3135L23.805 57.0939L23.9188 56.7105ZM21.177 55.9301L18.5507 56.7105L18.6647 57.0939L21.2909 56.3135L21.177 55.9301ZM18.6647 56.7105L16.0396 55.9301L15.9256 56.3135L18.5507 57.0939L18.6647 56.7105ZM15.9257 55.9301L13.2989 56.7105L13.4128 57.0939L16.0396 56.3135L15.9257 55.9301ZM13.4128 56.7105L10.7883 55.9301L10.6743 56.3135L13.2988 57.0939L13.4128 56.7105ZM10.6743 55.9301L8.0487 56.7105L8.16266 57.0939L10.7883 56.3135L10.6743 55.9301ZM8.16273 56.7105L5.5404 55.9301L5.42631 56.3135L8.04864 57.0939L8.16273 56.7105ZM5.42639 55.9301L2.86679 56.6906L2.98071 57.074L5.54032 56.3135L5.42639 55.9301ZM2.86604 56.6908L2.79999 56.7107L2.91541 57.0937L2.98146 57.0738L2.86604 56.6908ZM2.91468 56.7105L2.22086 56.5043L2.10691 56.8877L2.80073 57.0939L2.91468 56.7105ZM2.22091 56.5043L1.4763 56.2828L1.36225 56.6662L2.10686 56.8877L2.22091 56.5043ZM1.61927 56.4745L1.61871 1.558L1.21871 1.55801L1.21927 56.4745L1.61927 56.4745ZM1.61871 1.55801C1.61871 1.53354 1.62809 1.51215 1.64061 1.49816C1.65312 1.48417 1.66262 1.48341 1.66428 1.48341V1.08341C1.40019 1.08341 1.21871 1.32009 1.21871 1.55801H1.61871ZM1.66428 1.48341H40.8294V1.08341H1.66428V1.48341ZM40.8294 1.48341C40.8315 1.48341 40.8412 1.48438 40.8536 1.49827C40.8661 1.51221 40.8755 1.53354 40.8755 1.55801H41.2755C41.2755 1.31977 41.0937 1.08341 40.8294 1.08341V1.48341ZM40.8755 1.56006L40.8765 1.65573L41.2765 1.65164L41.2755 1.55596L40.8755 1.56006ZM35.688 12.6567H6.80847V13.0567H35.688V12.6567ZM7.00847 12.8567V11.299H6.60847V12.8567H7.00847ZM6.80847 11.499H35.688V11.099H6.80847V11.499ZM35.488 11.299V12.8567H35.888V11.299H35.488ZM3.89493 45.1665H38.6016V44.7665H3.89493V45.1665ZM38.4016 44.9665V46.0659H38.8016V44.9665H38.4016ZM38.6015 45.8659L3.89493 45.8664L3.89493 46.2664L38.6016 46.2659L38.6015 45.8659ZM4.09493 46.0664V44.9665H3.69493V46.0664H4.09493ZM35.5724 17.3135H31.6884V17.7135H35.5724V17.3135ZM31.8884 17.5135V16.4141H31.4884V17.5135H31.8884ZM31.6884 16.6141H35.5724V16.2141H31.6884V16.6141ZM35.3724 16.4141V17.5135H35.7724V16.4141H35.3724ZM31.6884 20.9085H35.5724V20.5085H31.6884V20.9085ZM35.3724 20.7085V21.8079H35.7724V20.7085H35.3724ZM35.5724 21.6079H31.6884V22.0079H35.5724V21.6079ZM31.8884 21.8079V20.7085H31.4884V21.8079H31.8884ZM31.6884 25.2029H35.5724V24.8029H31.6884V25.2029ZM35.3724 25.0029V26.1023H35.7724V25.0029H35.3724ZM35.5724 25.9023H31.6884V26.3023H35.5724V25.9023ZM31.8884 26.1023V25.0029H31.4884V26.1023H31.8884ZM31.6884 29.4973H35.5724V29.0973H31.6884V29.4973ZM35.3724 29.2973V30.3967H35.7724V29.2973H35.3724ZM35.5724 30.1967H31.6884V30.5967H35.5724V30.1967ZM31.8884 30.3967V29.2973H31.4884V30.3967H31.8884ZM20.9634 17.3133H6.9235V17.7133H20.9634V17.3133ZM7.1235 17.5133V16.414H6.7235V17.5133H7.1235ZM6.9235 16.614H20.9634V16.214H6.9235V16.614ZM20.7634 16.414V17.5133H21.1634V16.414H20.7634ZM18.0075 21.6077H6.9235V22.0078H18.0075V21.6077ZM7.1235 21.8078V20.7084H6.7235V21.8078H7.1235ZM6.9235 20.9084H18.0075V20.5084H6.9235V20.9084ZM17.8075 20.7084V21.8078H18.2075V20.7084H17.8075ZM6.9235 25.2028H18.0075V24.8028H6.9235V25.2028ZM17.8075 25.0028V26.1022H18.2075V25.0028H17.8075ZM18.0075 25.9022H6.9235V26.3022H18.0075V25.9022ZM7.1235 26.1022V25.0028H6.7235V26.1022H7.1235ZM6.9235 29.4972H20.9634V29.0972H6.9235V29.4972ZM20.7634 29.2972V30.3966H21.1634V29.2972H20.7634ZM20.9634 30.1966H6.9235V30.5966H20.9634V30.1966ZM7.1235 30.3966V29.2972H6.7235V30.3966H7.1235ZM28.9855 47.8679V48.9673H29.3855V47.8679H28.9855ZM29.1855 48.7673H13.3099V49.1673H29.1855V48.7673ZM13.5099 48.9673V47.8679H13.1099V48.9673H13.5099ZM13.3099 48.0679H29.1855V47.6679H13.3099V48.0679ZM11.6956 50.5106H30.8026V50.1106H11.6956V50.5106ZM30.6026 50.3106V51.41H31.0026V50.3106H30.6026ZM30.8026 51.21H11.6956V51.61H30.8026V51.21ZM11.8956 51.41V50.3106H11.4956V51.41H11.8956ZM10.3019 8.41208V5.3579H9.90195V8.41208H10.3019ZM10.3019 5.3579C10.3019 4.98105 10.6468 4.64175 11.1153 4.64175V4.24175C10.4648 4.24175 9.90195 4.72315 9.90195 5.3579H10.3019ZM11.1153 4.64175H31.3814V4.24175H11.1153V4.64175ZM31.3814 4.64175C31.8498 4.64175 32.1947 4.98105 32.1947 5.3579H32.5947C32.5947 4.72315 32.0319 4.24175 31.3814 4.24175V4.64175ZM32.1947 5.3579V8.41208H32.5947V5.3579H32.1947ZM32.1947 8.41208C32.1947 8.78893 31.8498 9.12823 31.3814 9.12823V9.52823C32.0319 9.52823 32.5947 9.04683 32.5947 8.41208H32.1947ZM31.3814 9.12823H11.1153V9.52823H31.3814V9.12823ZM11.1153 9.12823C10.6463 9.12823 10.3019 8.78944 10.3019 8.41208H9.90195C9.90195 9.04734 10.4643 9.52823 11.1153 9.52823V9.12823Z" fill="#EBE7E1" mask="url(#path-1-inside-1_92_10543)"/>
</svg>
