<svg width="30" height="30" viewBox="0 0 30 30" fill="none" xmlns="http://www.w3.org/2000/svg">
<circle cx="15" cy="15" r="15" fill="#EBE7E1"/>
<circle cx="15" cy="15" r="10" fill="#004AB3"/>
<path d="M12.9075 5.0025L13.515 5H16.485L17.0933 5.0025L17.855 5.01083L18.2158 5.01667L18.5642 5.02583L18.9 5.0375L19.2233 5.05084L19.535 5.06834L19.835 5.08917L20.1225 5.11417L20.4 5.14167C21.85 5.30501 22.8442 5.65503 23.5942 6.40506C24.3442 7.15509 24.6942 8.14846 24.8575 9.59936L24.8858 9.87687L24.91 10.1652L24.9308 10.4652L24.9475 10.7761L24.9683 11.2661L24.9783 11.6078L24.9892 12.1445L24.9967 12.907L25 13.7237L24.9992 16.4846L24.9967 17.093L24.9883 17.8547L24.9825 18.2156L24.9733 18.5639L24.9617 18.8997L24.9483 19.2231L24.9308 19.5348L24.91 19.8348L24.885 20.1223L24.8575 20.3998C24.6942 21.8499 24.3442 22.8441 23.5942 23.5941C22.8442 24.3441 21.8508 24.6942 20.4 24.8575L20.1225 24.8858L19.8342 24.91L19.5342 24.9308L19.2233 24.9475L18.7333 24.9683L18.3917 24.9783L17.855 24.9892L17.0925 24.9967L16.2758 25L13.515 24.9992L12.9067 24.9967L12.145 24.9883L11.7842 24.9825L11.4358 24.9733L11.1 24.9617L10.7767 24.9483L10.465 24.9308L10.165 24.91L9.8775 24.885L9.6 24.8575C8.15 24.6942 7.15583 24.3441 6.40583 23.5941C5.65583 22.8441 5.30583 21.8507 5.1425 20.3998L5.11417 20.1223L5.09 19.834L5.06917 19.5339L5.0525 19.2231L5.03167 18.7331L5.02167 18.3914L5.01083 17.8547L5.00333 17.0922L5 16.2755L5.00083 13.5145L5.00333 12.9062L5.01167 12.1445L5.0175 11.7836L5.02667 11.4353L5.03833 11.0994L5.05167 10.7761L5.06917 10.4644L5.09 10.1644L5.115 9.87687L5.1425 9.59936C5.30583 8.1493 5.65583 7.15509 6.40583 6.40506C7.15583 5.65503 8.14917 5.30501 9.6 5.14167L9.8775 5.11334L10.1658 5.08917L10.4658 5.06834L10.7767 5.05167L11.2667 5.03083L11.6083 5.02083L12.145 5.01L12.9075 5.0025ZM10.6583 11.0828H8.375C8.48333 16.283 11.0833 19.4081 15.6417 19.4081H15.9V16.433C17.575 16.5997 18.8417 17.8247 19.35 19.4081H21.7167C21.0667 17.0413 19.3583 15.7329 18.2917 15.2329C19.3583 14.6162 20.8583 13.1162 21.2167 11.0828H19.0667C18.6 12.7328 17.2167 14.2329 15.9 14.3746V11.0828H13.75V16.8497C12.4167 16.5163 10.7333 14.8996 10.6583 11.0828Z" fill="#EBE7E1"/>
</svg>
