<svg width="181" height="100" viewBox="0 0 181 100" fill="none" xmlns="http://www.w3.org/2000/svg">
<path d="M33.1312 89.845C32.7271 89.845 32.3366 89.7803 31.9595 89.651C31.5824 89.5152 31.2491 89.3083 30.9596 89.0303C30.67 88.7522 30.4377 88.3966 30.2626 87.9633C30.0875 87.5301 30 87.0096 30 86.4018V86.2078C30 85.6258 30.0875 85.1247 30.2626 84.7044C30.4377 84.2841 30.67 83.9382 30.9596 83.6666C31.2491 83.3886 31.5824 83.1849 31.9595 83.0556C32.3366 82.9262 32.7271 82.8616 33.1312 82.8616C33.5352 82.8616 33.9257 82.9262 34.3028 83.0556C34.6799 83.1849 35.0132 83.3886 35.3028 83.6666C35.5923 83.9382 35.8246 84.2841 35.9997 84.7044C36.1748 85.1247 36.2623 85.6258 36.2623 86.2078V86.4018C36.2623 87.0096 36.1748 87.5301 35.9997 87.9633C35.8246 88.3966 35.5923 88.7522 35.3028 89.0303C35.0132 89.3083 34.6799 89.5152 34.3028 89.651C33.9257 89.7803 33.5352 89.845 33.1312 89.845ZM33.1312 89.0303C33.4072 89.0303 33.6732 88.9818 33.9291 88.8848C34.185 88.7878 34.4106 88.6358 34.6058 88.4289C34.8011 88.2155 34.956 87.9439 35.0705 87.6142C35.1917 87.2779 35.2523 86.8738 35.2523 86.4018V86.2078C35.2523 85.7616 35.1917 85.3801 35.0705 85.0633C34.956 84.74 34.8011 84.4781 34.6058 84.2777C34.4106 84.0707 34.185 83.9188 33.9291 83.8218C33.6732 83.7248 33.4072 83.6763 33.1312 83.6763C32.8551 83.6763 32.5891 83.7248 32.3332 83.8218C32.0773 83.9188 31.8518 84.0707 31.6565 84.2777C31.4612 84.4781 31.303 84.74 31.1818 85.0633C31.0673 85.3801 31.0101 85.7616 31.0101 86.2078V86.4018C31.0101 86.8738 31.0673 87.2779 31.1818 87.6142C31.303 87.9439 31.4612 88.2155 31.6565 88.4289C31.8518 88.6358 32.0773 88.7878 32.3332 88.8848C32.5891 88.9818 32.8551 89.0303 33.1312 89.0303Z" fill="#009EE0"/>
<path d="M37.7798 82.9586H42.3755V83.7442H38.7292V85.6743H40.3049C40.7695 85.6743 41.1736 85.7228 41.517 85.8198C41.8604 85.9168 42.1432 86.0558 42.3654 86.2369C42.5944 86.4179 42.7627 86.6346 42.8704 86.8867C42.9782 87.1324 43.0321 87.4073 43.0321 87.7112C43.0321 88.0151 42.9782 88.2931 42.8704 88.5453C42.7627 88.791 42.5944 89.0044 42.3654 89.1854C42.1432 89.3665 41.8604 89.5055 41.517 89.6025C41.1736 89.6995 40.7695 89.748 40.3049 89.748H37.7798V82.9586ZM40.2544 88.9527C40.9278 88.9527 41.3991 88.846 41.6685 88.6326C41.9446 88.4127 42.0826 88.1056 42.0826 87.7112C42.0826 87.3167 41.9446 87.0128 41.6685 86.7994C41.3991 86.5796 40.9278 86.4697 40.2544 86.4697H38.7292V88.9527H40.2544Z" fill="#009EE0"/>
<path d="M44.396 82.9586H45.3455V88.9527H47.81V82.9586H48.7594V88.9527H51.224V82.9586H52.1734V88.9527H53.133V91.0089H52.2239V89.748H44.396V82.9586Z" fill="#009EE0"/>
<path d="M54.3462 82.9586H58.8915V83.7539H55.2957V85.8586H58.5885V86.654H55.2957V88.9527H58.8915V89.748H54.3462V82.9586Z" fill="#009EE0"/>
<path d="M62.9364 89.845C62.5391 89.845 62.162 89.7803 61.8052 89.651C61.4483 89.5152 61.1318 89.3083 60.8557 89.0303C60.5796 88.7457 60.3608 88.3869 60.1992 87.9536C60.0376 87.5204 59.9568 87.0031 59.9568 86.4018V86.2078C59.9568 85.6258 60.0376 85.1247 60.1992 84.7044C60.3608 84.2841 60.5796 83.9382 60.8557 83.6666C61.1318 83.395 61.4483 83.1946 61.8052 83.0653C62.162 82.9295 62.5391 82.8616 62.9364 82.8616C63.3202 82.8616 63.6704 82.9101 63.9869 83.0071C64.3101 83.1041 64.5929 83.2431 64.8353 83.4241C65.0777 83.6052 65.273 83.8283 65.4211 84.0934C65.576 84.3585 65.6737 84.6592 65.7141 84.9954H64.704C64.6097 84.5557 64.4111 84.2259 64.1081 84.0061C63.8051 83.7862 63.4145 83.6763 62.9364 83.6763C62.6873 83.6763 62.4449 83.7216 62.2092 83.8121C61.9735 83.9026 61.7614 84.0481 61.5728 84.2486C61.391 84.4425 61.2429 84.7012 61.1284 85.0245C61.0207 85.3478 60.9668 85.7422 60.9668 86.2078V86.4018C60.9668 86.8932 61.0274 87.307 61.1486 87.6433C61.2698 87.973 61.4247 88.2414 61.6132 88.4483C61.8018 88.6552 62.0139 88.8039 62.2496 88.8945C62.4853 88.985 62.7142 89.0303 62.9364 89.0303C63.4616 89.0303 63.8724 88.9074 64.1687 88.6617C64.465 88.416 64.6434 88.0991 64.704 87.7112H65.7141C65.6602 88.0862 65.5525 88.4095 65.3908 88.6811C65.2292 88.9462 65.0239 89.166 64.7747 89.3406C64.5323 89.5152 64.2528 89.6445 63.9364 89.7286C63.6266 89.8062 63.2933 89.845 62.9364 89.845Z" fill="#009EE0"/>
<path d="M68.5741 83.7539H66.1197V82.9586H71.978V83.7539H69.5235V89.748H68.5741V83.7539Z" fill="#009EE0"/>
<path d="M73.0902 82.9586H75.6153C76.0396 82.9586 76.4032 83.0038 76.7062 83.0944C77.0092 83.1849 77.2584 83.311 77.4536 83.4726C77.6557 83.6278 77.8038 83.8186 77.8981 84.0449C77.9923 84.2647 78.0395 84.5072 78.0395 84.7723C78.0395 85.1215 77.9385 85.4222 77.7365 85.6743C77.5344 85.9201 77.2853 86.0979 76.989 86.2078C77.4065 86.2983 77.7365 86.4826 77.9789 86.7606C78.2213 87.0322 78.3425 87.3879 78.3425 87.8276C78.3425 88.1056 78.2953 88.361 78.2011 88.5938C78.1068 88.8266 77.9587 89.0303 77.7567 89.2048C77.5546 89.373 77.292 89.5055 76.9688 89.6025C76.6523 89.6995 76.2685 89.748 75.8174 89.748H73.0902V82.9586ZM75.8174 88.9527C76.1204 88.9527 76.3729 88.9268 76.5749 88.8751C76.7769 88.8169 76.9385 88.7393 77.0597 88.6423C77.1809 88.5388 77.2651 88.416 77.3122 88.2737C77.3661 88.1315 77.393 87.973 77.393 87.7985C77.393 87.6239 77.3661 87.4655 77.3122 87.3232C77.2651 87.1745 77.1809 87.0516 77.0597 86.9546C76.9385 86.8512 76.7735 86.7736 76.5648 86.7219C76.3628 86.6637 76.1103 86.6346 75.8073 86.6346H74.0397V88.9527H75.8174ZM75.6153 85.878C75.8982 85.878 76.1338 85.8522 76.3224 85.8004C76.5109 85.7487 76.6624 85.6743 76.7769 85.5773C76.8914 85.4804 76.9722 85.3672 77.0193 85.2379C77.0665 85.1086 77.09 84.9663 77.09 84.8111C77.09 84.6559 77.0665 84.5137 77.0193 84.3844C76.9722 84.2486 76.8914 84.1354 76.7769 84.0449C76.6624 83.9544 76.5109 83.8832 76.3224 83.8315C76.1338 83.7798 75.8982 83.7539 75.6153 83.7539H74.0397V85.878H75.6153Z" fill="#009EE0"/>
<path d="M82.3843 89.845C81.9803 89.845 81.5897 89.7803 81.2126 89.651C80.8355 89.5152 80.5022 89.3083 80.2127 89.0303C79.9231 88.7522 79.6908 88.3966 79.5157 87.9633C79.3406 87.5301 79.2531 87.0096 79.2531 86.4018V86.2078C79.2531 85.6258 79.3406 85.1247 79.5157 84.7044C79.6908 84.2841 79.9231 83.9382 80.2127 83.6666C80.5022 83.3886 80.8355 83.1849 81.2126 83.0556C81.5897 82.9262 81.9803 82.8616 82.3843 82.8616C82.7883 82.8616 83.1789 82.9262 83.5559 83.0556C83.933 83.1849 84.2663 83.3886 84.5559 83.6666C84.8454 83.9382 85.0777 84.2841 85.2528 84.7044C85.4279 85.1247 85.5154 85.6258 85.5154 86.2078V86.4018C85.5154 87.0096 85.4279 87.5301 85.2528 87.9633C85.0777 88.3966 84.8454 88.7522 84.5559 89.0303C84.2663 89.3083 83.933 89.5152 83.5559 89.651C83.1789 89.7803 82.7883 89.845 82.3843 89.845ZM82.3843 89.0303C82.6604 89.0303 82.9263 88.9818 83.1822 88.8848C83.4381 88.7878 83.6637 88.6358 83.859 88.4289C84.0542 88.2155 84.2091 87.9439 84.3236 87.6142C84.4448 87.2779 84.5054 86.8738 84.5054 86.4018V86.2078C84.5054 85.7616 84.4448 85.3801 84.3236 85.0633C84.2091 84.74 84.0542 84.4781 83.859 84.2777C83.6637 84.0707 83.4381 83.9188 83.1822 83.8218C82.9263 83.7248 82.6604 83.6763 82.3843 83.6763C82.1082 83.6763 81.8422 83.7248 81.5863 83.8218C81.3305 83.9188 81.1049 84.0707 80.9096 84.2777C80.7143 84.4781 80.5561 84.74 80.4349 85.0633C80.3204 85.3801 80.2632 85.7616 80.2632 86.2078V86.4018C80.2632 86.8738 80.3204 87.2779 80.4349 87.6142C80.5561 87.9439 80.7143 88.2155 80.9096 88.4289C81.1049 88.6358 81.3305 88.7878 81.5863 88.8848C81.8422 88.9818 82.1082 89.0303 82.3843 89.0303Z" fill="#009EE0"/>
<path d="M92.0326 89.845C91.6354 89.845 91.2583 89.7803 90.9014 89.651C90.5445 89.5152 90.228 89.3083 89.9519 89.0303C89.6759 88.7457 89.457 88.3869 89.2954 87.9536C89.1338 87.5204 89.053 87.0031 89.053 86.4018V86.2078C89.053 85.6258 89.1338 85.1247 89.2954 84.7044C89.457 84.2841 89.6759 83.9382 89.9519 83.6666C90.228 83.395 90.5445 83.1946 90.9014 83.0653C91.2583 82.9295 91.6354 82.8616 92.0326 82.8616C92.4165 82.8616 92.7666 82.9101 93.0831 83.0071C93.4063 83.1041 93.6891 83.2431 93.9316 83.4241C94.174 83.6052 94.3692 83.8283 94.5174 84.0934C94.6723 84.3585 94.7699 84.6592 94.8103 84.9954H93.8002C93.706 84.5557 93.5073 84.2259 93.2043 84.0061C92.9013 83.7862 92.5107 83.6763 92.0326 83.6763C91.7835 83.6763 91.5411 83.7216 91.3054 83.8121C91.0697 83.9026 90.8576 84.0481 90.6691 84.2486C90.4873 84.4425 90.3391 84.7012 90.2247 85.0245C90.1169 85.3478 90.063 85.7422 90.063 86.2078V86.4018C90.063 86.8932 90.1236 87.307 90.2449 87.6433C90.3661 87.973 90.5209 88.2414 90.7095 88.4483C90.898 88.6552 91.1101 88.8039 91.3458 88.8945C91.5815 88.985 91.8104 89.0303 92.0326 89.0303C92.5579 89.0303 92.9686 88.9074 93.2649 88.6617C93.5612 88.416 93.7396 88.0991 93.8002 87.7112H94.8103C94.7564 88.0862 94.6487 88.4095 94.4871 88.6811C94.3255 88.9462 94.1201 89.166 93.8709 89.3406C93.6285 89.5152 93.3491 89.6445 93.0326 89.7286C92.7229 89.8062 92.3895 89.845 92.0326 89.845Z" fill="#009EE0"/>
<path d="M101.372 89.845C100.968 89.845 100.578 89.7803 100.201 89.651C99.8237 89.5152 99.4904 89.3083 99.2009 89.0303C98.9113 88.7522 98.679 88.3966 98.5039 87.9633C98.3289 87.5301 98.2413 87.0096 98.2413 86.4018V86.2078C98.2413 85.6258 98.3289 85.1247 98.5039 84.7044C98.679 84.2841 98.9113 83.9382 99.2009 83.6666C99.4904 83.3886 99.8237 83.1849 100.201 83.0556C100.578 82.9262 100.968 82.8616 101.372 82.8616C101.777 82.8616 102.167 82.9262 102.544 83.0556C102.921 83.1849 103.255 83.3886 103.544 83.6666C103.834 83.9382 104.066 84.2841 104.241 84.7044C104.416 85.1247 104.504 85.6258 104.504 86.2078V86.4018C104.504 87.0096 104.416 87.5301 104.241 87.9633C104.066 88.3966 103.834 88.7522 103.544 89.0303C103.255 89.3083 102.921 89.5152 102.544 89.651C102.167 89.7803 101.777 89.845 101.372 89.845ZM101.372 89.0303C101.649 89.0303 101.915 88.9818 102.17 88.8848C102.426 88.7878 102.652 88.6358 102.847 88.4289C103.042 88.2155 103.197 87.9439 103.312 87.6142C103.433 87.2779 103.494 86.8738 103.494 86.4018V86.2078C103.494 85.7616 103.433 85.3801 103.312 85.0633C103.197 84.74 103.042 84.4781 102.847 84.2777C102.652 84.0707 102.426 83.9188 102.17 83.8218C101.915 83.7248 101.649 83.6763 101.372 83.6763C101.096 83.6763 100.83 83.7248 100.575 83.8218C100.319 83.9188 100.093 84.0707 99.8978 84.2777C99.7025 84.4781 99.5443 84.74 99.4231 85.0633C99.3086 85.3801 99.2514 85.7616 99.2514 86.2078V86.4018C99.2514 86.8738 99.3086 87.2779 99.4231 87.6142C99.5443 87.9439 99.7025 88.2155 99.8978 88.4289C100.093 88.6358 100.319 88.7878 100.575 88.8848C100.83 88.9818 101.096 89.0303 101.372 89.0303Z" fill="#009EE0"/>
<path d="M106.021 82.9586H110.465V83.7539H106.971V89.748H106.021V82.9586Z" fill="#009EE0"/>
<path d="M111.572 82.9586H113.996C114.461 82.9586 114.865 83.0103 115.208 83.1138C115.552 83.2172 115.834 83.3627 116.057 83.5502C116.286 83.7313 116.454 83.9511 116.562 84.2098C116.669 84.4619 116.723 84.74 116.723 85.0439C116.723 85.3478 116.669 85.6291 116.562 85.8877C116.454 86.1399 116.286 86.3597 116.057 86.5473C115.834 86.7283 115.552 86.8706 115.208 86.974C114.865 87.0775 114.461 87.1292 113.996 87.1292H112.521V89.748H111.572V82.9586ZM113.946 86.3339C114.282 86.3339 114.565 86.3048 114.794 86.2466C115.03 86.1819 115.218 86.0946 115.36 85.9847C115.508 85.8748 115.612 85.739 115.673 85.5773C115.74 85.4157 115.774 85.2379 115.774 85.0439C115.774 84.8499 115.74 84.6721 115.673 84.5104C115.612 84.3488 115.508 84.213 115.36 84.1031C115.218 83.9932 115.03 83.9091 114.794 83.8509C114.565 83.7862 114.282 83.7539 113.946 83.7539H112.521V86.3339H113.946Z" fill="#009EE0"/>
<path d="M121.129 88.0603H118.139L117.463 89.748H116.473L119.18 82.9586H120.129L122.836 89.748H121.806L121.129 88.0603ZM118.452 87.265H120.816L119.634 84.1225L118.452 87.265Z" fill="#009EE0"/>
<path d="M123.946 82.9586H124.896V85.8586H128.653V82.9586H129.603V89.748H128.653V86.654H124.896V89.748H123.946V82.9586Z" fill="#009EE0"/>
<path d="M131.519 82.9586H132.469V88.2931L136.226 82.9586H137.176V89.748H136.226V84.4134L132.469 89.748H131.519V82.9586Z" fill="#009EE0"/>
<path d="M142.89 86.7606C142.715 86.8706 142.469 86.9708 142.153 87.0613C141.836 87.1518 141.473 87.1971 141.062 87.1971C140.234 87.1971 139.631 87.0193 139.254 86.6637C138.877 86.3016 138.688 85.7293 138.688 84.9469V82.9586H139.638V84.9469C139.638 85.4577 139.756 85.8263 139.991 86.0526C140.227 86.2725 140.618 86.3824 141.163 86.3824C141.581 86.3824 141.927 86.3339 142.203 86.2369C142.486 86.1399 142.715 86.0364 142.89 85.9265V82.9586H143.84V89.748H142.89V86.7606Z" fill="#009EE0"/>
<path d="M145.758 82.9586H150.303V83.7539H146.707V85.8586H150V86.654H146.707V88.9527H150.303V89.748H145.758V82.9586Z" fill="#009EE0"/>
<path d="M151.822 82.9586H152.771V85.8586H156.529V82.9586H157.478V89.748H156.529V86.654H152.771V89.748H151.822V82.9586Z" fill="#009EE0"/>
<path d="M159.395 82.9586H160.344V85.8586H164.102V82.9586H165.051V89.748H164.102V86.654H160.344V89.748H159.395V82.9586Z" fill="#009EE0"/>
<path d="M169.695 89.845C169.291 89.845 168.901 89.7803 168.523 89.651C168.146 89.5152 167.813 89.3083 167.523 89.0303C167.234 88.7522 167.002 88.3966 166.827 87.9633C166.651 87.5301 166.564 87.0096 166.564 86.4018V86.2078C166.564 85.6258 166.651 85.1247 166.827 84.7044C167.002 84.2841 167.234 83.9382 167.523 83.6666C167.813 83.3886 168.146 83.1849 168.523 83.0556C168.901 82.9262 169.291 82.8616 169.695 82.8616C170.099 82.8616 170.49 82.9262 170.867 83.0556C171.244 83.1849 171.577 83.3886 171.867 83.6666C172.156 83.9382 172.389 84.2841 172.564 84.7044C172.739 85.1247 172.826 85.6258 172.826 86.2078V86.4018C172.826 87.0096 172.739 87.5301 172.564 87.9633C172.389 88.3966 172.156 88.7522 171.867 89.0303C171.577 89.3083 171.244 89.5152 170.867 89.651C170.49 89.7803 170.099 89.845 169.695 89.845ZM169.695 89.0303C169.971 89.0303 170.237 88.9818 170.493 88.8848C170.749 88.7878 170.974 88.6358 171.17 88.4289C171.365 88.2155 171.52 87.9439 171.634 87.6142C171.756 87.2779 171.816 86.8738 171.816 86.4018V86.2078C171.816 85.7616 171.756 85.3801 171.634 85.0633C171.52 84.74 171.365 84.4781 171.17 84.2777C170.974 84.0707 170.749 83.9188 170.493 83.8218C170.237 83.7248 169.971 83.6763 169.695 83.6763C169.419 83.6763 169.153 83.7248 168.897 83.8218C168.641 83.9188 168.416 84.0707 168.22 84.2777C168.025 84.4781 167.867 84.74 167.746 85.0633C167.631 85.3801 167.574 85.7616 167.574 86.2078V86.4018C167.574 86.8738 167.631 87.2779 167.746 87.6142C167.867 87.9439 168.025 88.2155 168.22 88.4289C168.416 88.6358 168.641 88.7878 168.897 88.8848C169.153 88.9818 169.419 89.0303 169.695 89.0303Z" fill="#009EE0"/>
<path d="M174.344 82.9586H175.293V88.2931L179.051 82.9586H180V89.748H179.051V84.4134L175.293 89.748H174.344V82.9586ZM177.172 82.4736C176.599 82.4736 176.169 82.3508 175.879 82.105C175.596 81.8593 175.455 81.4972 175.455 81.0187H176.344C176.344 81.3162 176.414 81.5296 176.556 81.6589C176.697 81.7882 176.902 81.8529 177.172 81.8529C177.448 81.8529 177.657 81.7882 177.798 81.6589C177.946 81.5296 178.02 81.3162 178.02 81.0187H178.889C178.889 81.4972 178.744 81.8593 178.455 82.105C178.172 82.3508 177.744 82.4736 177.172 82.4736Z" fill="#009EE0"/>
<path d="M33.0761 100C32.6792 100 32.2955 99.9352 31.925 99.8057C31.5546 99.6698 31.2271 99.4626 30.9427 99.1841C30.6582 98.9057 30.43 98.5496 30.258 98.1157C30.086 97.6819 30 97.1607 30 96.552V96.3578C30 95.775 30.086 95.2732 30.258 94.8523C30.43 94.4314 30.6582 94.085 30.9427 93.813C31.2271 93.5346 31.5546 93.3307 31.925 93.2011C32.2955 93.0716 32.6792 93.0069 33.0761 93.0069C33.473 93.0069 33.8567 93.0716 34.2271 93.2011C34.5976 93.3307 34.925 93.5346 35.2095 93.813C35.4939 94.085 35.7221 94.4314 35.8941 94.8523C36.0661 95.2732 36.1521 95.775 36.1521 96.3578V96.552C36.1521 97.1607 36.0661 97.6819 35.8941 98.1157C35.7221 98.5496 35.4939 98.9057 35.2095 99.1841C34.925 99.4626 34.5976 99.6698 34.2271 99.8057C33.8567 99.9352 33.473 100 33.0761 100ZM33.0761 99.1841C33.3473 99.1841 33.6086 99.1356 33.86 99.0384C34.1113 98.9413 34.333 98.7892 34.5248 98.582C34.7166 98.3683 34.8688 98.0963 34.9812 97.7661C35.1003 97.4294 35.1599 97.0247 35.1599 96.552V96.3578C35.1599 95.911 35.1003 95.5289 34.9812 95.2117C34.8688 94.8879 34.7166 94.6257 34.5248 94.4249C34.333 94.2177 34.1113 94.0656 33.86 93.9684C33.6086 93.8713 33.3473 93.8228 33.0761 93.8228C32.8048 93.8228 32.5435 93.8713 32.2922 93.9684C32.0408 94.0656 31.8192 94.2177 31.6273 94.4249C31.4355 94.6257 31.28 94.8879 31.161 95.2117C31.0485 95.5289 30.9923 95.911 30.9923 96.3578V96.552C30.9923 97.0247 31.0485 97.4294 31.161 97.7661C31.28 98.0963 31.4355 98.3683 31.6273 98.582C31.8192 98.7892 32.0408 98.9413 32.2922 99.0384C32.5435 99.1356 32.8048 99.1841 33.0761 99.1841Z" fill="#009EE0"/>
<path d="M42.6387 93.9005H40.2274V93.104H45.9827V93.9005H43.5714V99.9029H42.6387V93.9005Z" fill="#009EE0"/>
<path d="M50.6475 93.104H53.1282C53.545 93.104 53.9022 93.1493 54.1999 93.24C54.4976 93.3307 54.7423 93.4569 54.9342 93.6188C55.1326 93.7742 55.2782 93.9652 55.3708 94.1918C55.4634 94.412 55.5097 94.6548 55.5097 94.9203C55.5097 95.2699 55.4105 95.571 55.212 95.8236C55.0136 96.0696 54.7688 96.2477 54.4777 96.3578C54.8879 96.4484 55.212 96.6329 55.4502 96.9114C55.6883 97.1833 55.8074 97.5395 55.8074 97.9798C55.8074 98.2582 55.7611 98.514 55.6685 98.7471C55.5759 98.9802 55.4303 99.1841 55.2319 99.359C55.0334 99.5273 54.7754 99.6601 54.4579 99.7572C54.147 99.8543 53.7699 99.9029 53.3267 99.9029H50.6475V93.104ZM53.3267 99.1064C53.6244 99.1064 53.8724 99.0805 54.0709 99.0287C54.2694 98.9705 54.4281 98.8928 54.5472 98.7956C54.6663 98.692 54.749 98.569 54.7953 98.4266C54.8482 98.2841 54.8746 98.1255 54.8746 97.9506C54.8746 97.7758 54.8482 97.6172 54.7953 97.4747C54.749 97.3258 54.6663 97.2028 54.5472 97.1056C54.4281 97.002 54.266 96.9243 54.061 96.8725C53.8625 96.8143 53.6145 96.7851 53.3168 96.7851H51.5803V99.1064H53.3267ZM53.1282 96.0275C53.4061 96.0275 53.6376 96.0016 53.8228 95.9498C54.0081 95.898 54.1569 95.8236 54.2694 95.7264C54.3818 95.6293 54.4612 95.516 54.5075 95.3865C54.5538 95.257 54.577 95.1145 54.577 94.9591C54.577 94.8037 54.5538 94.6613 54.5075 94.5318C54.4612 94.3958 54.3818 94.2825 54.2694 94.1918C54.1569 94.1012 54.0081 94.03 53.8228 93.9782C53.6376 93.9264 53.4061 93.9005 53.1282 93.9005H51.5803V96.0275H53.1282Z" fill="#009EE0"/>
<path d="M60.768 93.104H65.2333V93.9005H61.7008V96.0081H64.9356V96.8045H61.7008V99.1064H65.2333V99.9029H60.768V93.104Z" fill="#009EE0"/>
<path d="M72.0117 93.9005H69.6005V93.104H75.3557V93.9005H72.9444V99.9029H72.0117V93.9005Z" fill="#009EE0"/>
<path d="M82.357 100C81.9668 100 81.5963 99.9352 81.2457 99.8057C80.8951 99.6698 80.5842 99.4626 80.313 99.1841C80.0417 98.8992 79.8267 98.5399 79.668 98.106C79.5092 97.6722 79.4298 97.1542 79.4298 96.552V96.3578C79.4298 95.775 79.5092 95.2732 79.668 94.8523C79.8267 94.4314 80.0417 94.085 80.313 93.813C80.5842 93.5411 80.8951 93.3404 81.2457 93.2109C81.5963 93.0749 81.9668 93.0069 82.357 93.0069C82.7341 93.0069 83.0781 93.0555 83.389 93.1526C83.7066 93.2497 83.9844 93.3889 84.2225 93.5702C84.4607 93.7515 84.6525 93.9749 84.7981 94.2404C84.9502 94.5059 85.0461 94.807 85.0858 95.1437H84.0935C84.0009 94.7034 83.8058 94.3731 83.5081 94.153C83.2104 93.9328 82.8267 93.8228 82.357 93.8228C82.1123 93.8228 81.8741 93.8681 81.6426 93.9587C81.4111 94.0494 81.2027 94.1951 81.0175 94.3958C80.8389 94.5901 80.6933 94.8491 80.5809 95.1728C80.475 95.4966 80.4221 95.8916 80.4221 96.3578V96.552C80.4221 97.0441 80.4816 97.4585 80.6007 97.7952C80.7198 98.1255 80.8719 98.3942 81.0572 98.6014C81.2424 98.8086 81.4508 98.9575 81.6823 99.0482C81.9138 99.1388 82.1387 99.1841 82.357 99.1841C82.873 99.1841 83.2766 99.0611 83.5676 98.8151C83.8587 98.569 84.034 98.2517 84.0935 97.8632H85.0858C85.0329 98.2388 84.9271 98.5625 84.7683 98.8345C84.6095 99.1 84.4078 99.3201 84.163 99.4949C83.9249 99.6698 83.6503 99.7993 83.3394 99.8834C83.0351 99.9611 82.7077 100 82.357 100Z" fill="#009EE0"/>
<path d="M90.0441 93.104H92.5248C92.9416 93.104 93.2988 93.1493 93.5965 93.24C93.8942 93.3307 94.1389 93.4569 94.3308 93.6188C94.5292 93.7742 94.6747 93.9652 94.7674 94.1918C94.86 94.412 94.9063 94.6548 94.9063 94.9203C94.9063 95.2699 94.807 95.571 94.6086 95.8236C94.4101 96.0696 94.1654 96.2477 93.8743 96.3578C94.2844 96.4484 94.6086 96.6329 94.8467 96.9114C95.0849 97.1833 95.204 97.5395 95.204 97.9798C95.204 98.2582 95.1577 98.514 95.065 98.7471C94.9724 98.9802 94.8269 99.1841 94.6284 99.359C94.43 99.5273 94.172 99.6601 93.8545 99.7572C93.5435 99.8543 93.1665 99.9029 92.7233 99.9029H90.0441V93.104ZM92.7233 99.1064C93.0209 99.1064 93.269 99.0805 93.4675 99.0287C93.6659 98.9705 93.8247 98.8928 93.9438 98.7956C94.0628 98.692 94.1455 98.569 94.1918 98.4266C94.2448 98.2841 94.2712 98.1255 94.2712 97.9506C94.2712 97.7758 94.2448 97.6172 94.1918 97.4747C94.1455 97.3258 94.0628 97.2028 93.9438 97.1056C93.8247 97.002 93.6626 96.9243 93.4576 96.8725C93.2591 96.8143 93.011 96.7851 92.7133 96.7851H90.9769V99.1064H92.7233ZM92.5248 96.0275C92.8026 96.0275 93.0342 96.0016 93.2194 95.9498C93.4046 95.898 93.5535 95.8236 93.6659 95.7264C93.7784 95.6293 93.8578 95.516 93.9041 95.3865C93.9504 95.257 93.9735 95.1145 93.9735 94.9591C93.9735 94.8037 93.9504 94.6613 93.9041 94.5318C93.8578 94.3958 93.7784 94.2825 93.6659 94.1918C93.5535 94.1012 93.4046 94.03 93.2194 93.9782C93.0342 93.9264 92.8026 93.9005 92.5248 93.9005H90.9769V96.0275H92.5248Z" fill="#009EE0"/>
<path d="M100.165 93.104H104.63V93.9005H101.097V96.0081H104.332V96.8045H101.097V99.1064H104.63V99.9029H100.165V93.104Z" fill="#009EE0"/>
<path d="M109.694 93.104H110.627V96.0081H114.318V93.104H115.251V99.9029H114.318V96.8045H110.627V99.9029H109.694V93.104Z" fill="#009EE0"/>
<path d="M120.706 93.104H121.639V96.0081H125.33V93.104H126.263V99.9029H125.33V96.8045H121.639V99.9029H120.706V93.104Z" fill="#009EE0"/>
<path d="M134.397 100C134 100 133.616 99.9352 133.246 99.8057C132.876 99.6698 132.548 99.4626 132.264 99.1841C131.979 98.9057 131.751 98.5496 131.579 98.1157C131.407 97.6819 131.321 97.1607 131.321 96.552V96.3578C131.321 95.775 131.407 95.2732 131.579 94.8523C131.751 94.4314 131.979 94.085 132.264 93.813C132.548 93.5346 132.876 93.3307 133.246 93.2011C133.616 93.0716 134 93.0069 134.397 93.0069C134.794 93.0069 135.178 93.0716 135.548 93.2011C135.919 93.3307 136.246 93.5346 136.53 93.813C136.815 94.085 137.043 94.4314 137.215 94.8523C137.387 95.2732 137.473 95.775 137.473 96.3578V96.552C137.473 97.1607 137.387 97.6819 137.215 98.1157C137.043 98.5496 136.815 98.9057 136.53 99.1841C136.246 99.4626 135.919 99.6698 135.548 99.8057C135.178 99.9352 134.794 100 134.397 100ZM134.397 99.1841C134.668 99.1841 134.93 99.1356 135.181 99.0384C135.432 98.9413 135.654 98.7892 135.846 98.582C136.038 98.3683 136.19 98.0963 136.302 97.7661C136.421 97.4294 136.481 97.0247 136.481 96.552V96.3578C136.481 95.911 136.421 95.5289 136.302 95.2117C136.19 94.8879 136.038 94.6257 135.846 94.4249C135.654 94.2177 135.432 94.0656 135.181 93.9684C134.93 93.8713 134.668 93.8228 134.397 93.8228C134.126 93.8228 133.865 93.8713 133.613 93.9684C133.362 94.0656 133.14 94.2177 132.948 94.4249C132.756 94.6257 132.601 94.8879 132.482 95.2117C132.369 95.5289 132.313 95.911 132.313 96.3578V96.552C132.313 97.0247 132.369 97.4294 132.482 97.7661C132.601 98.0963 132.756 98.3683 132.948 98.582C133.14 98.7892 133.362 98.9413 133.613 99.0384C133.865 99.1356 134.126 99.1841 134.397 99.1841Z" fill="#009EE0"/>
<path d="M145.066 100C144.676 100 144.306 99.9352 143.955 99.8057C143.604 99.6698 143.293 99.4626 143.022 99.1841C142.751 98.8992 142.536 98.5399 142.377 98.106C142.219 97.6722 142.139 97.1542 142.139 96.552V96.3578C142.139 95.775 142.219 95.2732 142.377 94.8523C142.536 94.4314 142.751 94.085 143.022 93.813C143.293 93.5411 143.604 93.3404 143.955 93.2109C144.306 93.0749 144.676 93.0069 145.066 93.0069C145.443 93.0069 145.787 93.0555 146.098 93.1526C146.416 93.2497 146.694 93.3889 146.932 93.5702C147.17 93.7515 147.362 93.9749 147.507 94.2404C147.66 94.5059 147.755 94.807 147.795 95.1437H146.803C146.71 94.7034 146.515 94.3731 146.217 94.153C145.92 93.9328 145.536 93.8228 145.066 93.8228C144.822 93.8228 144.583 93.8681 144.352 93.9587C144.12 94.0494 143.912 94.1951 143.727 94.3958C143.548 94.5901 143.403 94.8491 143.29 95.1728C143.184 95.4966 143.131 95.8916 143.131 96.3578V96.552C143.131 97.0441 143.191 97.4585 143.31 97.7952C143.429 98.1255 143.581 98.3942 143.766 98.6014C143.952 98.8086 144.16 98.9575 144.392 99.0482C144.623 99.1388 144.848 99.1841 145.066 99.1841C145.582 99.1841 145.986 99.0611 146.277 98.8151C146.568 98.569 146.743 98.2517 146.803 97.8632H147.795C147.742 98.2388 147.636 98.5625 147.478 98.8345C147.319 99.1 147.117 99.3201 146.872 99.4949C146.634 99.6698 146.36 99.7993 146.049 99.8834C145.744 99.9611 145.417 100 145.066 100Z" fill="#009EE0"/>
<path d="M154.177 93.9005H151.766V93.104H157.521V93.9005H155.11V99.9029H154.177V93.9005Z" fill="#009EE0"/>
<path d="M162.186 93.104H163.119V95.8236H164.567C165.024 95.8236 165.421 95.8721 165.758 95.9693C166.095 96.0664 166.373 96.2056 166.592 96.3869C166.817 96.5682 166.982 96.7851 167.088 97.0376C167.194 97.2837 167.247 97.5589 167.247 97.8632C167.247 98.1675 167.194 98.446 167.088 98.6985C166.982 98.9446 166.817 99.1582 166.592 99.3395C166.373 99.5208 166.095 99.6601 165.758 99.7572C165.421 99.8543 165.024 99.9029 164.567 99.9029H162.186V93.104ZM164.518 99.1064C165.179 99.1064 165.642 98.9996 165.907 98.7859C166.178 98.5658 166.314 98.2582 166.314 97.8632C166.314 97.4682 166.178 97.1639 165.907 96.9502C165.642 96.7301 165.179 96.62 164.518 96.62H163.119V99.1064H164.518Z" fill="#009EE0"/>
<path d="M172.161 93.104H173.094V96.0081H174.413C174.44 95.4771 174.529 95.0239 174.681 94.6483C174.84 94.2663 175.042 93.9555 175.287 93.7159C175.531 93.4699 175.816 93.2918 176.14 93.1817C176.464 93.0652 176.808 93.0069 177.172 93.0069C177.556 93.0069 177.92 93.0716 178.264 93.2011C178.607 93.3242 178.908 93.5217 179.166 93.7936C179.424 94.0591 179.626 94.4055 179.772 94.8329C179.924 95.2538 180 95.762 180 96.3578V96.552C180 97.1736 179.924 97.7013 179.772 98.1352C179.626 98.569 179.424 98.9251 179.166 99.2036C178.908 99.482 178.607 99.686 178.264 99.8155C177.92 99.9385 177.556 100 177.172 100C176.802 100 176.451 99.9417 176.12 99.8252C175.796 99.7086 175.508 99.5208 175.257 99.2618C175.012 99.0028 174.814 98.6726 174.662 98.2711C174.509 97.8697 174.423 97.3808 174.404 96.8045H173.094V99.9029H172.161V93.104ZM177.172 99.1841C177.417 99.1841 177.652 99.1356 177.877 99.0384C178.101 98.9413 178.297 98.7892 178.462 98.582C178.627 98.3683 178.76 98.0963 178.859 97.7661C178.958 97.4294 179.008 97.0247 179.008 96.552V96.3578C179.008 95.911 178.958 95.5289 178.859 95.2117C178.76 94.8879 178.627 94.6257 178.462 94.4249C178.297 94.2177 178.101 94.0656 177.877 93.9684C177.652 93.8713 177.417 93.8228 177.172 93.8228C176.921 93.8228 176.682 93.8713 176.458 93.9684C176.239 94.0656 176.047 94.2177 175.882 94.4249C175.717 94.6257 175.584 94.8879 175.485 95.2117C175.386 95.5289 175.336 95.911 175.336 96.3578V96.552C175.336 97.0247 175.386 97.4294 175.485 97.7661C175.584 98.0963 175.717 98.3683 175.882 98.582C176.047 98.7892 176.239 98.9413 176.458 99.0384C176.682 99.1356 176.921 99.1841 177.172 99.1841Z" fill="#009EE0"/>
<path fill-rule="evenodd" clip-rule="evenodd" d="M29.2664 30.9695C56.5483 30.9695 79.3481 49.9937 84 74.9261H15V30.9695C16 30.9695 28.2404 30.9695 29.2664 30.9695Z" fill="#009EE0"/>
<path fill-rule="evenodd" clip-rule="evenodd" d="M23.9669 30.9695H4.0076C4.00257 25.7293 4 20.49 4 15.2495L4.01066 14.716L4.03999 14.1874L4.08897 13.6607L4.15987 13.1355L4.24993 12.6138L4.35915 12.097L4.48989 11.5868L4.6393 11.0836L4.81004 10.589L4.99875 10.1036L5.20899 9.62865L5.43878 9.16574L5.68733 8.71666L5.95583 8.28164L6.24438 7.86232L6.5506 7.45748L6.87696 7.07256L7.22268 6.70602L7.58608 6.35811L7.96785 6.03053L8.36926 5.72506L8.78855 5.44132L9.22641 5.18058L9.68371 4.94222L10.1602 4.73077L10.6565 4.54201L11.173 4.38131L11.7103 4.24549L12.2694 4.13855L12.8519 4.05925L13.4576 4.01339L14.0852 3.99606L14.6828 4.01225L15.2592 4.05852L15.816 4.13391L16.3526 4.23931L16.8707 4.36976L17.3704 4.52745L17.8513 4.71117L18.3156 4.91985L18.7624 5.15269L19.1918 5.40805L19.6058 5.68822L20.0002 5.98994L20.3781 6.31314L20.7397 6.65642L21.0832 7.01954L21.4087 7.4008L21.7164 7.80125L22.0059 8.21894L22.2762 8.65119L22.5284 9.09914L22.7608 9.56132L22.9741 10.0363L23.1674 10.5227L23.3405 11.0199L23.4944 11.5262L23.6288 12.0419L23.743 12.5624L23.8345 13.0919L23.9076 13.6256L23.9585 14.1619L23.9899 14.7022L24 15.2495C23.9991 20.4895 23.986 25.7293 23.9669 30.9695Z" fill="#009EE0"/>
<path fill-rule="evenodd" clip-rule="evenodd" d="M23.9677 30.9695H14V4.00509L14.3203 3.99606L14.9037 4.01225L15.4665 4.05852L16.01 4.13391L16.5339 4.23931L17.0397 4.36976L17.5276 4.52745L17.9971 4.71117L18.4504 4.91985L18.8866 5.15269L19.3058 5.40805L19.7099 5.68822L20.095 5.98994L20.464 6.31314L20.817 6.65642L21.1524 7.01954L21.4702 7.4008L21.7706 7.80125L22.0531 8.21894L22.3171 8.65119L22.5633 9.09914L22.7902 9.56132L22.9984 10.0363L23.1872 10.5227L23.3561 11.0199L23.5064 11.5262L23.6376 12.0419L23.7491 12.5624L23.8384 13.0919L23.9098 13.6256L23.9595 14.1619L23.9902 14.7022L24 15.2495C23.9991 20.4895 23.9863 25.7293 23.9677 30.9695Z" fill="white"/>
<path fill-rule="evenodd" clip-rule="evenodd" d="M0.672607 45.1971V40.7038H180V45.1971H0.672607Z" fill="#E30016"/>
<path fill-rule="evenodd" clip-rule="evenodd" d="M15.9167 0.0930384L16.6757 0.207435L17.4169 0.36484L18.14 0.56418L18.8436 0.8037L19.5268 1.08213L20.1893 1.39694L20.8307 1.74803L21.4499 2.13267L22.0462 2.54939L22.6192 2.99684L23.1686 3.47344L23.6939 3.97745L24.1947 4.50769L24.6702 5.06192L25.1206 5.63976L25.5452 6.23904L25.9437 6.85842L26.3151 7.49653L26.6598 8.15209L26.9769 8.82364L27.2661 9.50983L27.5267 10.209L27.759 10.9204L27.9617 11.6424L28.1348 12.3739L28.2771 13.1129L28.3891 13.8587L28.4696 14.6096L28.5183 15.3644L28.5344 16.1124L28.5337 17.3889L28.531 18.6569C28.4448 45.7388 28.3643 72.819 28.3643 99.9015H23.8925C23.8925 72.6951 24.1157 45.4888 24.1194 18.2827L24.1092 17.6265L24.0785 16.979L24.0277 16.3352L23.956 15.6954L23.8645 15.0619L23.7526 14.4358L23.621 13.8183L23.4691 13.2106L23.2979 12.6146L23.1072 12.0314L22.8973 11.4624L22.6681 10.9082L22.42 10.3711L22.1534 9.85175L21.8684 9.35154L21.5652 8.87172L21.2442 8.41365L20.9057 7.97801L20.55 7.56635L20.1769 7.17918L19.7872 6.81795L19.3804 6.48286L18.957 6.17546L18.5168 5.89624L18.06 5.64639L17.5854 5.42617L17.0933 5.23668L16.583 5.07899L16.0542 4.95416L15.5058 4.86317L14.9375 4.80748L14.3488 4.78866L13.7299 4.80816L13.1333 4.86551L12.5599 4.95923L12.0086 5.08738L11.479 5.24936L10.97 5.44344L10.4808 5.66882L10.0115 5.92404L9.56103 6.20871L9.12919 6.52167L8.71593 6.86213L8.32068 7.22872L7.9443 7.62116L7.58592 8.03789L7.24604 8.47831L6.92454 8.94038L6.62251 9.4241L6.33857 9.92752L6.07409 10.4496L5.8283 10.9882L5.60245 11.543L5.39587 12.1119L5.20885 12.6941L5.04119 13.2873L4.89358 13.8912L4.76543 14.5035L4.65723 15.123L4.56849 15.7481L4.49979 16.3777L4.45046 17.0097L4.42097 17.6433L4.41095 18.2829C4.41095 45.4716 4.47186 72.647 4.47186 99.9015H0C0 71.8324 0.163472 44.0141 0.163472 16.1126L0.17865 15.3839L0.224095 14.6464L0.299309 13.9105L0.404011 13.1776L0.538197 12.4495L0.701086 11.7272L0.892873 11.0124L1.11307 10.3058L1.36189 9.60998L1.63823 8.92585L1.9426 8.25468L2.27441 7.59795L2.63396 6.95741L3.02045 6.33471L3.4342 5.73104L3.8746 5.14794L4.34225 4.58717L4.83617 4.05069L5.35646 3.53966L5.90274 3.05555L6.47489 2.60089L7.07235 2.17655L7.69529 1.7848L8.34277 1.42698L9.01495 1.10534L9.71068 0.821255L10.4295 0.576663L11.1709 0.373033L11.9344 0.212018L12.719 0.0950864L13.524 0.0240888L14.3491 0L15.1408 0.0236005L15.9167 0.0930384Z" fill="#E30016"/>
<path fill-rule="evenodd" clip-rule="evenodd" d="M13 30.9695V78.9221H16V30.9695H13Z" fill="#E30016"/>
<mask id="path-9-outside-1_142_2886" maskUnits="userSpaceOnUse" x="29.7097" y="46.4437" width="152" height="30" fill="black">
<rect fill="white" x="29.7097" y="46.4437" width="152" height="30"/>
<path d="M46.3224 74.2664L37.1934 62.1212H33.9256V74.2664H30.7097V47.8055H33.9256V59.2788H35.3261L45.9593 47.8055H49.7977L39.0607 59.4338L50.1608 74.2664H46.3224Z"/>
<path d="M54.3168 74.2664V47.8055H63.6015C65.4515 47.8055 66.9773 48.1242 68.1789 48.7616C69.3806 49.3904 70.2753 50.2388 70.8632 51.3069C71.451 52.3664 71.745 53.5421 71.745 54.8342C71.745 55.9712 71.5418 56.91 71.1355 57.6508C70.7378 58.3916 70.2105 58.9773 69.5535 59.408C68.9051 59.8386 68.2005 60.1573 67.4398 60.3641V60.6225C68.2524 60.6742 69.0694 60.9584 69.8906 61.4752C70.7119 61.992 71.3992 62.7328 71.9524 63.6975C72.5057 64.6622 72.7823 65.8423 72.7823 67.2377C72.7823 68.5642 72.4798 69.7572 71.8746 70.8166C71.2695 71.8761 70.3142 72.7159 69.0088 73.3361C67.7035 73.9563 66.0047 74.2664 63.9127 74.2664H54.3168ZM57.5327 71.4239H63.9127C66.0134 71.4239 67.5046 71.0191 68.3864 70.2094C69.2768 69.3911 69.722 68.4005 69.722 67.2377C69.722 66.3419 69.493 65.515 69.0348 64.757C68.5766 63.9904 67.9239 63.3788 67.0767 62.9223C66.2295 62.4572 65.2267 62.2246 64.0683 62.2246H57.5327V71.4239ZM57.5327 59.4338H63.4977C64.4659 59.4338 65.3391 59.2443 66.1171 58.8653C66.9038 58.4863 67.5262 57.9523 67.9844 57.2632C68.4512 56.5741 68.6847 55.7644 68.6847 54.8342C68.6847 53.6713 68.2784 52.6851 67.4657 51.8754C66.6531 51.0571 65.365 50.648 63.6015 50.648H57.5327V59.4338Z"/>
<path d="M78.0666 47.8055H81.2306V68.6331H81.4899L96.0134 47.8055H99.1256V74.2664H95.9097V53.4904H95.6503L81.1787 74.2664H78.0666V47.8055Z"/>
<path d="M103.278 74.2664V71.3205H104.056C105.163 71.3205 106.023 70.9674 106.637 70.2611C107.251 69.5548 107.692 68.4135 107.96 66.8372C108.236 65.2609 108.422 63.1721 108.517 60.5708L108.984 47.8055H125.167V74.2664H121.951V50.648H112.044L111.629 61.191C111.526 63.9645 111.271 66.3247 110.864 68.2713C110.458 70.218 109.745 71.7038 108.725 72.7288C107.705 73.7539 106.218 74.2664 104.264 74.2664H103.278Z"/>
<path d="M154 61.0359C154 63.8267 153.494 66.2385 152.483 68.2713C151.472 70.3041 150.084 71.8718 148.321 72.9743C146.557 74.0769 144.543 74.6281 142.278 74.6281C140.013 74.6281 137.999 74.0769 136.235 72.9743C134.471 71.8718 133.084 70.3041 132.072 68.2713C131.061 66.2385 130.555 63.8267 130.555 61.0359C130.555 58.2451 131.061 55.8333 132.072 53.8005C133.084 51.7677 134.471 50.2001 136.235 49.0975C137.999 47.995 140.013 47.4437 142.278 47.4437C144.543 47.4437 146.557 47.995 148.321 49.0975C150.084 50.2001 151.472 51.7677 152.483 53.8005C153.494 55.8333 154 58.2451 154 61.0359ZM150.888 61.0359C150.888 58.7447 150.503 56.811 149.734 55.2347C148.973 53.6584 147.94 52.4654 146.635 51.6558C145.338 50.8461 143.886 50.4412 142.278 50.4412C140.67 50.4412 139.213 50.8461 137.908 51.6558C136.611 52.4654 135.578 53.6584 134.809 55.2347C134.048 56.811 133.667 58.7447 133.667 61.0359C133.667 63.3271 134.048 65.2609 134.809 66.8372C135.578 68.4135 136.611 69.6064 137.908 70.4161C139.213 71.2258 140.67 71.6306 142.278 71.6306C143.886 71.6306 145.338 71.2258 146.635 70.4161C147.94 69.6064 148.973 68.4135 149.734 66.8372C150.503 65.2609 150.888 63.3271 150.888 61.0359Z"/>
<path d="M159.408 74.2664V47.8055H162.624V59.5889H176.784V47.8055H180V74.2664H176.784V62.4313H162.624V74.2664H159.408Z"/>
<path d="M46.3224 74.2664L37.1934 62.1212H33.9256V74.2664H30.7097V47.8055H33.9256V59.2788H35.3261L45.9593 47.8055H49.7977L39.0607 59.4338L50.1608 74.2664H46.3224Z"/>
<path d="M54.3168 74.2664V47.8055H63.6015C65.4515 47.8055 66.9773 48.1242 68.1789 48.7616C69.3806 49.3904 70.2753 50.2388 70.8632 51.3069C71.451 52.3664 71.745 53.5421 71.745 54.8342C71.745 55.9712 71.5418 56.91 71.1355 57.6508C70.7378 58.3916 70.2105 58.9773 69.5535 59.408C68.9051 59.8386 68.2005 60.1573 67.4398 60.3641V60.6225C68.2524 60.6742 69.0694 60.9584 69.8906 61.4752C70.7119 61.992 71.3992 62.7328 71.9524 63.6975C72.5057 64.6622 72.7823 65.8423 72.7823 67.2377C72.7823 68.5642 72.4798 69.7572 71.8746 70.8166C71.2695 71.8761 70.3142 72.7159 69.0088 73.3361C67.7035 73.9563 66.0047 74.2664 63.9127 74.2664H54.3168ZM57.5327 71.4239H63.9127C66.0134 71.4239 67.5046 71.0191 68.3864 70.2094C69.2768 69.3911 69.722 68.4005 69.722 67.2377C69.722 66.3419 69.493 65.515 69.0348 64.757C68.5766 63.9904 67.9239 63.3788 67.0767 62.9223C66.2295 62.4572 65.2267 62.2246 64.0683 62.2246H57.5327V71.4239ZM57.5327 59.4338H63.4977C64.4659 59.4338 65.3391 59.2443 66.1171 58.8653C66.9038 58.4863 67.5262 57.9523 67.9844 57.2632C68.4512 56.5741 68.6847 55.7644 68.6847 54.8342C68.6847 53.6713 68.2784 52.6851 67.4657 51.8754C66.6531 51.0571 65.365 50.648 63.6015 50.648H57.5327V59.4338Z"/>
<path d="M78.0666 47.8055H81.2306V68.6331H81.4899L96.0134 47.8055H99.1256V74.2664H95.9097V53.4904H95.6503L81.1787 74.2664H78.0666V47.8055Z"/>
<path d="M103.278 74.2664V71.3205H104.056C105.163 71.3205 106.023 70.9674 106.637 70.2611C107.251 69.5548 107.692 68.4135 107.96 66.8372C108.236 65.2609 108.422 63.1721 108.517 60.5708L108.984 47.8055H125.167V74.2664H121.951V50.648H112.044L111.629 61.191C111.526 63.9645 111.271 66.3247 110.864 68.2713C110.458 70.218 109.745 71.7038 108.725 72.7288C107.705 73.7539 106.218 74.2664 104.264 74.2664H103.278Z"/>
<path d="M154 61.0359C154 63.8267 153.494 66.2385 152.483 68.2713C151.472 70.3041 150.084 71.8718 148.321 72.9743C146.557 74.0769 144.543 74.6281 142.278 74.6281C140.013 74.6281 137.999 74.0769 136.235 72.9743C134.471 71.8718 133.084 70.3041 132.072 68.2713C131.061 66.2385 130.555 63.8267 130.555 61.0359C130.555 58.2451 131.061 55.8333 132.072 53.8005C133.084 51.7677 134.471 50.2001 136.235 49.0975C137.999 47.995 140.013 47.4437 142.278 47.4437C144.543 47.4437 146.557 47.995 148.321 49.0975C150.084 50.2001 151.472 51.7677 152.483 53.8005C153.494 55.8333 154 58.2451 154 61.0359ZM150.888 61.0359C150.888 58.7447 150.503 56.811 149.734 55.2347C148.973 53.6584 147.94 52.4654 146.635 51.6558C145.338 50.8461 143.886 50.4412 142.278 50.4412C140.67 50.4412 139.213 50.8461 137.908 51.6558C136.611 52.4654 135.578 53.6584 134.809 55.2347C134.048 56.811 133.667 58.7447 133.667 61.0359C133.667 63.3271 134.048 65.2609 134.809 66.8372C135.578 68.4135 136.611 69.6064 137.908 70.4161C139.213 71.2258 140.67 71.6306 142.278 71.6306C143.886 71.6306 145.338 71.2258 146.635 70.4161C147.94 69.6064 148.973 68.4135 149.734 66.8372C150.503 65.2609 150.888 63.3271 150.888 61.0359Z"/>
<path d="M159.408 74.2664V47.8055H162.624V59.5889H176.784V47.8055H180V74.2664H176.784V62.4313H162.624V74.2664H159.408Z"/>
</mask>
<path d="M46.3224 74.2664L37.1934 62.1212H33.9256V74.2664H30.7097V47.8055H33.9256V59.2788H35.3261L45.9593 47.8055H49.7977L39.0607 59.4338L50.1608 74.2664H46.3224Z" fill="#E30016"/>
<path d="M54.3168 74.2664V47.8055H63.6015C65.4515 47.8055 66.9773 48.1242 68.1789 48.7616C69.3806 49.3904 70.2753 50.2388 70.8632 51.3069C71.451 52.3664 71.745 53.5421 71.745 54.8342C71.745 55.9712 71.5418 56.91 71.1355 57.6508C70.7378 58.3916 70.2105 58.9773 69.5535 59.408C68.9051 59.8386 68.2005 60.1573 67.4398 60.3641V60.6225C68.2524 60.6742 69.0694 60.9584 69.8906 61.4752C70.7119 61.992 71.3992 62.7328 71.9524 63.6975C72.5057 64.6622 72.7823 65.8423 72.7823 67.2377C72.7823 68.5642 72.4798 69.7572 71.8746 70.8166C71.2695 71.8761 70.3142 72.7159 69.0088 73.3361C67.7035 73.9563 66.0047 74.2664 63.9127 74.2664H54.3168ZM57.5327 71.4239H63.9127C66.0134 71.4239 67.5046 71.0191 68.3864 70.2094C69.2768 69.3911 69.722 68.4005 69.722 67.2377C69.722 66.3419 69.493 65.515 69.0348 64.757C68.5766 63.9904 67.9239 63.3788 67.0767 62.9223C66.2295 62.4572 65.2267 62.2246 64.0683 62.2246H57.5327V71.4239ZM57.5327 59.4338H63.4977C64.4659 59.4338 65.3391 59.2443 66.1171 58.8653C66.9038 58.4863 67.5262 57.9523 67.9844 57.2632C68.4512 56.5741 68.6847 55.7644 68.6847 54.8342C68.6847 53.6713 68.2784 52.6851 67.4657 51.8754C66.6531 51.0571 65.365 50.648 63.6015 50.648H57.5327V59.4338Z" fill="#E30016"/>
<path d="M78.0666 47.8055H81.2306V68.6331H81.4899L96.0134 47.8055H99.1256V74.2664H95.9097V53.4904H95.6503L81.1787 74.2664H78.0666V47.8055Z" fill="#E30016"/>
<path d="M103.278 74.2664V71.3205H104.056C105.163 71.3205 106.023 70.9674 106.637 70.2611C107.251 69.5548 107.692 68.4135 107.96 66.8372C108.236 65.2609 108.422 63.1721 108.517 60.5708L108.984 47.8055H125.167V74.2664H121.951V50.648H112.044L111.629 61.191C111.526 63.9645 111.271 66.3247 110.864 68.2713C110.458 70.218 109.745 71.7038 108.725 72.7288C107.705 73.7539 106.218 74.2664 104.264 74.2664H103.278Z" fill="#E30016"/>
<path d="M154 61.0359C154 63.8267 153.494 66.2385 152.483 68.2713C151.472 70.3041 150.084 71.8718 148.321 72.9743C146.557 74.0769 144.543 74.6281 142.278 74.6281C140.013 74.6281 137.999 74.0769 136.235 72.9743C134.471 71.8718 133.084 70.3041 132.072 68.2713C131.061 66.2385 130.555 63.8267 130.555 61.0359C130.555 58.2451 131.061 55.8333 132.072 53.8005C133.084 51.7677 134.471 50.2001 136.235 49.0975C137.999 47.995 140.013 47.4437 142.278 47.4437C144.543 47.4437 146.557 47.995 148.321 49.0975C150.084 50.2001 151.472 51.7677 152.483 53.8005C153.494 55.8333 154 58.2451 154 61.0359ZM150.888 61.0359C150.888 58.7447 150.503 56.811 149.734 55.2347C148.973 53.6584 147.94 52.4654 146.635 51.6558C145.338 50.8461 143.886 50.4412 142.278 50.4412C140.67 50.4412 139.213 50.8461 137.908 51.6558C136.611 52.4654 135.578 53.6584 134.809 55.2347C134.048 56.811 133.667 58.7447 133.667 61.0359C133.667 63.3271 134.048 65.2609 134.809 66.8372C135.578 68.4135 136.611 69.6064 137.908 70.4161C139.213 71.2258 140.67 71.6306 142.278 71.6306C143.886 71.6306 145.338 71.2258 146.635 70.4161C147.94 69.6064 148.973 68.4135 149.734 66.8372C150.503 65.2609 150.888 63.3271 150.888 61.0359Z" fill="#E30016"/>
<path d="M159.408 74.2664V47.8055H162.624V59.5889H176.784V47.8055H180V74.2664H176.784V62.4313H162.624V74.2664H159.408Z" fill="#E30016"/>
<path d="M46.3224 74.2664L37.1934 62.1212H33.9256V74.2664H30.7097V47.8055H33.9256V59.2788H35.3261L45.9593 47.8055H49.7977L39.0607 59.4338L50.1608 74.2664H46.3224Z" fill="#E30016"/>
<path d="M54.3168 74.2664V47.8055H63.6015C65.4515 47.8055 66.9773 48.1242 68.1789 48.7616C69.3806 49.3904 70.2753 50.2388 70.8632 51.3069C71.451 52.3664 71.745 53.5421 71.745 54.8342C71.745 55.9712 71.5418 56.91 71.1355 57.6508C70.7378 58.3916 70.2105 58.9773 69.5535 59.408C68.9051 59.8386 68.2005 60.1573 67.4398 60.3641V60.6225C68.2524 60.6742 69.0694 60.9584 69.8906 61.4752C70.7119 61.992 71.3992 62.7328 71.9524 63.6975C72.5057 64.6622 72.7823 65.8423 72.7823 67.2377C72.7823 68.5642 72.4798 69.7572 71.8746 70.8166C71.2695 71.8761 70.3142 72.7159 69.0088 73.3361C67.7035 73.9563 66.0047 74.2664 63.9127 74.2664H54.3168ZM57.5327 71.4239H63.9127C66.0134 71.4239 67.5046 71.0191 68.3864 70.2094C69.2768 69.3911 69.722 68.4005 69.722 67.2377C69.722 66.3419 69.493 65.515 69.0348 64.757C68.5766 63.9904 67.9239 63.3788 67.0767 62.9223C66.2295 62.4572 65.2267 62.2246 64.0683 62.2246H57.5327V71.4239ZM57.5327 59.4338H63.4977C64.4659 59.4338 65.3391 59.2443 66.1171 58.8653C66.9038 58.4863 67.5262 57.9523 67.9844 57.2632C68.4512 56.5741 68.6847 55.7644 68.6847 54.8342C68.6847 53.6713 68.2784 52.6851 67.4657 51.8754C66.6531 51.0571 65.365 50.648 63.6015 50.648H57.5327V59.4338Z" fill="#E30016"/>
<path d="M78.0666 47.8055H81.2306V68.6331H81.4899L96.0134 47.8055H99.1256V74.2664H95.9097V53.4904H95.6503L81.1787 74.2664H78.0666V47.8055Z" fill="#E30016"/>
<path d="M103.278 74.2664V71.3205H104.056C105.163 71.3205 106.023 70.9674 106.637 70.2611C107.251 69.5548 107.692 68.4135 107.96 66.8372C108.236 65.2609 108.422 63.1721 108.517 60.5708L108.984 47.8055H125.167V74.2664H121.951V50.648H112.044L111.629 61.191C111.526 63.9645 111.271 66.3247 110.864 68.2713C110.458 70.218 109.745 71.7038 108.725 72.7288C107.705 73.7539 106.218 74.2664 104.264 74.2664H103.278Z" fill="#E30016"/>
<path d="M154 61.0359C154 63.8267 153.494 66.2385 152.483 68.2713C151.472 70.3041 150.084 71.8718 148.321 72.9743C146.557 74.0769 144.543 74.6281 142.278 74.6281C140.013 74.6281 137.999 74.0769 136.235 72.9743C134.471 71.8718 133.084 70.3041 132.072 68.2713C131.061 66.2385 130.555 63.8267 130.555 61.0359C130.555 58.2451 131.061 55.8333 132.072 53.8005C133.084 51.7677 134.471 50.2001 136.235 49.0975C137.999 47.995 140.013 47.4437 142.278 47.4437C144.543 47.4437 146.557 47.995 148.321 49.0975C150.084 50.2001 151.472 51.7677 152.483 53.8005C153.494 55.8333 154 58.2451 154 61.0359ZM150.888 61.0359C150.888 58.7447 150.503 56.811 149.734 55.2347C148.973 53.6584 147.94 52.4654 146.635 51.6558C145.338 50.8461 143.886 50.4412 142.278 50.4412C140.67 50.4412 139.213 50.8461 137.908 51.6558C136.611 52.4654 135.578 53.6584 134.809 55.2347C134.048 56.811 133.667 58.7447 133.667 61.0359C133.667 63.3271 134.048 65.2609 134.809 66.8372C135.578 68.4135 136.611 69.6064 137.908 70.4161C139.213 71.2258 140.67 71.6306 142.278 71.6306C143.886 71.6306 145.338 71.2258 146.635 70.4161C147.94 69.6064 148.973 68.4135 149.734 66.8372C150.503 65.2609 150.888 63.3271 150.888 61.0359Z" fill="#E30016"/>
<path d="M159.408 74.2664V47.8055H162.624V59.5889H176.784V47.8055H180V74.2664H176.784V62.4313H162.624V74.2664H159.408Z" fill="#E30016"/>
<path d="M46.3224 74.2664L37.1934 62.1212H33.9256V74.2664H30.7097V47.8055H33.9256V59.2788H35.3261L45.9593 47.8055H49.7977L39.0607 59.4338L50.1608 74.2664H46.3224Z" stroke="white" stroke-width="4" mask="url(#path-9-outside-1_142_2886)"/>
<path d="M54.3168 74.2664V47.8055H63.6015C65.4515 47.8055 66.9773 48.1242 68.1789 48.7616C69.3806 49.3904 70.2753 50.2388 70.8632 51.3069C71.451 52.3664 71.745 53.5421 71.745 54.8342C71.745 55.9712 71.5418 56.91 71.1355 57.6508C70.7378 58.3916 70.2105 58.9773 69.5535 59.408C68.9051 59.8386 68.2005 60.1573 67.4398 60.3641V60.6225C68.2524 60.6742 69.0694 60.9584 69.8906 61.4752C70.7119 61.992 71.3992 62.7328 71.9524 63.6975C72.5057 64.6622 72.7823 65.8423 72.7823 67.2377C72.7823 68.5642 72.4798 69.7572 71.8746 70.8166C71.2695 71.8761 70.3142 72.7159 69.0088 73.3361C67.7035 73.9563 66.0047 74.2664 63.9127 74.2664H54.3168ZM57.5327 71.4239H63.9127C66.0134 71.4239 67.5046 71.0191 68.3864 70.2094C69.2768 69.3911 69.722 68.4005 69.722 67.2377C69.722 66.3419 69.493 65.515 69.0348 64.757C68.5766 63.9904 67.9239 63.3788 67.0767 62.9223C66.2295 62.4572 65.2267 62.2246 64.0683 62.2246H57.5327V71.4239ZM57.5327 59.4338H63.4977C64.4659 59.4338 65.3391 59.2443 66.1171 58.8653C66.9038 58.4863 67.5262 57.9523 67.9844 57.2632C68.4512 56.5741 68.6847 55.7644 68.6847 54.8342C68.6847 53.6713 68.2784 52.6851 67.4657 51.8754C66.6531 51.0571 65.365 50.648 63.6015 50.648H57.5327V59.4338Z" stroke="white" stroke-width="4" mask="url(#path-9-outside-1_142_2886)"/>
<path d="M78.0666 47.8055H81.2306V68.6331H81.4899L96.0134 47.8055H99.1256V74.2664H95.9097V53.4904H95.6503L81.1787 74.2664H78.0666V47.8055Z" stroke="white" stroke-width="4" mask="url(#path-9-outside-1_142_2886)"/>
<path d="M103.278 74.2664V71.3205H104.056C105.163 71.3205 106.023 70.9674 106.637 70.2611C107.251 69.5548 107.692 68.4135 107.96 66.8372C108.236 65.2609 108.422 63.1721 108.517 60.5708L108.984 47.8055H125.167V74.2664H121.951V50.648H112.044L111.629 61.191C111.526 63.9645 111.271 66.3247 110.864 68.2713C110.458 70.218 109.745 71.7038 108.725 72.7288C107.705 73.7539 106.218 74.2664 104.264 74.2664H103.278Z" stroke="white" stroke-width="4" mask="url(#path-9-outside-1_142_2886)"/>
<path d="M154 61.0359C154 63.8267 153.494 66.2385 152.483 68.2713C151.472 70.3041 150.084 71.8718 148.321 72.9743C146.557 74.0769 144.543 74.6281 142.278 74.6281C140.013 74.6281 137.999 74.0769 136.235 72.9743C134.471 71.8718 133.084 70.3041 132.072 68.2713C131.061 66.2385 130.555 63.8267 130.555 61.0359C130.555 58.2451 131.061 55.8333 132.072 53.8005C133.084 51.7677 134.471 50.2001 136.235 49.0975C137.999 47.995 140.013 47.4437 142.278 47.4437C144.543 47.4437 146.557 47.995 148.321 49.0975C150.084 50.2001 151.472 51.7677 152.483 53.8005C153.494 55.8333 154 58.2451 154 61.0359ZM150.888 61.0359C150.888 58.7447 150.503 56.811 149.734 55.2347C148.973 53.6584 147.94 52.4654 146.635 51.6558C145.338 50.8461 143.886 50.4412 142.278 50.4412C140.67 50.4412 139.213 50.8461 137.908 51.6558C136.611 52.4654 135.578 53.6584 134.809 55.2347C134.048 56.811 133.667 58.7447 133.667 61.0359C133.667 63.3271 134.048 65.2609 134.809 66.8372C135.578 68.4135 136.611 69.6064 137.908 70.4161C139.213 71.2258 140.67 71.6306 142.278 71.6306C143.886 71.6306 145.338 71.2258 146.635 70.4161C147.94 69.6064 148.973 68.4135 149.734 66.8372C150.503 65.2609 150.888 63.3271 150.888 61.0359Z" stroke="white" stroke-width="4" mask="url(#path-9-outside-1_142_2886)"/>
<path d="M159.408 74.2664V47.8055H162.624V59.5889H176.784V47.8055H180V74.2664H176.784V62.4313H162.624V74.2664H159.408Z" stroke="white" stroke-width="4" mask="url(#path-9-outside-1_142_2886)"/>
<path d="M46.3224 74.2664L37.1934 62.1212H33.9256V74.2664H30.7097V47.8055H33.9256V59.2788H35.3261L45.9593 47.8055H49.7977L39.0607 59.4338L50.1608 74.2664H46.3224Z" stroke="white" stroke-width="4" mask="url(#path-9-outside-1_142_2886)"/>
<path d="M54.3168 74.2664V47.8055H63.6015C65.4515 47.8055 66.9773 48.1242 68.1789 48.7616C69.3806 49.3904 70.2753 50.2388 70.8632 51.3069C71.451 52.3664 71.745 53.5421 71.745 54.8342C71.745 55.9712 71.5418 56.91 71.1355 57.6508C70.7378 58.3916 70.2105 58.9773 69.5535 59.408C68.9051 59.8386 68.2005 60.1573 67.4398 60.3641V60.6225C68.2524 60.6742 69.0694 60.9584 69.8906 61.4752C70.7119 61.992 71.3992 62.7328 71.9524 63.6975C72.5057 64.6622 72.7823 65.8423 72.7823 67.2377C72.7823 68.5642 72.4798 69.7572 71.8746 70.8166C71.2695 71.8761 70.3142 72.7159 69.0088 73.3361C67.7035 73.9563 66.0047 74.2664 63.9127 74.2664H54.3168ZM57.5327 71.4239H63.9127C66.0134 71.4239 67.5046 71.0191 68.3864 70.2094C69.2768 69.3911 69.722 68.4005 69.722 67.2377C69.722 66.3419 69.493 65.515 69.0348 64.757C68.5766 63.9904 67.9239 63.3788 67.0767 62.9223C66.2295 62.4572 65.2267 62.2246 64.0683 62.2246H57.5327V71.4239ZM57.5327 59.4338H63.4977C64.4659 59.4338 65.3391 59.2443 66.1171 58.8653C66.9038 58.4863 67.5262 57.9523 67.9844 57.2632C68.4512 56.5741 68.6847 55.7644 68.6847 54.8342C68.6847 53.6713 68.2784 52.6851 67.4657 51.8754C66.6531 51.0571 65.365 50.648 63.6015 50.648H57.5327V59.4338Z" stroke="white" stroke-width="4" mask="url(#path-9-outside-1_142_2886)"/>
<path d="M78.0666 47.8055H81.2306V68.6331H81.4899L96.0134 47.8055H99.1256V74.2664H95.9097V53.4904H95.6503L81.1787 74.2664H78.0666V47.8055Z" stroke="white" stroke-width="4" mask="url(#path-9-outside-1_142_2886)"/>
<path d="M103.278 74.2664V71.3205H104.056C105.163 71.3205 106.023 70.9674 106.637 70.2611C107.251 69.5548 107.692 68.4135 107.96 66.8372C108.236 65.2609 108.422 63.1721 108.517 60.5708L108.984 47.8055H125.167V74.2664H121.951V50.648H112.044L111.629 61.191C111.526 63.9645 111.271 66.3247 110.864 68.2713C110.458 70.218 109.745 71.7038 108.725 72.7288C107.705 73.7539 106.218 74.2664 104.264 74.2664H103.278Z" stroke="white" stroke-width="4" mask="url(#path-9-outside-1_142_2886)"/>
<path d="M154 61.0359C154 63.8267 153.494 66.2385 152.483 68.2713C151.472 70.3041 150.084 71.8718 148.321 72.9743C146.557 74.0769 144.543 74.6281 142.278 74.6281C140.013 74.6281 137.999 74.0769 136.235 72.9743C134.471 71.8718 133.084 70.3041 132.072 68.2713C131.061 66.2385 130.555 63.8267 130.555 61.0359C130.555 58.2451 131.061 55.8333 132.072 53.8005C133.084 51.7677 134.471 50.2001 136.235 49.0975C137.999 47.995 140.013 47.4437 142.278 47.4437C144.543 47.4437 146.557 47.995 148.321 49.0975C150.084 50.2001 151.472 51.7677 152.483 53.8005C153.494 55.8333 154 58.2451 154 61.0359ZM150.888 61.0359C150.888 58.7447 150.503 56.811 149.734 55.2347C148.973 53.6584 147.94 52.4654 146.635 51.6558C145.338 50.8461 143.886 50.4412 142.278 50.4412C140.67 50.4412 139.213 50.8461 137.908 51.6558C136.611 52.4654 135.578 53.6584 134.809 55.2347C134.048 56.811 133.667 58.7447 133.667 61.0359C133.667 63.3271 134.048 65.2609 134.809 66.8372C135.578 68.4135 136.611 69.6064 137.908 70.4161C139.213 71.2258 140.67 71.6306 142.278 71.6306C143.886 71.6306 145.338 71.2258 146.635 70.4161C147.94 69.6064 148.973 68.4135 149.734 66.8372C150.503 65.2609 150.888 63.3271 150.888 61.0359Z" stroke="white" stroke-width="4" mask="url(#path-9-outside-1_142_2886)"/>
<path d="M159.408 74.2664V47.8055H162.624V59.5889H176.784V47.8055H180V74.2664H176.784V62.4313H162.624V74.2664H159.408Z" stroke="white" stroke-width="4" mask="url(#path-9-outside-1_142_2886)"/>
<line x1="30" y1="78.0207" x2="180" y2="78.0207" stroke="#E30016" stroke-width="2"/>
</svg>
