<svg width="540" height="540" viewBox="0 0 540 540" fill="none" xmlns="http://www.w3.org/2000/svg">
<rect width="540" height="540" fill="#FAFAFA"/>
<path fill-rule="evenodd" clip-rule="evenodd" d="M267.626 363.332V96.7548L269.085 96.6976L268.234 96.6655L263.776 96.8368L259.474 97.2902L255.337 98.0742L251.366 99.1314L247.549 100.474L243.881 102.063L240.356 103.929L236.972 106.019L233.724 108.376L230.614 110.954L227.636 113.759L224.785 116.779L222.074 120.017L219.493 123.457L217.037 127.081L214.719 130.886L212.544 134.888L210.495 139.034L208.588 143.335L206.822 147.774L205.19 152.351L203.697 157.046L202.357 161.846L201.144 166.735L200.083 171.71L199.154 176.754L198.378 181.863L197.739 187.021L197.235 192.212L196.887 197.42L196.679 202.646L196.603 207.92C196.603 259.729 196.621 311.526 196.657 363.332L267.626 363.332ZM338.558 301.277C338.614 270.158 338.648 239.039 338.652 207.92L338.582 202.51L338.558 201.921L338.583 202.51L338.654 207.92C338.65 239.039 338.615 270.158 338.558 301.277Z" fill="#009EE0"/>
<path fill-rule="evenodd" clip-rule="evenodd" d="M177.01 385.79V357.72H359.246V385.79H177.01V385.79Z" fill="#E30016"/>
<path fill-rule="evenodd" clip-rule="evenodd" d="M281.562 70.6529L286.881 71.4557L292.076 72.5603L297.144 73.9592L302.076 75.64L306.865 77.5939L311.508 79.8031L316.004 82.2669L320.344 84.9661L324.523 87.8905L328.54 91.0304L332.391 94.375L336.072 97.9119L339.583 101.633L342.916 105.522L346.073 109.577L349.048 113.783L351.841 118.129L354.444 122.607L356.861 127.208L359.084 131.92L361.111 136.736L362.937 141.642L364.565 146.635L365.986 151.701L367.199 156.835L368.197 162.02L368.982 167.254L369.546 172.523L369.887 177.821L370 183.07L369.995 192.028L369.976 200.925C369.372 390.974 368.808 279.948 368.808 470H337.464C337.464 279.078 339.029 389.22 339.055 198.299L338.983 193.695L338.768 189.151L338.412 184.633L337.91 180.143L337.268 175.698L336.484 171.304L335.561 166.97L334.497 162.706L333.297 158.524L331.96 154.431L330.489 150.438L328.882 146.549L327.144 142.779L325.275 139.135L323.277 135.625L321.152 132.258L318.902 129.043L316.529 125.986L314.037 123.097L311.422 120.38L308.69 117.845L305.839 115.494L302.871 113.337L299.786 111.377L296.584 109.624L293.258 108.078L289.809 106.749L286.231 105.642L282.525 104.766L278.681 104.127L274.698 103.737L270.572 103.605L266.234 103.741L262.052 104.144L258.033 104.802L254.17 105.701L250.457 106.838L246.89 108.2L243.46 109.781L240.171 111.572L237.014 113.57L233.987 115.766L231.091 118.155L228.32 120.728L225.682 123.482L223.17 126.406L220.788 129.497L218.535 132.74L216.418 136.134L214.427 139.667L212.574 143.33L210.851 147.11L209.268 151.004L207.82 154.996L206.509 159.081L205.334 163.245L204.299 167.482L203.401 171.779L202.643 176.126L202.021 180.513L201.539 184.931L201.193 189.366L200.987 193.813L200.917 198.301C200.917 389.099 201.344 278.741 201.344 470H170C170 273.024 171.146 378.871 171.146 183.071L171.252 177.957L171.571 172.781L172.098 167.618L172.832 162.475L173.772 157.365L174.914 152.296L176.258 147.28L177.801 142.322L179.545 137.438L181.482 132.638L183.616 127.928L185.941 123.319L188.461 118.824L191.17 114.454L194.07 110.218L197.157 106.126L200.435 102.191L203.897 98.4259L207.544 94.8397L211.373 91.4424L215.383 88.2518L219.571 85.2741L223.937 82.5249L228.475 80.0139L233.186 77.7568L238.063 75.7632L243.101 74.0468L248.298 72.6178L253.649 71.4878L259.148 70.6673L264.791 70.169L270.574 70L276.123 70.1656L281.562 70.6529Z" fill="#E30016"/>
<path fill-rule="evenodd" clip-rule="evenodd" d="M258.75 96.6655V469.999H285.385V96.6655H258.75Z" fill="#E30016"/>
</svg>
