<svg width="30" height="30" viewBox="0 0 30 30" fill="none" xmlns="http://www.w3.org/2000/svg">
<circle cx="15" cy="15" r="15" fill="#EBE7E1"/>
<path d="M11.1945 20.7514L11.454 20.8811C12.5351 21.5297 13.7459 21.8324 14.9567 21.8324C18.7621 21.8324 21.8756 18.7189 21.8756 14.9135C21.8756 13.0973 21.1405 11.3243 19.8432 10.027C18.5459 8.72973 16.8161 7.9946 14.9567 7.9946C11.1513 7.9946 8.03777 11.1081 8.08101 14.9568C8.08101 16.2541 8.4702 17.5081 9.11885 18.5892L9.29182 18.8487L8.59993 21.4L11.1945 20.7514Z" fill="#EBE7E1"/>
<path d="M20.5784 9.33514C19.1081 7.82162 17.0757 7 15 7C10.5892 7 7.04324 10.5892 7.08649 14.9568C7.08649 16.3405 7.47568 17.6811 8.12432 18.8919L7 23L11.1946 21.9189C12.3622 22.5676 13.6595 22.8703 14.9568 22.8703C19.3243 22.8703 22.8703 19.2811 22.8703 14.9135C22.8703 12.7946 22.0486 10.8054 20.5784 9.33514ZM15 21.5297C13.8324 21.5297 12.6649 21.227 11.6703 20.6216L11.4108 20.4919L8.9027 21.1405L9.55135 18.6757L9.37838 18.4162C7.47568 15.3459 8.38378 11.2811 11.4973 9.37838C14.6108 7.47568 18.6324 8.38378 20.5351 11.4973C22.4378 14.6108 21.5297 18.6324 18.4162 20.5351C17.4216 21.1838 16.2108 21.5297 15 21.5297ZM18.8054 16.7297L18.3297 16.5135C18.3297 16.5135 17.6378 16.2108 17.2054 15.9946C17.1622 15.9946 17.1189 15.9514 17.0757 15.9514C16.9459 15.9514 16.8595 15.9946 16.773 16.0378C16.773 16.0378 16.7297 16.0811 16.1243 16.773C16.0811 16.8595 15.9946 16.9027 15.9081 16.9027H15.8649C15.8216 16.9027 15.7351 16.8595 15.6919 16.8162L15.4757 16.7297C15 16.5135 14.5676 16.2541 14.2216 15.9081C14.1351 15.8216 14.0054 15.7351 13.9189 15.6486C13.6162 15.3459 13.3135 15 13.0973 14.6108L13.0541 14.5243C13.0108 14.4811 13.0108 14.4378 12.9676 14.3514C12.9676 14.2649 12.9676 14.1784 13.0108 14.1351C13.0108 14.1351 13.1838 13.9189 13.3135 13.7892C13.4 13.7027 13.4432 13.573 13.5297 13.4865C13.6162 13.3568 13.6595 13.1838 13.6162 13.0541C13.573 12.8378 13.0541 11.6703 12.9243 11.4108C12.8378 11.2811 12.7514 11.2378 12.6216 11.1946H12.4919C12.4054 11.1946 12.2757 11.1946 12.1459 11.1946C12.0595 11.1946 11.973 11.2378 11.8865 11.2378L11.8432 11.2811C11.7568 11.3243 11.6703 11.4108 11.5838 11.4541C11.4973 11.5405 11.4541 11.627 11.3676 11.7135C11.0649 12.1027 10.8919 12.5784 10.8919 13.0541C10.8919 13.4 10.9784 13.7459 11.1081 14.0486L11.1514 14.1784C11.5405 15 12.0595 15.7351 12.7514 16.3838L12.9243 16.5568C13.0541 16.6865 13.1838 16.773 13.2703 16.9027C14.1784 17.6811 15.2162 18.2432 16.3838 18.5459C16.5135 18.5892 16.6865 18.5892 16.8162 18.6324C16.9459 18.6324 17.1189 18.6324 17.2486 18.6324C17.4649 18.6324 17.7243 18.5459 17.8973 18.4595C18.027 18.373 18.1135 18.373 18.2 18.2865L18.2865 18.2C18.373 18.1135 18.4595 18.0703 18.5459 17.9838C18.6324 17.8973 18.7189 17.8108 18.7622 17.7243C18.8486 17.5514 18.8919 17.3351 18.9351 17.1189C18.9351 17.0324 18.9351 16.9027 18.9351 16.8162C18.9351 16.8162 18.8919 16.773 18.8054 16.7297Z" fill="#004AB3"/>
</svg>
