<svg width="30" height="30" viewBox="0 0 30 30" fill="none" xmlns="http://www.w3.org/2000/svg">
<circle cx="15" cy="15" r="15" fill="#EBE7E1"/>
<circle cx="15" cy="15" r="9" fill="#004AB3"/>
<path d="M14.944 3.00003C11.7711 3.01484 8.73324 4.28565 6.4949 6.53448C4.25656 8.78331 2.99997 11.8271 3 15C3 18.1826 4.26428 21.2349 6.51472 23.4853C8.76515 25.7357 11.8174 27 15 27C18.1826 27 21.2348 25.7357 23.4853 23.4853C25.7357 21.2349 27 18.1826 27 15C27 11.8174 25.7357 8.76518 23.4853 6.51475C21.2348 4.26431 18.1826 3.00003 15 3.00003C14.9813 2.99999 14.9627 2.99999 14.944 3.00003ZM19.906 10.224C20.006 10.222 20.227 10.247 20.371 10.364C20.4667 10.4471 20.5277 10.5631 20.542 10.689C20.558 10.782 20.578 10.995 20.562 11.161C20.382 13.059 19.6 17.663 19.202 19.788C19.034 20.688 18.703 20.989 18.382 21.018C17.686 21.083 17.157 20.558 16.482 20.116C15.426 19.423 14.829 18.992 13.804 18.316C12.619 17.536 13.387 17.106 14.062 16.406C14.239 16.222 17.309 13.429 17.369 13.176C17.376 13.144 17.383 13.026 17.313 12.964C17.243 12.902 17.139 12.923 17.064 12.94C16.958 12.964 15.271 14.08 12.003 16.285C11.523 16.615 11.09 16.775 10.701 16.765C10.273 16.757 9.449 16.524 8.836 16.325C8.084 16.08 7.487 15.951 7.539 15.536C7.566 15.32 7.864 15.099 8.432 14.873C11.93 13.349 14.262 12.344 15.43 11.859C18.762 10.473 19.455 10.232 19.906 10.224Z" fill="#EBE7E1"/>
</svg>
