<svg width="40" height="60" viewBox="0 0 40 60" fill="none" xmlns="http://www.w3.org/2000/svg">
<path d="M39.03 0.101387C39.2559 0.0885414 39.4777 0.16533 39.6434 0.314146L39.6433 0.314299C39.8068 0.463718 39.8996 0.671097 39.9 0.887907V50.2761C39.9 50.6889 39.5668 51.0357 39.1316 51.0616L39.1315 51.0616L36.6159 51.2141L36.5219 51.2198V51.3139V59.1128C36.5219 59.3463 36.4139 59.5692 36.2253 59.7184L36.2253 59.7184C36.0758 59.8368 35.8914 59.9 35.7021 59.9C35.648 59.9 35.5953 59.8954 35.5438 59.8859L0.76277 53.368C0.375261 53.2955 0.1 52.969 0.1 52.5949V3.18748C0.1 2.77477 0.433637 2.42784 0.868489 2.40154C0.868495 2.40154 0.868501 2.40154 0.868507 2.40154L39.0298 0.101396C39.0299 0.101393 39.03 0.10139 39.03 0.101387ZM1.85839 4.1661L1.73997 4.14391V4.26439V51.864V51.947L1.82155 51.9623L34.7639 58.1356L34.8824 58.1578V58.0373V10.4367V10.3537L34.8008 10.3385L1.85839 4.1661Z" fill="#004AB3" stroke="#EBE7E1" stroke-width="0.2"/>
<path d="M28.4474 40.333L8.38599 36.5733C8.08612 36.5166 7.79591 36.7054 7.73757 36.9946C7.67972 37.2824 7.87497 37.5623 8.17483 37.6185L28.2362 41.3783C28.2714 41.3857 28.3076 41.3885 28.3413 41.3885C28.6007 41.3885 28.8311 41.2113 28.8832 40.9579C28.9415 40.6673 28.7458 40.3888 28.4474 40.333L28.4474 40.333Z" fill="#004AB3"/>
<path d="M28.4474 28.7698L8.38599 25.0101C8.08612 24.9533 7.79591 25.1421 7.73757 25.4313C7.67972 25.7191 7.87497 25.999 8.17483 26.0553L28.2362 29.815C28.2714 29.8225 28.3076 29.8253 28.3413 29.8253C28.6007 29.8253 28.8311 29.6481 28.8832 29.3947C28.9415 29.1041 28.7458 28.8256 28.4474 28.7698L28.4474 28.7698Z" fill="#004AB3"/>
<path d="M28.4474 17.7698L8.38599 14.0101C8.08612 13.9533 7.79591 14.1421 7.73757 14.4313C7.67972 14.7191 7.87497 14.999 8.17483 15.0553L28.2362 18.815C28.2714 18.8225 28.3076 18.8253 28.3413 18.8253C28.6007 18.8253 28.8311 18.6481 28.8832 18.3947C28.9415 18.1041 28.7458 17.8256 28.4474 17.7698L28.4474 17.7698Z" fill="#004AB3"/>
<path d="M28.4474 46.156L8.38599 42.3973C8.08612 42.3405 7.79591 42.5293 7.73757 42.8185C7.67972 43.1073 7.87497 43.3863 8.17483 43.4425L28.2362 47.2022C28.2714 47.2097 28.3076 47.2125 28.3413 47.2125C28.6007 47.2125 28.8311 47.0358 28.8832 46.7819C28.9415 46.4913 28.7458 46.2123 28.4474 46.1561L28.4474 46.156Z" fill="#004AB3"/>
<path d="M28.4474 34.5928L8.38599 30.834C8.08612 30.7773 7.79591 30.9661 7.73757 31.2553C7.67972 31.5441 7.87497 31.823 8.17483 31.8793L28.2362 35.639C28.2714 35.6464 28.3076 35.6492 28.3413 35.6492C28.6007 35.6492 28.8311 35.4726 28.8832 35.2187C28.9415 34.9281 28.7458 34.6491 28.4474 34.5928L28.4474 34.5928Z" fill="#004AB3"/>
<path d="M28.4474 23.5928L8.38599 19.834C8.08612 19.7773 7.79591 19.9661 7.73757 20.2553C7.67972 20.5441 7.87497 20.823 8.17483 20.8793L28.2362 24.639C28.2714 24.6464 28.3076 24.6492 28.3413 24.6492C28.6007 24.6492 28.8311 24.4726 28.8832 24.2187C28.9415 23.9281 28.7458 23.6491 28.4474 23.5928L28.4474 23.5928Z" fill="#004AB3"/>
</svg>
