<svg width="93" height="30" viewBox="0 0 93 30" fill="none" xmlns="http://www.w3.org/2000/svg">
<path d="M40.2999 29.5672H32.7663L37.4784 0.526367H45.0116L40.2999 29.5672Z" fill="#00579F"/>
<path d="M67.6101 1.23638C66.1241 0.648783 63.7673 0 60.853 0C53.4133 0 48.1743 3.95429 48.1421 9.60773C48.0803 13.7788 51.8931 16.0955 54.7447 17.4863C57.6594 18.9075 58.6502 19.8351 58.6502 21.1018C58.6205 23.0474 56.295 23.9442 54.126 23.9442C51.1182 23.9442 49.5066 23.4818 47.0574 22.3994L46.0654 21.9354L45.0112 28.4544C46.7781 29.2568 50.0335 29.9688 53.4133 30C61.3181 30 66.4644 26.1069 66.5254 20.0823C66.5554 16.7764 64.5422 14.2432 60.2017 12.1733C57.5667 10.8445 55.953 9.94854 55.953 8.58897C55.9839 7.353 57.3179 6.08706 60.2923 6.08706C62.7414 6.02505 64.5409 6.61183 65.9041 7.19902L66.5855 7.5074L67.6101 1.23638Z" fill="#00579F"/>
<path d="M77.6229 19.279C78.2434 17.6107 80.6307 11.1537 80.6307 11.1537C80.5994 11.2157 81.2499 9.45451 81.6219 8.37334L82.1484 10.8757C82.1484 10.8757 83.575 17.8271 83.8848 19.279C82.7074 19.279 79.111 19.279 77.6229 19.279ZM86.9223 0.526367H81.095C79.298 0.526367 77.9327 1.05114 77.1574 2.93589L65.9671 29.5667H73.872C73.872 29.5667 75.1734 25.9824 75.4531 25.2105C76.3203 25.2105 84.0101 25.2105 85.1257 25.2105C85.3419 26.23 86.0246 29.5667 86.0246 29.5667H93L86.9223 0.526367Z" fill="#00579F"/>
<path d="M26.4739 0.526367L19.0959 20.3294L18.2897 16.3131C16.9257 11.6789 12.6478 6.64381 7.87393 4.14025L14.6318 29.5364H22.5985L34.4401 0.526367H26.4739Z" fill="#00579F"/>
<path d="M12.2449 0.526367H0.124002L0 1.11315C9.45507 3.52308 15.717 9.33215 18.2897 16.3144L15.6548 2.96751C15.221 1.11273 13.8878 0.58755 12.2449 0.526367Z" fill="#FAA61A"/>
</svg>
