<svg width="18" height="30" viewBox="0 0 18 30" fill="none" xmlns="http://www.w3.org/2000/svg">
<path d="M9.7873 19.8384C9.50701 19.8384 9.27303 20.0292 9.2076 20.287H7.84466L8.80857 19.3305C9.03851 19.4665 9.34007 19.4374 9.53825 19.2413C9.77169 19.0096 9.77169 18.6337 9.53825 18.4021C9.30508 18.1704 8.92597 18.1704 8.69249 18.4021C8.49459 18.599 8.46524 18.8982 8.60256 19.1261L7.63866 20.0826V18.7302C7.89848 18.665 8.09073 18.4331 8.09073 18.1549C8.09073 17.8274 7.82336 17.5615 7.49272 17.5615C7.16234 17.5615 6.89443 17.8268 6.89443 18.1549C6.89443 18.4331 7.08695 18.6652 7.34651 18.7302V20.0826L6.38261 19.1261C6.51993 18.8982 6.49031 18.599 6.29268 18.4021C6.0595 18.1704 5.68039 18.1704 5.44691 18.4021C5.21347 18.6337 5.21347 19.0096 5.44691 19.2413C5.64482 19.4377 5.94692 19.4668 6.1766 19.3305L7.1405 20.287H5.77757C5.71241 20.0292 5.47815 19.8384 5.19814 19.8384C4.86776 19.8384 4.59985 20.1037 4.59985 20.4321C4.59985 20.7596 4.86722 21.0255 5.19814 21.0255C5.47789 21.0255 5.71241 20.8347 5.77757 20.5769H7.1405L6.1766 21.5333C5.94693 21.3973 5.64509 21.4265 5.44691 21.6226C5.21347 21.8542 5.21347 22.2304 5.44691 22.4618C5.68036 22.6935 6.05947 22.6935 6.29268 22.4618C6.49058 22.2654 6.52047 21.9662 6.38261 21.7378L7.34651 20.7813V22.134C7.08722 22.1984 6.89443 22.4308 6.89443 22.7089C6.89443 23.0365 7.1618 23.3026 7.49272 23.3026C7.82283 23.3026 8.09073 23.0368 8.09073 22.7089C8.09073 22.4308 7.89848 22.1984 7.63866 22.134V20.7813L8.60256 21.7378C8.46551 21.9659 8.49486 22.2652 8.69249 22.4618C8.92593 22.6935 9.30504 22.6935 9.53825 22.4618C9.77169 22.2304 9.77169 21.8543 9.53825 21.6226C9.34035 21.4262 9.03878 21.3971 8.80857 21.5333L7.84466 20.5769H9.2076C9.2733 20.8347 9.50701 21.0255 9.7873 21.0255C10.1174 21.0255 10.3856 20.7602 10.3856 20.4321C10.3856 20.1037 10.1177 19.8384 9.7873 19.8384Z" fill="#004AB3"/>
<path d="M7.05376 12.8338C6.67304 12.8338 6.35427 13.0935 6.2659 13.4435H4.41261L5.72309 12.1426C6.03542 12.328 6.44574 12.2882 6.71422 12.0215C7.03194 11.7068 7.03194 11.1954 6.71422 10.8804C6.39703 10.5651 5.88197 10.5651 5.56421 10.8804C5.29522 11.1473 5.2551 11.5542 5.44197 11.8644L4.13149 13.1648V11.3258C4.48421 11.2376 4.74593 10.9213 4.74593 10.544C4.74593 10.0981 4.3819 9.73743 3.93305 9.73743C3.4842 9.73743 3.12017 10.0986 3.12017 10.544C3.12017 10.9213 3.38188 11.2374 3.73461 11.3258V13.1648L2.42413 11.8644C2.61099 11.5545 2.57087 11.1474 2.30189 10.8804C1.98417 10.5651 1.46936 10.5651 1.15187 10.8804C0.834152 11.1951 0.834152 11.7065 1.15187 12.0215C1.42086 12.2882 1.83094 12.3283 2.14301 12.1426L3.45349 13.4435H1.60074C1.51188 13.0935 1.19363 12.8338 0.812881 12.8338C0.364035 12.8338 0 13.1945 0 13.6404C0 14.0858 0.364028 14.4467 0.812881 14.4467C1.1936 14.4467 1.51189 14.1873 1.60074 13.837H3.45349L2.14328 15.1379C1.83067 14.9525 1.42063 14.9923 1.1516 15.259C0.833877 15.5742 0.833877 16.0851 1.1516 16.4001C1.46878 16.7148 1.98385 16.7148 2.30161 16.4001C2.57059 16.1332 2.61072 15.726 2.42385 15.4166L3.73433 14.1163V15.9553C3.38161 16.0429 3.11989 16.3592 3.11989 16.737C3.11989 17.1821 3.48392 17.5434 3.93277 17.5434C4.38162 17.5434 4.74565 17.1821 4.74565 16.737C4.74565 16.3592 4.48393 16.0429 4.13121 15.9553V14.1163L5.44169 15.4166C5.25537 15.7265 5.29495 16.1332 5.56393 16.4001C5.88111 16.7148 6.39618 16.7148 6.71394 16.4001C7.03166 16.0854 7.03166 15.5743 6.71394 15.259C6.44523 14.9921 6.03461 14.9517 5.72281 15.1377L4.41233 13.8368H6.26563C6.35394 14.1873 6.67274 14.4465 7.05349 14.4465C7.50233 14.4465 7.86637 14.0858 7.86637 13.6401C7.86691 13.1947 7.50288 12.8338 7.05376 12.8338V12.8338Z" fill="#004AB3"/>
<path d="M10.3858 5.71913H11.5237C11.5646 5.52676 11.6279 5.34295 11.7097 5.16901H10.3852L12.213 3.35492C12.6483 3.61381 13.2205 3.55797 13.5961 3.18552C14.0387 2.74629 14.0387 2.03344 13.5961 1.59392C13.1534 1.15469 12.4351 1.15469 11.9919 1.59392C11.6168 1.9661 11.5608 2.53384 11.8212 2.96638L9.99375 4.78V2.21565C10.4854 2.09275 10.8511 1.65191 10.8511 1.12534C10.8511 0.503621 10.343 0 9.717 0C9.09017 0 8.58291 0.503628 8.58291 1.12534C8.58291 1.65194 8.94775 2.09281 9.44025 2.21565V4.78082L7.61252 2.9672C7.87316 2.53518 7.81661 1.96717 7.44181 1.59475C6.99916 1.15551 6.28022 1.15551 5.83763 1.59475C5.39503 2.03398 5.39497 2.74683 5.83763 3.18635C6.21324 3.55852 6.78512 3.61463 7.22076 3.35574L9.04896 5.16983H6.46385C6.34026 4.68144 5.89572 4.31938 5.36505 4.31938C4.7385 4.31938 4.23096 4.82274 4.23096 5.44472C4.23096 6.06644 4.7385 6.57006 5.36505 6.57006C5.89575 6.57006 6.34005 6.20803 6.46385 5.71961H9.04896L7.22124 7.53322C6.78532 7.2746 6.21343 7.33017 5.83783 7.70262C5.39518 8.14239 5.39518 8.85524 5.83783 9.29469C6.28049 9.73393 6.99943 9.73393 7.44202 9.29469C7.81709 8.92198 7.8731 8.35451 7.61273 7.92197L9.44045 6.10835V8.67351C8.94826 8.79615 8.58311 9.23726 8.58311 9.76363C8.58311 10.3853 9.09039 10.8892 9.7172 10.8892C10.3432 10.8892 10.8513 10.3851 10.8513 9.76363C10.8513 9.23702 10.4862 8.79615 9.99395 8.67351V6.10835L11.4676 7.57116V6.79396L10.3858 5.71913Z" fill="#004AB3"/>
<path d="M14.8633 23.752V21.7166C14.8633 21.2608 14.491 20.8914 14.0316 20.8914C13.5723 20.8914 13.1999 21.2609 13.1999 21.7166V23.752C12.2435 24.0913 11.5591 24.9981 11.5591 26.0631C11.5591 27.4187 12.6662 28.5171 14.0319 28.5171C15.3981 28.5171 16.505 27.4185 16.505 26.0631C16.5048 24.9976 15.8198 24.0908 14.8634 23.752H14.8633Z" fill="#004AB3"/>
<path d="M14.0315 30C11.8441 30 10.064 28.234 10.064 26.0629C10.064 24.7404 10.7452 23.4978 11.854 22.7727V6.2459C11.854 5.05428 12.8308 4.08496 14.0317 4.08496C15.2326 4.08496 16.21 5.05428 16.21 6.2459V22.772C17.3185 23.4971 18 24.7395 18 26.0622C17.999 28.2336 16.2192 29.9996 14.0315 29.9996L14.0315 30ZM14.0315 4.7731C13.2132 4.7731 12.5468 5.43383 12.5468 6.24631V23.1609L12.3758 23.2608C11.3777 23.843 10.7576 24.9165 10.7576 26.063C10.7576 27.8546 12.2264 29.3118 14.0311 29.3118C15.8367 29.3118 17.3053 27.8544 17.3053 26.063C17.3053 24.9165 16.6855 23.8425 15.6868 23.2608L15.5161 23.1609V6.24631C15.5158 5.43382 14.85 4.7731 14.0314 4.7731H14.0315Z" fill="#004AB3"/>
</svg>
