<svg width="30" height="30" viewBox="0 0 30 30" fill="none" xmlns="http://www.w3.org/2000/svg">
<circle cx="15" cy="15" r="15" fill="#EBE7E1"/>
<path d="M15.056 8C14.098 8.00093 13.1794 8.38198 12.502 9.0595C11.8246 9.73703 11.4437 10.6557 11.4429 11.6137C11.4441 12.5716 11.8253 13.4899 12.5028 14.1671C13.1803 14.8442 14.0987 15.225 15.0566 15.2257C16.0143 15.2247 16.9325 14.8438 17.6097 14.1667C18.2869 13.4895 18.668 12.5714 18.6692 11.6137C18.6684 10.6558 18.2876 9.73721 17.6103 9.05971C16.933 8.3822 16.0146 8.00108 15.0566 8H15.056ZM15.056 10.1175C15.4528 10.1178 15.8332 10.2755 16.1137 10.5561C16.3942 10.8366 16.552 11.217 16.5523 11.6137C16.5517 12.0102 16.3939 12.3903 16.1135 12.6707C15.8332 12.951 15.4531 13.1088 15.0566 13.1094C14.66 13.1089 14.2798 12.9512 13.9993 12.6709C13.7189 12.3905 13.561 12.0103 13.5604 11.6137C13.5608 11.2171 13.7187 10.8369 13.9992 10.5565C14.2797 10.276 14.66 10.1184 15.0566 10.1181L15.056 10.1175ZM12.0268 15.35C11.8 15.3567 11.5813 15.4362 11.4031 15.5767C11.2248 15.7172 11.0965 15.9113 11.037 16.1303C10.9775 16.3493 10.99 16.5816 11.0727 16.793C11.1553 17.0044 11.3037 17.1836 11.496 17.3042C12.1415 17.7099 12.8509 18.0038 13.5942 18.1733L11.5747 20.1934C11.3812 20.393 11.2739 20.6607 11.2761 20.9387C11.2783 21.2167 11.3897 21.4827 11.5863 21.6792C11.7829 21.8758 12.049 21.9871 12.327 21.9891C12.605 21.9912 12.8726 21.8838 13.0721 21.6902L15.056 19.7052L17.0423 21.6902C17.1405 21.7884 17.2571 21.8663 17.3854 21.9195C17.5137 21.9726 17.6512 22 17.7901 22C17.929 22 18.0665 21.9726 18.1949 21.9195C18.3232 21.8663 18.4398 21.7884 18.538 21.6902C18.9521 21.2766 18.9521 20.6064 18.538 20.1934L16.5185 18.1739C17.2617 18.0045 17.9709 17.7106 18.6161 17.3047C18.7338 17.2307 18.8358 17.1343 18.9162 17.0209C18.9967 16.9075 19.054 16.7793 19.0849 16.6438C19.1158 16.5082 19.1197 16.3679 19.0963 16.2308C19.073 16.0938 19.0229 15.9627 18.9489 15.8449C18.8749 15.7272 18.7785 15.6253 18.665 15.5448C18.5516 15.4644 18.4235 15.4071 18.2879 15.3762C18.1524 15.3453 18.0121 15.3414 17.875 15.3647C17.738 15.3881 17.6068 15.4382 17.4891 15.5122C16.7597 15.9681 15.9168 16.2099 15.0566 16.2099C14.1964 16.2099 13.3535 15.9681 12.6241 15.5122C12.4386 15.3955 12.231 15.343 12.0268 15.35Z" fill="#004AB3"/>
</svg>
