<svg width="60" height="60" viewBox="0 0 60 60" fill="none" xmlns="http://www.w3.org/2000/svg">
<path d="M13.2866 25.2196H7.47361C5.81286 25.2196 4.56674 26.4862 4.56674 28.1758V34.0873C4.56674 35.7762 5.81218 37.0434 7.47361 37.0434H13.2866C14.9474 37.0434 16.1935 35.7769 16.1935 34.0873V28.1758C16.1935 26.6977 14.9475 25.2196 13.2866 25.2196ZM10.7951 36.4094H7.26555C6.02012 36.4094 5.18943 35.3538 5.18943 34.2981V28.3866C5.18943 27.1201 6.22749 26.2753 7.26555 26.2753H10.7951V36.4094ZM15.3627 34.2981C15.3627 35.5647 14.3247 36.4094 13.2866 36.4094H11.6259V31.976H15.3627V34.2981ZM15.3627 31.3426H11.4178V29.4421H15.3627V31.3426ZM15.3627 28.3865H11.4178V26.0643H13.2866C14.5321 26.0643 15.3627 27.12 15.3627 28.3865Z" fill="#004AB3"/>
<path d="M40.8991 25.2196C39.4457 25.2196 38.2003 25.642 37.1622 26.4862C36.1241 25.6414 34.8788 25.2196 33.4253 25.2196C30.1038 25.2196 27.4043 27.9642 27.4043 31.3427C27.4043 34.7205 30.1031 37.4659 33.4253 37.4659C34.8787 37.4659 36.1241 37.0435 37.1622 36.1993C38.2003 37.0441 39.4456 37.4659 40.8991 37.4659C44.2206 37.4659 46.9201 34.7213 46.9201 31.3427C46.7122 27.9643 44.0133 25.2196 40.8991 25.2196ZM40.8991 36.621C39.6536 36.621 38.4076 36.1986 37.3695 35.3545H37.1621H36.9548C35.9167 36.1992 34.8786 36.621 33.4252 36.621C30.5183 36.621 28.2349 34.2989 28.2349 31.3427C28.2349 28.3866 30.5183 26.0645 33.4252 26.0645C34.6706 26.0645 35.9167 26.4868 36.9548 27.331C37.1621 27.5419 37.3701 27.5419 37.3701 27.331C38.4082 26.4862 39.4462 26.0645 40.8997 26.0645C43.8065 26.0645 46.09 28.3866 46.09 31.3427C45.882 34.0873 43.5979 36.621 40.8991 36.621Z" fill="#004AB3"/>
<path d="M4.77451 48.022H12.4563C12.6637 48.022 12.8717 47.8111 12.8717 47.5996V44.8551C12.8717 44.6442 12.6643 44.4327 12.4563 44.4327H4.77451C4.56713 44.4327 4.35916 44.6436 4.35916 44.8551V47.5996C4.35916 47.8111 4.56654 48.022 4.77451 48.022ZM5.18927 45.2774H12.0403V47.1779H5.18927V45.2774Z" fill="#004AB3"/>
<path d="M15.778 48.022H23.4598C23.6671 48.022 23.8751 47.8111 23.8751 47.5996V44.8551C23.8751 44.6442 23.6677 44.4327 23.4598 44.4327H15.778C15.5706 44.4327 15.3626 44.6436 15.3626 44.8551V47.5996C15.57 47.8111 15.57 48.022 15.778 48.022ZM16.1933 45.2774H23.0444V47.1779H16.1933V45.2774Z" fill="#004AB3"/>
<path d="M26.989 48.022H34.6708C34.8782 48.022 35.0862 47.8111 35.0862 47.5996V44.8551C35.0862 44.6442 34.8788 44.4327 34.6708 44.4327H26.989C26.7817 44.4327 26.5737 44.6436 26.5737 44.8551V47.5996C26.5743 47.8111 26.7817 48.022 26.989 48.022ZM27.197 45.2774H34.0481V47.1779H27.197V45.2774Z" fill="#004AB3"/>
<path d="M37.9925 48.022H45.6743C45.8817 48.022 46.0896 47.8111 46.0896 47.5996V44.8551C46.0896 44.6442 45.8823 44.4327 45.6743 44.4327H37.9925C37.7851 44.4327 37.5771 44.6436 37.5771 44.8551V47.5996C37.5771 47.8111 37.7845 48.022 37.9925 48.022ZM38.4073 45.2774H45.2583V47.1779H38.4073V45.2774Z" fill="#004AB3"/>
<path d="M45.6741 50.1331H30.5184C30.3111 50.1331 30.1031 50.344 30.1031 50.5555C30.1031 50.7664 30.3105 50.9779 30.5184 50.9779H45.6741C45.8815 50.9779 46.0895 50.767 46.0895 50.5555C45.8821 50.3446 45.8821 50.1331 45.6741 50.1331Z" fill="#004AB3"/>
<path d="M55.0167 0H14.5323C11.8335 0 9.5493 2.32214 9.5493 5.06745V6.75635L9.54988 17.1969V18.2525H5.19031C2.28344 18.2525 0 20.5747 0 23.5308V54.7217C0 57.6779 2.28344 60 5.19031 60H45.4671C48.374 60 50.6574 57.6779 50.6574 54.7217L50.6574 39.3655H55.017C57.7158 39.3655 60 37.0434 60 34.2981V5.48911C59.9994 2.32275 57.7161 0 55.0167 0ZM49.8264 54.5104C49.8264 57.0442 47.9576 58.9439 45.4669 58.9439L5.39764 58.9445C2.90614 58.9445 1.03808 57.044 1.03808 54.511L1.0375 42.5328H49.8264L49.8264 54.5104ZM49.8264 41.6879H1.03748V23.5307C1.03748 20.9969 2.90629 19.0972 5.39705 19.0972H45.6739C48.1654 19.0972 50.0334 20.9977 50.0334 23.5307L50.034 41.6879H49.8264ZM49.619 20.5748H55.8474C56.2628 20.5748 56.4701 20.7857 56.4701 21.2081V23.3194C56.4701 23.7418 56.2628 23.9527 55.8474 23.9527L50.6571 23.9533V23.5309C50.6571 22.2643 50.2418 21.4196 49.619 20.5748ZM50.6571 30.7096H56.4701V32.1876L50.6571 32.187V30.7096ZM59.1689 34.0874C59.1689 36.4095 57.3001 38.31 55.0167 38.31H50.6571V32.8209H56.8855C57.0928 32.8209 57.3008 32.61 57.3008 32.3985V30.0764C57.3008 29.8655 57.0934 29.654 56.8855 29.654H50.6571V24.5865H55.8474C56.6781 24.5865 57.3008 23.9532 57.3008 23.1085V20.9972C57.3008 20.1524 56.6781 19.5191 55.8474 19.5191H48.9964C48.1657 18.6744 46.9202 18.0411 45.4668 18.0411L10.3803 18.0417V17.1969H59.1692L59.1689 34.0874ZM59.1689 16.7746H10.38V7.38975H59.1689V16.7746ZM59.1689 6.54552H10.38V5.06748C10.38 2.74534 12.2488 0.844858 14.5322 0.844858H55.0167C57.3001 0.844858 59.1689 2.74534 59.1689 5.06748V6.54552Z" fill="#004AB3"/>
<circle cx="33" cy="31" r="6" fill="#004AB3"/>
<circle cx="41" cy="31" r="6" fill="#004AB3"/>
<path d="M10 6C10 2.68629 12.6863 0 16 0H54C57.3137 0 60 2.68629 60 6V7H10V6Z" fill="#004AB3"/>
<line x1="10" y1="16.7" x2="60" y2="16.7" stroke="#004AB3" stroke-width="0.6"/>
</svg>
