<svg width="180" height="100" viewBox="0 0 180 100" fill="none" xmlns="http://www.w3.org/2000/svg">
<path d="M33.1312 89.8448C32.7271 89.8448 32.3366 89.7801 31.9595 89.6508C31.5824 89.515 31.2491 89.3081 30.9596 89.0301C30.67 88.752 30.4377 88.3964 30.2626 87.9632C30.0875 87.5299 30 87.0094 30 86.4016V86.2076C30 85.6257 30.0875 85.1245 30.2626 84.7042C30.4377 84.2839 30.67 83.938 30.9596 83.6664C31.2491 83.3884 31.5824 83.1847 31.9595 83.0554C32.3366 82.9261 32.7271 82.8614 33.1312 82.8614C33.5352 82.8614 33.9257 82.9261 34.3028 83.0554C34.6799 83.1847 35.0132 83.3884 35.3028 83.6664C35.5923 83.938 35.8246 84.2839 35.9997 84.7042C36.1748 85.1245 36.2623 85.6257 36.2623 86.2076V86.4016C36.2623 87.0094 36.1748 87.5299 35.9997 87.9632C35.8246 88.3964 35.5923 88.752 35.3028 89.0301C35.0132 89.3081 34.6799 89.515 34.3028 89.6508C33.9257 89.7801 33.5352 89.8448 33.1312 89.8448ZM33.1312 89.0301C33.4072 89.0301 33.6732 88.9816 33.9291 88.8846C34.185 88.7876 34.4106 88.6356 34.6058 88.4287C34.8011 88.2153 34.956 87.9438 35.0705 87.614C35.1917 87.2778 35.2523 86.8736 35.2523 86.4016V86.2076C35.2523 85.7614 35.1917 85.3799 35.0705 85.0631C34.956 84.7398 34.8011 84.4779 34.6058 84.2775C34.4106 84.0706 34.185 83.9186 33.9291 83.8216C33.6732 83.7246 33.4072 83.6761 33.1312 83.6761C32.8551 83.6761 32.5891 83.7246 32.3332 83.8216C32.0773 83.9186 31.8518 84.0706 31.6565 84.2775C31.4612 84.4779 31.303 84.7398 31.1818 85.0631C31.0673 85.3799 31.0101 85.7614 31.0101 86.2076V86.4016C31.0101 86.8736 31.0673 87.2778 31.1818 87.614C31.303 87.9438 31.4612 88.2153 31.6565 88.4287C31.8518 88.6356 32.0773 88.7876 32.3332 88.8846C32.5891 88.9816 32.8551 89.0301 33.1312 89.0301Z" fill="white"/>
<path d="M37.7798 82.9584H42.3755V83.744H38.7292V85.6742H40.3049C40.7695 85.6742 41.1736 85.7227 41.517 85.8196C41.8604 85.9166 42.1432 86.0557 42.3654 86.2367C42.5944 86.4178 42.7627 86.6344 42.8704 86.8866C42.9782 87.1323 43.0321 87.4071 43.0321 87.711C43.0321 88.0149 42.9782 88.2929 42.8704 88.5451C42.7627 88.7908 42.5944 89.0042 42.3654 89.1853C42.1432 89.3663 41.8604 89.5053 41.517 89.6023C41.1736 89.6993 40.7695 89.7478 40.3049 89.7478H37.7798V82.9584ZM40.2544 88.9525C40.9278 88.9525 41.3991 88.8458 41.6685 88.6324C41.9446 88.4126 42.0826 88.1054 42.0826 87.711C42.0826 87.3165 41.9446 87.0126 41.6685 86.7993C41.3991 86.5794 40.9278 86.4695 40.2544 86.4695H38.7292V88.9525H40.2544Z" fill="white"/>
<path d="M44.396 82.9584H45.3455V88.9525H47.81V82.9584H48.7594V88.9525H51.224V82.9584H52.1734V88.9525H53.133V91.0087H52.2239V89.7478H44.396V82.9584Z" fill="white"/>
<path d="M54.3462 82.9584H58.8915V83.7537H55.2957V85.8584H58.5885V86.6538H55.2957V88.9525H58.8915V89.7478H54.3462V82.9584Z" fill="white"/>
<path d="M62.9364 89.8448C62.5391 89.8448 62.162 89.7801 61.8052 89.6508C61.4483 89.515 61.1318 89.3081 60.8557 89.0301C60.5796 88.7456 60.3608 88.3867 60.1992 87.9535C60.0376 87.5202 59.9568 87.0029 59.9568 86.4016V86.2076C59.9568 85.6257 60.0376 85.1245 60.1992 84.7042C60.3608 84.2839 60.5796 83.938 60.8557 83.6664C61.1318 83.3949 61.4483 83.1944 61.8052 83.0651C62.162 82.9293 62.5391 82.8614 62.9364 82.8614C63.3202 82.8614 63.6704 82.9099 63.9869 83.0069C64.3101 83.1039 64.5929 83.2429 64.8353 83.4239C65.0777 83.605 65.273 83.8281 65.4211 84.0932C65.576 84.3583 65.6737 84.659 65.7141 84.9952H64.704C64.6097 84.5555 64.4111 84.2257 64.1081 84.0059C63.8051 83.7861 63.4145 83.6761 62.9364 83.6761C62.6873 83.6761 62.4449 83.7214 62.2092 83.8119C61.9735 83.9024 61.7614 84.0479 61.5728 84.2484C61.391 84.4424 61.2429 84.701 61.1284 85.0243C61.0207 85.3476 60.9668 85.7421 60.9668 86.2076V86.4016C60.9668 86.893 61.0274 87.3069 61.1486 87.6431C61.2698 87.9729 61.4247 88.2412 61.6132 88.4481C61.8018 88.655 62.0139 88.8038 62.2496 88.8943C62.4853 88.9848 62.7142 89.0301 62.9364 89.0301C63.4616 89.0301 63.8724 88.9072 64.1687 88.6615C64.465 88.4158 64.6434 88.0989 64.704 87.711H65.7141C65.6602 88.086 65.5525 88.4093 65.3908 88.6809C65.2292 88.946 65.0239 89.1659 64.7747 89.3404C64.5323 89.515 64.2528 89.6444 63.9364 89.7284C63.6266 89.806 63.2933 89.8448 62.9364 89.8448Z" fill="white"/>
<path d="M68.5741 83.7537H66.1197V82.9584H71.978V83.7537H69.5235V89.7478H68.5741V83.7537Z" fill="white"/>
<path d="M73.0902 82.9584H75.6153C76.0396 82.9584 76.4032 83.0037 76.7062 83.0942C77.0092 83.1847 77.2584 83.3108 77.4536 83.4724C77.6557 83.6276 77.8038 83.8184 77.8981 84.0447C77.9923 84.2645 78.0395 84.507 78.0395 84.7721C78.0395 85.1213 77.9385 85.422 77.7365 85.6742C77.5344 85.9199 77.2853 86.0977 76.989 86.2076C77.4065 86.2981 77.7365 86.4824 77.9789 86.7605C78.2213 87.032 78.3425 87.3877 78.3425 87.8274C78.3425 88.1054 78.2953 88.3608 78.2011 88.5936C78.1068 88.8264 77.9587 89.0301 77.7567 89.2047C77.5546 89.3728 77.292 89.5053 76.9688 89.6023C76.6523 89.6993 76.2685 89.7478 75.8174 89.7478H73.0902V82.9584ZM75.8174 88.9525C76.1204 88.9525 76.3729 88.9266 76.5749 88.8749C76.7769 88.8167 76.9385 88.7391 77.0597 88.6421C77.1809 88.5386 77.2651 88.4158 77.3122 88.2735C77.3661 88.1313 77.393 87.9729 77.393 87.7983C77.393 87.6237 77.3661 87.4653 77.3122 87.323C77.2651 87.1743 77.1809 87.0514 77.0597 86.9544C76.9385 86.851 76.7735 86.7734 76.5648 86.7217C76.3628 86.6635 76.1103 86.6344 75.8073 86.6344H74.0397V88.9525H75.8174ZM75.6153 85.8778C75.8982 85.8778 76.1338 85.852 76.3224 85.8002C76.5109 85.7485 76.6624 85.6742 76.7769 85.5772C76.8914 85.4802 76.9722 85.367 77.0193 85.2377C77.0665 85.1084 77.09 84.9661 77.09 84.8109C77.09 84.6557 77.0665 84.5135 77.0193 84.3842C76.9722 84.2484 76.8914 84.1352 76.7769 84.0447C76.6624 83.9542 76.5109 83.883 76.3224 83.8313C76.1338 83.7796 75.8982 83.7537 75.6153 83.7537H74.0397V85.8778H75.6153Z" fill="white"/>
<path d="M82.3843 89.8448C81.9803 89.8448 81.5897 89.7801 81.2126 89.6508C80.8355 89.515 80.5022 89.3081 80.2127 89.0301C79.9231 88.752 79.6908 88.3964 79.5157 87.9632C79.3406 87.5299 79.2531 87.0094 79.2531 86.4016V86.2076C79.2531 85.6257 79.3406 85.1245 79.5157 84.7042C79.6908 84.2839 79.9231 83.938 80.2127 83.6664C80.5022 83.3884 80.8355 83.1847 81.2126 83.0554C81.5897 82.9261 81.9803 82.8614 82.3843 82.8614C82.7883 82.8614 83.1789 82.9261 83.5559 83.0554C83.933 83.1847 84.2663 83.3884 84.5559 83.6664C84.8454 83.938 85.0777 84.2839 85.2528 84.7042C85.4279 85.1245 85.5154 85.6257 85.5154 86.2076V86.4016C85.5154 87.0094 85.4279 87.5299 85.2528 87.9632C85.0777 88.3964 84.8454 88.752 84.5559 89.0301C84.2663 89.3081 83.933 89.515 83.5559 89.6508C83.1789 89.7801 82.7883 89.8448 82.3843 89.8448ZM82.3843 89.0301C82.6604 89.0301 82.9263 88.9816 83.1822 88.8846C83.4381 88.7876 83.6637 88.6356 83.859 88.4287C84.0542 88.2153 84.2091 87.9438 84.3236 87.614C84.4448 87.2778 84.5054 86.8736 84.5054 86.4016V86.2076C84.5054 85.7614 84.4448 85.3799 84.3236 85.0631C84.2091 84.7398 84.0542 84.4779 83.859 84.2775C83.6637 84.0706 83.4381 83.9186 83.1822 83.8216C82.9263 83.7246 82.6604 83.6761 82.3843 83.6761C82.1082 83.6761 81.8422 83.7246 81.5863 83.8216C81.3305 83.9186 81.1049 84.0706 80.9096 84.2775C80.7143 84.4779 80.5561 84.7398 80.4349 85.0631C80.3204 85.3799 80.2632 85.7614 80.2632 86.2076V86.4016C80.2632 86.8736 80.3204 87.2778 80.4349 87.614C80.5561 87.9438 80.7143 88.2153 80.9096 88.4287C81.1049 88.6356 81.3305 88.7876 81.5863 88.8846C81.8422 88.9816 82.1082 89.0301 82.3843 89.0301Z" fill="white"/>
<path d="M92.0326 89.8448C91.6354 89.8448 91.2583 89.7801 90.9014 89.6508C90.5445 89.515 90.228 89.3081 89.9519 89.0301C89.6759 88.7456 89.457 88.3867 89.2954 87.9535C89.1338 87.5202 89.053 87.0029 89.053 86.4016V86.2076C89.053 85.6257 89.1338 85.1245 89.2954 84.7042C89.457 84.2839 89.6759 83.938 89.9519 83.6664C90.228 83.3949 90.5445 83.1944 90.9014 83.0651C91.2583 82.9293 91.6354 82.8614 92.0326 82.8614C92.4165 82.8614 92.7666 82.9099 93.0831 83.0069C93.4063 83.1039 93.6891 83.2429 93.9316 83.4239C94.174 83.605 94.3692 83.8281 94.5174 84.0932C94.6723 84.3583 94.7699 84.659 94.8103 84.9952H93.8002C93.706 84.5555 93.5073 84.2257 93.2043 84.0059C92.9013 83.7861 92.5107 83.6761 92.0326 83.6761C91.7835 83.6761 91.5411 83.7214 91.3054 83.8119C91.0697 83.9024 90.8576 84.0479 90.6691 84.2484C90.4873 84.4424 90.3391 84.701 90.2247 85.0243C90.1169 85.3476 90.063 85.7421 90.063 86.2076V86.4016C90.063 86.893 90.1236 87.3069 90.2449 87.6431C90.3661 87.9729 90.5209 88.2412 90.7095 88.4481C90.898 88.655 91.1101 88.8038 91.3458 88.8943C91.5815 88.9848 91.8104 89.0301 92.0326 89.0301C92.5579 89.0301 92.9686 88.9072 93.2649 88.6615C93.5612 88.4158 93.7396 88.0989 93.8002 87.711H94.8103C94.7564 88.086 94.6487 88.4093 94.4871 88.6809C94.3255 88.946 94.1201 89.1659 93.8709 89.3404C93.6285 89.515 93.3491 89.6444 93.0326 89.7284C92.7229 89.806 92.3895 89.8448 92.0326 89.8448Z" fill="white"/>
<path d="M101.372 89.8448C100.968 89.8448 100.578 89.7801 100.201 89.6508C99.8237 89.515 99.4904 89.3081 99.2009 89.0301C98.9113 88.752 98.679 88.3964 98.5039 87.9632C98.3289 87.5299 98.2413 87.0094 98.2413 86.4016V86.2076C98.2413 85.6257 98.3289 85.1245 98.5039 84.7042C98.679 84.2839 98.9113 83.938 99.2009 83.6664C99.4904 83.3884 99.8237 83.1847 100.201 83.0554C100.578 82.9261 100.968 82.8614 101.372 82.8614C101.777 82.8614 102.167 82.9261 102.544 83.0554C102.921 83.1847 103.255 83.3884 103.544 83.6664C103.834 83.938 104.066 84.2839 104.241 84.7042C104.416 85.1245 104.504 85.6257 104.504 86.2076V86.4016C104.504 87.0094 104.416 87.5299 104.241 87.9632C104.066 88.3964 103.834 88.752 103.544 89.0301C103.255 89.3081 102.921 89.515 102.544 89.6508C102.167 89.7801 101.777 89.8448 101.372 89.8448ZM101.372 89.0301C101.649 89.0301 101.915 88.9816 102.17 88.8846C102.426 88.7876 102.652 88.6356 102.847 88.4287C103.042 88.2153 103.197 87.9438 103.312 87.614C103.433 87.2778 103.494 86.8736 103.494 86.4016V86.2076C103.494 85.7614 103.433 85.3799 103.312 85.0631C103.197 84.7398 103.042 84.4779 102.847 84.2775C102.652 84.0706 102.426 83.9186 102.17 83.8216C101.915 83.7246 101.649 83.6761 101.372 83.6761C101.096 83.6761 100.83 83.7246 100.575 83.8216C100.319 83.9186 100.093 84.0706 99.8978 84.2775C99.7025 84.4779 99.5443 84.7398 99.4231 85.0631C99.3086 85.3799 99.2514 85.7614 99.2514 86.2076V86.4016C99.2514 86.8736 99.3086 87.2778 99.4231 87.614C99.5443 87.9438 99.7025 88.2153 99.8978 88.4287C100.093 88.6356 100.319 88.7876 100.575 88.8846C100.83 88.9816 101.096 89.0301 101.372 89.0301Z" fill="white"/>
<path d="M106.021 82.9584H110.465V83.7537H106.971V89.7478H106.021V82.9584Z" fill="white"/>
<path d="M111.572 82.9584H113.996C114.461 82.9584 114.865 83.0101 115.208 83.1136C115.552 83.217 115.834 83.3625 116.057 83.55C116.286 83.7311 116.454 83.9509 116.562 84.2096C116.669 84.4618 116.723 84.7398 116.723 85.0437C116.723 85.3476 116.669 85.6289 116.562 85.8875C116.454 86.1397 116.286 86.3596 116.057 86.5471C115.834 86.7281 115.552 86.8704 115.208 86.9738C114.865 87.0773 114.461 87.129 113.996 87.129H112.521V89.7478H111.572V82.9584ZM113.946 86.3337C114.282 86.3337 114.565 86.3046 114.794 86.2464C115.03 86.1817 115.218 86.0945 115.36 85.9845C115.508 85.8746 115.612 85.7388 115.673 85.5772C115.74 85.4155 115.774 85.2377 115.774 85.0437C115.774 84.8497 115.74 84.6719 115.673 84.5103C115.612 84.3486 115.508 84.2128 115.36 84.1029C115.218 83.993 115.03 83.9089 114.794 83.8507C114.565 83.7861 114.282 83.7537 113.946 83.7537H112.521V86.3337H113.946Z" fill="white"/>
<path d="M121.129 88.0602H118.139L117.463 89.7478H116.473L119.18 82.9584H120.129L122.836 89.7478H121.806L121.129 88.0602ZM118.452 87.2648H120.816L119.634 84.1223L118.452 87.2648Z" fill="white"/>
<path d="M123.946 82.9584H124.896V85.8584H128.653V82.9584H129.603V89.7478H128.653V86.6538H124.896V89.7478H123.946V82.9584Z" fill="white"/>
<path d="M131.519 82.9584H132.469V88.2929L136.226 82.9584H137.176V89.7478H136.226V84.4133L132.469 89.7478H131.519V82.9584Z" fill="white"/>
<path d="M142.89 86.7605C142.715 86.8704 142.469 86.9706 142.153 87.0611C141.836 87.1517 141.473 87.1969 141.062 87.1969C140.234 87.1969 139.631 87.0191 139.254 86.6635C138.877 86.3014 138.688 85.7291 138.688 84.9467V82.9584H139.638V84.9467C139.638 85.4575 139.756 85.8261 139.991 86.0524C140.227 86.2723 140.618 86.3822 141.163 86.3822C141.581 86.3822 141.927 86.3337 142.203 86.2367C142.486 86.1397 142.715 86.0363 142.89 85.9263V82.9584H143.84V89.7478H142.89V86.7605Z" fill="white"/>
<path d="M145.758 82.9584H150.303V83.7537H146.707V85.8584H150V86.6538H146.707V88.9525H150.303V89.7478H145.758V82.9584Z" fill="white"/>
<path d="M151.822 82.9584H152.771V85.8584H156.529V82.9584H157.478V89.7478H156.529V86.6538H152.771V89.7478H151.822V82.9584Z" fill="white"/>
<path d="M159.395 82.9584H160.344V85.8584H164.102V82.9584H165.051V89.7478H164.102V86.6538H160.344V89.7478H159.395V82.9584Z" fill="white"/>
<path d="M169.695 89.8448C169.291 89.8448 168.901 89.7801 168.523 89.6508C168.146 89.515 167.813 89.3081 167.523 89.0301C167.234 88.752 167.002 88.3964 166.827 87.9632C166.651 87.5299 166.564 87.0094 166.564 86.4016V86.2076C166.564 85.6257 166.651 85.1245 166.827 84.7042C167.002 84.2839 167.234 83.938 167.523 83.6664C167.813 83.3884 168.146 83.1847 168.523 83.0554C168.901 82.9261 169.291 82.8614 169.695 82.8614C170.099 82.8614 170.49 82.9261 170.867 83.0554C171.244 83.1847 171.577 83.3884 171.867 83.6664C172.156 83.938 172.389 84.2839 172.564 84.7042C172.739 85.1245 172.826 85.6257 172.826 86.2076V86.4016C172.826 87.0094 172.739 87.5299 172.564 87.9632C172.389 88.3964 172.156 88.752 171.867 89.0301C171.577 89.3081 171.244 89.515 170.867 89.6508C170.49 89.7801 170.099 89.8448 169.695 89.8448ZM169.695 89.0301C169.971 89.0301 170.237 88.9816 170.493 88.8846C170.749 88.7876 170.974 88.6356 171.17 88.4287C171.365 88.2153 171.52 87.9438 171.634 87.614C171.756 87.2778 171.816 86.8736 171.816 86.4016V86.2076C171.816 85.7614 171.756 85.3799 171.634 85.0631C171.52 84.7398 171.365 84.4779 171.17 84.2775C170.974 84.0706 170.749 83.9186 170.493 83.8216C170.237 83.7246 169.971 83.6761 169.695 83.6761C169.419 83.6761 169.153 83.7246 168.897 83.8216C168.641 83.9186 168.416 84.0706 168.22 84.2775C168.025 84.4779 167.867 84.7398 167.746 85.0631C167.631 85.3799 167.574 85.7614 167.574 86.2076V86.4016C167.574 86.8736 167.631 87.2778 167.746 87.614C167.867 87.9438 168.025 88.2153 168.22 88.4287C168.416 88.6356 168.641 88.7876 168.897 88.8846C169.153 88.9816 169.419 89.0301 169.695 89.0301Z" fill="white"/>
<path d="M174.344 82.9584H175.293V88.2929L179.051 82.9584H180V89.7478H179.051V84.4133L175.293 89.7478H174.344V82.9584ZM177.172 82.4734C176.599 82.4734 176.169 82.3506 175.879 82.1049C175.596 81.8591 175.455 81.497 175.455 81.0186H176.344C176.344 81.316 176.414 81.5294 176.556 81.6587C176.697 81.788 176.902 81.8527 177.172 81.8527C177.448 81.8527 177.657 81.788 177.798 81.6587C177.946 81.5294 178.02 81.316 178.02 81.0186H178.889C178.889 81.497 178.744 81.8591 178.455 82.1049C178.172 82.3506 177.744 82.4734 177.172 82.4734Z" fill="white"/>
<path d="M33.0761 99.9999C32.6792 99.9999 32.2955 99.9352 31.925 99.8057C31.5546 99.6697 31.2271 99.4625 30.9427 99.1841C30.6582 98.9056 30.43 98.5495 30.258 98.1157C30.086 97.6819 30 97.1606 30 96.5519V96.3577C30 95.7749 30.086 95.2731 30.258 94.8522C30.43 94.4314 30.6582 94.0849 30.9427 93.813C31.2271 93.5346 31.5546 93.3306 31.925 93.2011C32.2955 93.0716 32.6792 93.0068 33.0761 93.0068C33.473 93.0068 33.8567 93.0716 34.2271 93.2011C34.5976 93.3306 34.925 93.5346 35.2095 93.813C35.4939 94.0849 35.7221 94.4314 35.8941 94.8522C36.0661 95.2731 36.1521 95.7749 36.1521 96.3577V96.5519C36.1521 97.1606 36.0661 97.6819 35.8941 98.1157C35.7221 98.5495 35.4939 98.9056 35.2095 99.1841C34.925 99.4625 34.5976 99.6697 34.2271 99.8057C33.8567 99.9352 33.473 99.9999 33.0761 99.9999ZM33.0761 99.1841C33.3473 99.1841 33.6086 99.1355 33.86 99.0384C34.1113 98.9413 34.333 98.7891 34.5248 98.5819C34.7166 98.3682 34.8688 98.0963 34.9812 97.766C35.1003 97.4293 35.1599 97.0246 35.1599 96.5519V96.3577C35.1599 95.9109 35.1003 95.5289 34.9812 95.2116C34.8688 94.8879 34.7166 94.6256 34.5248 94.4249C34.333 94.2177 34.1113 94.0655 33.86 93.9684C33.6086 93.8713 33.3473 93.8227 33.0761 93.8227C32.8048 93.8227 32.5435 93.8713 32.2922 93.9684C32.0408 94.0655 31.8192 94.2177 31.6273 94.4249C31.4355 94.6256 31.28 94.8879 31.161 95.2116C31.0485 95.5289 30.9923 95.9109 30.9923 96.3577V96.5519C30.9923 97.0246 31.0485 97.4293 31.161 97.766C31.28 98.0963 31.4355 98.3682 31.6273 98.5819C31.8192 98.7891 32.0408 98.9413 32.2922 99.0384C32.5435 99.1355 32.8048 99.1841 33.0761 99.1841Z" fill="white"/>
<path d="M42.6387 93.9004H40.2274V93.104H45.9827V93.9004H43.5714V99.9028H42.6387V93.9004Z" fill="white"/>
<path d="M50.6475 93.104H53.1282C53.545 93.104 53.9022 93.1493 54.1999 93.2399C54.4976 93.3306 54.7423 93.4569 54.9342 93.6187C55.1326 93.7741 55.2782 93.9652 55.3708 94.1918C55.4634 94.4119 55.5097 94.6547 55.5097 94.9202C55.5097 95.2699 55.4105 95.571 55.212 95.8235C55.0136 96.0696 54.7688 96.2476 54.4777 96.3577C54.8879 96.4483 55.212 96.6329 55.4502 96.9113C55.6883 97.1833 55.8074 97.5394 55.8074 97.9797C55.8074 98.2581 55.7611 98.5139 55.6685 98.747C55.5759 98.9801 55.4303 99.1841 55.2319 99.3589C55.0334 99.5273 54.7754 99.66 54.4579 99.7571C54.147 99.8542 53.7699 99.9028 53.3267 99.9028H50.6475V93.104ZM53.3267 99.1064C53.6244 99.1064 53.8724 99.0805 54.0709 99.0287C54.2694 98.9704 54.4281 98.8927 54.5472 98.7956C54.6663 98.692 54.749 98.5689 54.7953 98.4265C54.8482 98.284 54.8746 98.1254 54.8746 97.9506C54.8746 97.7757 54.8482 97.6171 54.7953 97.4747C54.749 97.3257 54.6663 97.2027 54.5472 97.1056C54.4281 97.002 54.266 96.9243 54.061 96.8725C53.8625 96.8142 53.6145 96.7851 53.3168 96.7851H51.5803V99.1064H53.3267ZM53.1282 96.0275C53.4061 96.0275 53.6376 96.0016 53.8228 95.9498C54.0081 95.898 54.1569 95.8235 54.2694 95.7264C54.3818 95.6292 54.4612 95.5159 54.5075 95.3864C54.5538 95.2569 54.577 95.1145 54.577 94.9591C54.577 94.8037 54.5538 94.6612 54.5075 94.5317C54.4612 94.3957 54.3818 94.2824 54.2694 94.1918C54.1569 94.1011 54.0081 94.0299 53.8228 93.9781C53.6376 93.9263 53.4061 93.9004 53.1282 93.9004H51.5803V96.0275H53.1282Z" fill="white"/>
<path d="M60.768 93.104H65.2333V93.9004H61.7008V96.008H64.9356V96.8045H61.7008V99.1064H65.2333V99.9028H60.768V93.104Z" fill="white"/>
<path d="M72.0117 93.9004H69.6005V93.104H75.3557V93.9004H72.9444V99.9028H72.0117V93.9004Z" fill="white"/>
<path d="M82.357 99.9999C81.9668 99.9999 81.5963 99.9352 81.2457 99.8057C80.8951 99.6697 80.5842 99.4625 80.313 99.1841C80.0417 98.8992 79.8267 98.5398 79.668 98.106C79.5092 97.6721 79.4298 97.1541 79.4298 96.5519V96.3577C79.4298 95.7749 79.5092 95.2731 79.668 94.8522C79.8267 94.4314 80.0417 94.0849 80.313 93.813C80.5842 93.541 80.8951 93.3403 81.2457 93.2108C81.5963 93.0748 81.9668 93.0068 82.357 93.0068C82.7341 93.0068 83.0781 93.0554 83.389 93.1525C83.7066 93.2497 83.9844 93.3889 84.2225 93.5702C84.4607 93.7515 84.6525 93.9749 84.7981 94.2403C84.9502 94.5058 85.0461 94.8069 85.0858 95.1436H84.0935C84.0009 94.7033 83.8058 94.3731 83.5081 94.1529C83.2104 93.9328 82.8267 93.8227 82.357 93.8227C82.1123 93.8227 81.8741 93.868 81.6426 93.9587C81.4111 94.0493 81.2027 94.195 81.0175 94.3957C80.8389 94.59 80.6933 94.849 80.5809 95.1728C80.475 95.4965 80.4221 95.8915 80.4221 96.3577V96.5519C80.4221 97.0441 80.4816 97.4585 80.6007 97.7952C80.7198 98.1254 80.8719 98.3941 81.0572 98.6013C81.2424 98.8085 81.4508 98.9574 81.6823 99.0481C81.9138 99.1388 82.1387 99.1841 82.357 99.1841C82.873 99.1841 83.2766 99.061 83.5676 98.815C83.8587 98.5689 84.034 98.2517 84.0935 97.8632H85.0858C85.0329 98.2387 84.9271 98.5625 84.7683 98.8344C84.6095 99.0999 84.4078 99.3201 84.163 99.4949C83.9249 99.6697 83.6503 99.7992 83.3394 99.8834C83.0351 99.9611 82.7077 99.9999 82.357 99.9999Z" fill="white"/>
<path d="M90.0441 93.104H92.5248C92.9416 93.104 93.2988 93.1493 93.5965 93.2399C93.8942 93.3306 94.1389 93.4569 94.3308 93.6187C94.5292 93.7741 94.6747 93.9652 94.7674 94.1918C94.86 94.4119 94.9063 94.6547 94.9063 94.9202C94.9063 95.2699 94.807 95.571 94.6086 95.8235C94.4101 96.0696 94.1654 96.2476 93.8743 96.3577C94.2844 96.4483 94.6086 96.6329 94.8467 96.9113C95.0849 97.1833 95.204 97.5394 95.204 97.9797C95.204 98.2581 95.1577 98.5139 95.065 98.747C94.9724 98.9801 94.8269 99.1841 94.6284 99.3589C94.43 99.5273 94.172 99.66 93.8545 99.7571C93.5435 99.8542 93.1665 99.9028 92.7233 99.9028H90.0441V93.104ZM92.7233 99.1064C93.0209 99.1064 93.269 99.0805 93.4675 99.0287C93.6659 98.9704 93.8247 98.8927 93.9438 98.7956C94.0628 98.692 94.1455 98.5689 94.1918 98.4265C94.2448 98.284 94.2712 98.1254 94.2712 97.9506C94.2712 97.7757 94.2448 97.6171 94.1918 97.4747C94.1455 97.3257 94.0628 97.2027 93.9438 97.1056C93.8247 97.002 93.6626 96.9243 93.4576 96.8725C93.2591 96.8142 93.011 96.7851 92.7133 96.7851H90.9769V99.1064H92.7233ZM92.5248 96.0275C92.8026 96.0275 93.0342 96.0016 93.2194 95.9498C93.4046 95.898 93.5535 95.8235 93.6659 95.7264C93.7784 95.6292 93.8578 95.5159 93.9041 95.3864C93.9504 95.2569 93.9735 95.1145 93.9735 94.9591C93.9735 94.8037 93.9504 94.6612 93.9041 94.5317C93.8578 94.3957 93.7784 94.2824 93.6659 94.1918C93.5535 94.1011 93.4046 94.0299 93.2194 93.9781C93.0342 93.9263 92.8026 93.9004 92.5248 93.9004H90.9769V96.0275H92.5248Z" fill="white"/>
<path d="M100.165 93.104H104.63V93.9004H101.097V96.008H104.332V96.8045H101.097V99.1064H104.63V99.9028H100.165V93.104Z" fill="white"/>
<path d="M109.694 93.104H110.627V96.008H114.318V93.104H115.251V99.9028H114.318V96.8045H110.627V99.9028H109.694V93.104Z" fill="white"/>
<path d="M120.706 93.104H121.639V96.008H125.33V93.104H126.263V99.9028H125.33V96.8045H121.639V99.9028H120.706V93.104Z" fill="white"/>
<path d="M134.397 99.9999C134 99.9999 133.616 99.9352 133.246 99.8057C132.876 99.6697 132.548 99.4625 132.264 99.1841C131.979 98.9056 131.751 98.5495 131.579 98.1157C131.407 97.6819 131.321 97.1606 131.321 96.5519V96.3577C131.321 95.7749 131.407 95.2731 131.579 94.8522C131.751 94.4314 131.979 94.0849 132.264 93.813C132.548 93.5346 132.876 93.3306 133.246 93.2011C133.616 93.0716 134 93.0068 134.397 93.0068C134.794 93.0068 135.178 93.0716 135.548 93.2011C135.919 93.3306 136.246 93.5346 136.53 93.813C136.815 94.0849 137.043 94.4314 137.215 94.8522C137.387 95.2731 137.473 95.7749 137.473 96.3577V96.5519C137.473 97.1606 137.387 97.6819 137.215 98.1157C137.043 98.5495 136.815 98.9056 136.53 99.1841C136.246 99.4625 135.919 99.6697 135.548 99.8057C135.178 99.9352 134.794 99.9999 134.397 99.9999ZM134.397 99.1841C134.668 99.1841 134.93 99.1355 135.181 99.0384C135.432 98.9413 135.654 98.7891 135.846 98.5819C136.038 98.3682 136.19 98.0963 136.302 97.766C136.421 97.4293 136.481 97.0246 136.481 96.5519V96.3577C136.481 95.9109 136.421 95.5289 136.302 95.2116C136.19 94.8879 136.038 94.6256 135.846 94.4249C135.654 94.2177 135.432 94.0655 135.181 93.9684C134.93 93.8713 134.668 93.8227 134.397 93.8227C134.126 93.8227 133.865 93.8713 133.613 93.9684C133.362 94.0655 133.14 94.2177 132.948 94.4249C132.756 94.6256 132.601 94.8879 132.482 95.2116C132.369 95.5289 132.313 95.9109 132.313 96.3577V96.5519C132.313 97.0246 132.369 97.4293 132.482 97.766C132.601 98.0963 132.756 98.3682 132.948 98.5819C133.14 98.7891 133.362 98.9413 133.613 99.0384C133.865 99.1355 134.126 99.1841 134.397 99.1841Z" fill="white"/>
<path d="M145.066 99.9999C144.676 99.9999 144.306 99.9352 143.955 99.8057C143.604 99.6697 143.293 99.4625 143.022 99.1841C142.751 98.8992 142.536 98.5398 142.377 98.106C142.219 97.6721 142.139 97.1541 142.139 96.5519V96.3577C142.139 95.7749 142.219 95.2731 142.377 94.8522C142.536 94.4314 142.751 94.0849 143.022 93.813C143.293 93.541 143.604 93.3403 143.955 93.2108C144.306 93.0748 144.676 93.0068 145.066 93.0068C145.443 93.0068 145.787 93.0554 146.098 93.1525C146.416 93.2497 146.694 93.3889 146.932 93.5702C147.17 93.7515 147.362 93.9749 147.507 94.2403C147.66 94.5058 147.755 94.8069 147.795 95.1436H146.803C146.71 94.7033 146.515 94.3731 146.217 94.1529C145.92 93.9328 145.536 93.8227 145.066 93.8227C144.822 93.8227 144.583 93.868 144.352 93.9587C144.12 94.0493 143.912 94.195 143.727 94.3957C143.548 94.59 143.403 94.849 143.29 95.1728C143.184 95.4965 143.131 95.8915 143.131 96.3577V96.5519C143.131 97.0441 143.191 97.4585 143.31 97.7952C143.429 98.1254 143.581 98.3941 143.766 98.6013C143.952 98.8085 144.16 98.9574 144.392 99.0481C144.623 99.1388 144.848 99.1841 145.066 99.1841C145.582 99.1841 145.986 99.061 146.277 98.815C146.568 98.5689 146.743 98.2517 146.803 97.8632H147.795C147.742 98.2387 147.636 98.5625 147.478 98.8344C147.319 99.0999 147.117 99.3201 146.872 99.4949C146.634 99.6697 146.36 99.7992 146.049 99.8834C145.744 99.9611 145.417 99.9999 145.066 99.9999Z" fill="white"/>
<path d="M154.177 93.9004H151.766V93.104H157.521V93.9004H155.11V99.9028H154.177V93.9004Z" fill="white"/>
<path d="M162.186 93.104H163.119V95.8235H164.567C165.024 95.8235 165.421 95.8721 165.758 95.9692C166.095 96.0663 166.373 96.2055 166.592 96.3868C166.817 96.5681 166.982 96.7851 167.088 97.0376C167.194 97.2836 167.247 97.5588 167.247 97.8632C167.247 98.1675 167.194 98.4459 167.088 98.6984C166.982 98.9445 166.817 99.1582 166.592 99.3395C166.373 99.5208 166.095 99.66 165.758 99.7571C165.421 99.8542 165.024 99.9028 164.567 99.9028H162.186V93.104ZM164.518 99.1064C165.179 99.1064 165.642 98.9995 165.907 98.7859C166.178 98.5657 166.314 98.2581 166.314 97.8632C166.314 97.4682 166.178 97.1638 165.907 96.9502C165.642 96.73 165.179 96.6199 164.518 96.6199H163.119V99.1064H164.518Z" fill="white"/>
<path d="M172.161 93.104H173.094V96.008H174.413C174.44 95.4771 174.529 95.0238 174.681 94.6483C174.84 94.2662 175.042 93.9554 175.287 93.7159C175.531 93.4698 175.816 93.2917 176.14 93.1817C176.464 93.0651 176.808 93.0068 177.172 93.0068C177.556 93.0068 177.92 93.0716 178.264 93.2011C178.607 93.3241 178.908 93.5216 179.166 93.7936C179.424 94.059 179.626 94.4055 179.772 94.8328C179.924 95.2537 180 95.762 180 96.3577V96.5519C180 97.1736 179.924 97.7013 179.772 98.1351C179.626 98.5689 179.424 98.9251 179.166 99.2035C178.908 99.4819 178.607 99.6859 178.264 99.8154C177.92 99.9384 177.556 99.9999 177.172 99.9999C176.802 99.9999 176.451 99.9417 176.12 99.8251C175.796 99.7086 175.508 99.5208 175.257 99.2618C175.012 99.0028 174.814 98.6725 174.662 98.2711C174.509 97.8696 174.423 97.3808 174.404 96.8045H173.094V99.9028H172.161V93.104ZM177.172 99.1841C177.417 99.1841 177.652 99.1355 177.877 99.0384C178.101 98.9413 178.297 98.7891 178.462 98.5819C178.627 98.3682 178.76 98.0963 178.859 97.766C178.958 97.4293 179.008 97.0246 179.008 96.5519V96.3577C179.008 95.9109 178.958 95.5289 178.859 95.2116C178.76 94.8879 178.627 94.6256 178.462 94.4249C178.297 94.2177 178.101 94.0655 177.877 93.9684C177.652 93.8713 177.417 93.8227 177.172 93.8227C176.921 93.8227 176.682 93.8713 176.458 93.9684C176.239 94.0655 176.047 94.2177 175.882 94.4249C175.717 94.6256 175.584 94.8879 175.485 95.2116C175.386 95.5289 175.336 95.9109 175.336 96.3577V96.5519C175.336 97.0246 175.386 97.4293 175.485 97.766C175.584 98.0963 175.717 98.3682 175.882 98.5819C176.047 98.7891 176.239 98.9413 176.458 99.0384C176.682 99.1355 176.921 99.1841 177.172 99.1841Z" fill="white"/>
<path fill-rule="evenodd" clip-rule="evenodd" d="M29.2664 30.9692C56.5483 30.9692 79.3481 49.9935 84 74.9259H15V30.9692C16 30.9692 28.2404 30.9692 29.2664 30.9692Z" fill="#009EE0"/>
<path fill-rule="evenodd" clip-rule="evenodd" d="M23.9669 30.9695H4.0076C4.00257 25.7293 4 20.49 4 15.2495L4.01066 14.7161L4.03999 14.1874L4.08897 13.6607L4.15987 13.1356L4.24993 12.6139L4.35915 12.097L4.48989 11.5869L4.6393 11.0836L4.81004 10.5891L4.99875 10.1036L5.20899 9.62868L5.43878 9.16577L5.68733 8.71669L5.95583 8.28167L6.24438 7.86235L6.5506 7.45751L6.87696 7.07259L7.22268 6.70606L7.58608 6.35814L7.96785 6.03056L8.36926 5.72509L8.78855 5.44135L9.22641 5.18061L9.68371 4.94225L10.1602 4.7308L10.6565 4.54204L11.173 4.38134L11.7103 4.24552L12.2694 4.13858L12.8519 4.05928L13.4576 4.01342L14.0852 3.99609L14.6828 4.01228L15.2592 4.05855L15.816 4.13394L16.3526 4.23934L16.8707 4.36979L17.3704 4.52748L17.8513 4.7112L18.3156 4.91988L18.7624 5.15272L19.1918 5.40808L19.6058 5.68825L20.0002 5.98998L20.3781 6.31317L20.7397 6.65645L21.0832 7.01957L21.4087 7.40083L21.7164 7.80128L22.0059 8.21897L22.2762 8.65122L22.5284 9.09917L22.7608 9.56135L22.9741 10.0363L23.1674 10.5227L23.3405 11.0199L23.4944 11.5262L23.6288 12.0419L23.743 12.5625L23.8345 13.092L23.9076 13.6256L23.9585 14.1619L23.9899 14.7022L24 15.2495C23.9991 20.4895 23.986 25.7293 23.9669 30.9695Z" fill="#009EE0"/>
<path fill-rule="evenodd" clip-rule="evenodd" d="M23.9677 30.9695H14V4.00512L14.3203 3.99609L14.9037 4.01228L15.4665 4.05855L16.01 4.13394L16.5339 4.23934L17.0397 4.36979L17.5276 4.52748L17.9971 4.7112L18.4504 4.91988L18.8866 5.15272L19.3058 5.40808L19.7099 5.68825L20.095 5.98998L20.464 6.31317L20.817 6.65645L21.1524 7.01957L21.4702 7.40083L21.7706 7.80128L22.0531 8.21897L22.3171 8.65122L22.5633 9.09917L22.7902 9.56135L22.9984 10.0363L23.1872 10.5227L23.3561 11.0199L23.5064 11.5262L23.6376 12.0419L23.7491 12.5625L23.8384 13.092L23.9098 13.6256L23.9595 14.1619L23.9902 14.7022L24 15.2495C23.9991 20.4895 23.9863 25.7293 23.9677 30.9695Z" fill="#2C2828"/>
<path fill-rule="evenodd" clip-rule="evenodd" d="M0.672607 45.1974V40.7041H180V45.1974H0.672607Z" fill="white"/>
<path fill-rule="evenodd" clip-rule="evenodd" d="M15.9167 0.0930384L16.6757 0.207435L17.4169 0.36484L18.14 0.56418L18.8436 0.8037L19.5268 1.08213L20.1893 1.39694L20.8307 1.74803L21.4499 2.13267L22.0462 2.54939L22.6192 2.99684L23.1686 3.47344L23.6939 3.97745L24.1947 4.50769L24.6702 5.06192L25.1206 5.63976L25.5452 6.23904L25.9437 6.85842L26.3151 7.49653L26.6598 8.15209L26.9769 8.82364L27.2661 9.50983L27.5267 10.209L27.759 10.9204L27.9617 11.6424L28.1348 12.3739L28.2771 13.1129L28.3891 13.8587L28.4696 14.6096L28.5183 15.3644L28.5344 16.1124L28.5337 17.3889L28.531 18.6569C28.4448 45.7388 28.3643 72.819 28.3643 99.9015H23.8925C23.8925 72.6951 24.1157 45.4888 24.1194 18.2827L24.1092 17.6265L24.0785 16.979L24.0277 16.3352L23.956 15.6954L23.8645 15.0619L23.7526 14.4358L23.621 13.8183L23.4691 13.2106L23.2979 12.6146L23.1072 12.0314L22.8973 11.4624L22.6681 10.9082L22.42 10.3711L22.1534 9.85175L21.8684 9.35154L21.5652 8.87172L21.2442 8.41365L20.9057 7.97801L20.55 7.56635L20.1769 7.17918L19.7872 6.81795L19.3804 6.48286L18.957 6.17546L18.5168 5.89624L18.06 5.64639L17.5854 5.42617L17.0933 5.23668L16.583 5.07899L16.0542 4.95416L15.5058 4.86317L14.9375 4.80748L14.3488 4.78866L13.7299 4.80816L13.1333 4.86551L12.5599 4.95923L12.0086 5.08738L11.479 5.24936L10.97 5.44344L10.4808 5.66882L10.0115 5.92404L9.56103 6.20871L9.12919 6.52167L8.71593 6.86213L8.32068 7.22872L7.9443 7.62116L7.58592 8.03789L7.24604 8.47831L6.92454 8.94038L6.62251 9.4241L6.33857 9.92752L6.07409 10.4496L5.8283 10.9882L5.60245 11.543L5.39587 12.1119L5.20885 12.6941L5.04119 13.2873L4.89358 13.8912L4.76543 14.5035L4.65723 15.123L4.56849 15.7481L4.49979 16.3777L4.45046 17.0097L4.42097 17.6433L4.41095 18.2829C4.41095 45.4716 4.47186 72.647 4.47186 99.9015H0C0 71.8324 0.163472 44.0141 0.163472 16.1126L0.17865 15.3839L0.224095 14.6464L0.299309 13.9105L0.404011 13.1776L0.538197 12.4495L0.701086 11.7272L0.892873 11.0124L1.11307 10.3058L1.36189 9.60998L1.63823 8.92585L1.9426 8.25468L2.27441 7.59795L2.63396 6.95741L3.02045 6.33471L3.4342 5.73104L3.8746 5.14794L4.34225 4.58717L4.83617 4.05069L5.35646 3.53966L5.90274 3.05555L6.47489 2.60089L7.07235 2.17655L7.69529 1.7848L8.34277 1.42698L9.01495 1.10534L9.71068 0.821255L10.4295 0.576663L11.1709 0.373033L11.9344 0.212018L12.719 0.0950864L13.524 0.0240888L14.3491 0L15.1408 0.0236005L15.9167 0.0930384Z" fill="white"/>
<path fill-rule="evenodd" clip-rule="evenodd" d="M13 30.9692V78.9219H16V30.9692H13Z" fill="white"/>
<path d="M46.3224 74.2665L37.1934 62.1214H33.9256V74.2665H30.7097V47.8056H33.9256V59.2789H35.3261L45.9593 47.8056H49.7977L39.0607 59.4339L50.1608 74.2665H46.3224Z" fill="white"/>
<path d="M54.3168 74.2665V47.8056H63.6015C65.4515 47.8056 66.9773 48.1243 68.1789 48.7617C69.3806 49.3905 70.2753 50.2389 70.8632 51.307C71.451 52.3665 71.745 53.5423 71.745 54.8343C71.745 55.9713 71.5418 56.9102 71.1355 57.6509C70.7378 58.3917 70.2105 58.9774 69.5535 59.4081C68.9051 59.8388 68.2005 60.1575 67.4398 60.3642V60.6226C68.2524 60.6743 69.0694 60.9585 69.8906 61.4753C70.7119 61.9922 71.3992 62.7329 71.9524 63.6976C72.5057 64.6624 72.7823 65.8424 72.7823 67.2378C72.7823 68.5643 72.4798 69.7573 71.8746 70.8168C71.2695 71.8762 70.3142 72.716 69.0088 73.3362C67.7035 73.9564 66.0047 74.2665 63.9127 74.2665H54.3168ZM57.5327 71.424H63.9127C66.0134 71.424 67.5046 71.0192 68.3864 70.2095C69.2768 69.3912 69.722 68.4007 69.722 67.2378C69.722 66.342 69.493 65.5151 69.0348 64.7571C68.5766 63.9905 67.9239 63.3789 67.0767 62.9224C66.2295 62.4573 65.2267 62.2247 64.0683 62.2247H57.5327V71.424ZM57.5327 59.4339H63.4977C64.4659 59.4339 65.3391 59.2444 66.1171 58.8654C66.9038 58.4864 67.5262 57.9524 67.9844 57.2633C68.4512 56.5742 68.6847 55.7646 68.6847 54.8343C68.6847 53.6715 68.2784 52.6852 67.4657 51.8755C66.6531 51.0572 65.365 50.6481 63.6015 50.6481H57.5327V59.4339Z" fill="white"/>
<path d="M78.0666 47.8056H81.2306V68.6332H81.4899L96.0134 47.8056H99.1256V74.2665H95.9097V53.4906H95.6503L81.1787 74.2665H78.0666V47.8056Z" fill="white"/>
<path d="M103.278 74.2665V71.3207H104.056C105.163 71.3207 106.023 70.9675 106.637 70.2612C107.251 69.5549 107.692 68.4136 107.96 66.8373C108.236 65.261 108.422 63.1722 108.517 60.5709L108.984 47.8056H125.167V74.2665H121.951V50.6481H112.044L111.629 61.1911C111.526 63.9647 111.271 66.3248 110.864 68.2715C110.458 70.2181 109.745 71.704 108.725 72.729C107.705 73.754 106.218 74.2665 104.264 74.2665H103.278Z" fill="white"/>
<path d="M154 61.0361C154 63.8269 153.494 66.2386 152.483 68.2715C151.472 70.3043 150.084 71.8719 148.321 72.9745C146.557 74.077 144.543 74.6283 142.278 74.6283C140.013 74.6283 137.999 74.077 136.235 72.9745C134.471 71.8719 133.084 70.3043 132.072 68.2715C131.061 66.2386 130.555 63.8269 130.555 61.0361C130.555 58.2453 131.061 55.8335 132.072 53.8007C133.084 51.7679 134.471 50.2002 136.235 49.0977C137.999 47.9951 140.013 47.4438 142.278 47.4438C144.543 47.4438 146.557 47.9951 148.321 49.0977C150.084 50.2002 151.472 51.7679 152.483 53.8007C153.494 55.8335 154 58.2453 154 61.0361ZM150.888 61.0361C150.888 58.7448 150.503 56.8111 149.734 55.2348C148.973 53.6585 147.94 52.4656 146.635 51.6559C145.338 50.8462 143.886 50.4414 142.278 50.4414C140.67 50.4414 139.213 50.8462 137.908 51.6559C136.611 52.4656 135.578 53.6585 134.809 55.2348C134.048 56.8111 133.667 58.7448 133.667 61.0361C133.667 63.3273 134.048 65.261 134.809 66.8373C135.578 68.4136 136.611 69.6066 137.908 70.4162C139.213 71.2259 140.67 71.6307 142.278 71.6307C143.886 71.6307 145.338 71.2259 146.635 70.4162C147.94 69.6066 148.973 68.4136 149.734 66.8373C150.503 65.261 150.888 63.3273 150.888 61.0361Z" fill="white"/>
<path d="M159.408 74.2665V47.8056H162.624V59.589H176.784V47.8056H180V74.2665H176.784V62.4315H162.624V74.2665H159.408Z" fill="white"/>
<path d="M46.3224 74.2665L37.1934 62.1214H33.9256V74.2665H30.7097V47.8056H33.9256V59.2789H35.3261L45.9593 47.8056H49.7977L39.0607 59.4339L50.1608 74.2665H46.3224Z" fill="white"/>
<path d="M54.3168 74.2665V47.8056H63.6015C65.4515 47.8056 66.9773 48.1243 68.1789 48.7617C69.3806 49.3905 70.2753 50.2389 70.8632 51.307C71.451 52.3665 71.745 53.5423 71.745 54.8343C71.745 55.9713 71.5418 56.9102 71.1355 57.6509C70.7378 58.3917 70.2105 58.9774 69.5535 59.4081C68.9051 59.8388 68.2005 60.1575 67.4398 60.3642V60.6226C68.2524 60.6743 69.0694 60.9585 69.8906 61.4753C70.7119 61.9922 71.3992 62.7329 71.9524 63.6976C72.5057 64.6624 72.7823 65.8424 72.7823 67.2378C72.7823 68.5643 72.4798 69.7573 71.8746 70.8168C71.2695 71.8762 70.3142 72.716 69.0088 73.3362C67.7035 73.9564 66.0047 74.2665 63.9127 74.2665H54.3168ZM57.5327 71.424H63.9127C66.0134 71.424 67.5046 71.0192 68.3864 70.2095C69.2768 69.3912 69.722 68.4007 69.722 67.2378C69.722 66.342 69.493 65.5151 69.0348 64.7571C68.5766 63.9905 67.9239 63.3789 67.0767 62.9224C66.2295 62.4573 65.2267 62.2247 64.0683 62.2247H57.5327V71.424ZM57.5327 59.4339H63.4977C64.4659 59.4339 65.3391 59.2444 66.1171 58.8654C66.9038 58.4864 67.5262 57.9524 67.9844 57.2633C68.4512 56.5742 68.6847 55.7646 68.6847 54.8343C68.6847 53.6715 68.2784 52.6852 67.4657 51.8755C66.6531 51.0572 65.365 50.6481 63.6015 50.6481H57.5327V59.4339Z" fill="white"/>
<path d="M78.0666 47.8056H81.2306V68.6332H81.4899L96.0134 47.8056H99.1256V74.2665H95.9097V53.4906H95.6503L81.1787 74.2665H78.0666V47.8056Z" fill="white"/>
<path d="M103.278 74.2665V71.3207H104.056C105.163 71.3207 106.023 70.9675 106.637 70.2612C107.251 69.5549 107.692 68.4136 107.96 66.8373C108.236 65.261 108.422 63.1722 108.517 60.5709L108.984 47.8056H125.167V74.2665H121.951V50.6481H112.044L111.629 61.1911C111.526 63.9647 111.271 66.3248 110.864 68.2715C110.458 70.2181 109.745 71.704 108.725 72.729C107.705 73.754 106.218 74.2665 104.264 74.2665H103.278Z" fill="white"/>
<path d="M154 61.0361C154 63.8269 153.494 66.2386 152.483 68.2715C151.472 70.3043 150.084 71.8719 148.321 72.9745C146.557 74.077 144.543 74.6283 142.278 74.6283C140.013 74.6283 137.999 74.077 136.235 72.9745C134.471 71.8719 133.084 70.3043 132.072 68.2715C131.061 66.2386 130.555 63.8269 130.555 61.0361C130.555 58.2453 131.061 55.8335 132.072 53.8007C133.084 51.7679 134.471 50.2002 136.235 49.0977C137.999 47.9951 140.013 47.4438 142.278 47.4438C144.543 47.4438 146.557 47.9951 148.321 49.0977C150.084 50.2002 151.472 51.7679 152.483 53.8007C153.494 55.8335 154 58.2453 154 61.0361ZM150.888 61.0361C150.888 58.7448 150.503 56.8111 149.734 55.2348C148.973 53.6585 147.94 52.4656 146.635 51.6559C145.338 50.8462 143.886 50.4414 142.278 50.4414C140.67 50.4414 139.213 50.8462 137.908 51.6559C136.611 52.4656 135.578 53.6585 134.809 55.2348C134.048 56.8111 133.667 58.7448 133.667 61.0361C133.667 63.3273 134.048 65.261 134.809 66.8373C135.578 68.4136 136.611 69.6066 137.908 70.4162C139.213 71.2259 140.67 71.6307 142.278 71.6307C143.886 71.6307 145.338 71.2259 146.635 70.4162C147.94 69.6066 148.973 68.4136 149.734 66.8373C150.503 65.261 150.888 63.3273 150.888 61.0361Z" fill="white"/>
<path d="M159.408 74.2665V47.8056H162.624V59.589H176.784V47.8056H180V74.2665H176.784V62.4315H162.624V74.2665H159.408Z" fill="white"/>
<line x1="30" y1="78.0205" x2="180" y2="78.0205" stroke="white" stroke-width="2"/>
</svg>
